<svg width="242" height="98" viewBox="0 0 242 98" fill="none" xmlns="http://www.w3.org/2000/svg">
<path fill-rule="evenodd" clip-rule="evenodd" d="M18.5 0.5L120.75 0.5V3.5H121.25V0.5L223.5 0.5V1C223.5 10.665 231.335 18.5 241 18.5H241.5V23.25H241C239.619 23.25 238.5 24.3693 238.5 25.75C238.5 27.1307 239.619 28.25 241 28.25H241.5V30H241C239.619 30 238.5 31.1193 238.5 32.5C238.5 33.8807 239.619 35 241 35H241.5V36.75H241C239.619 36.75 238.5 37.8693 238.5 39.25C238.5 40.6307 239.619 41.75 241 41.75H241.5V43.5H241C239.619 43.5 238.5 44.6193 238.5 46C238.5 47.3807 239.619 48.5 241 48.5H241.5V50.25H241C239.619 50.25 238.5 51.3693 238.5 52.75C238.5 54.1307 239.619 55.25 241 55.25H241.5V57H241C239.619 57 238.5 58.1193 238.5 59.5C238.5 60.8807 239.619 62 241 62H241.5V63.75H241C239.619 63.75 238.5 64.8693 238.5 66.25C238.5 67.6307 239.619 68.75 241 68.75H241.5V70.5H241C239.619 70.5 238.5 71.6193 238.5 73C238.5 74.3807 239.619 75.5 241 75.5H241.5V79.5H241C231.335 79.5 223.5 87.335 223.5 97V97.5H121.25V94.5H120.75V97.5H18.5V97C18.5 87.335 10.665 79.5 1 79.5H0.5L0.5 75.5H1C2.38071 75.5 3.5 74.3807 3.5 73C3.5 71.6193 2.38071 70.5 1 70.5H0.5L0.5 68.75H1C2.38071 68.75 3.5 67.6307 3.5 66.25C3.5 64.8693 2.38071 63.75 1 63.75H0.5L0.5 62H1C2.38071 62 3.5 60.8807 3.5 59.5C3.5 58.1193 2.38071 57 1 57H0.5V55.25H1C2.38071 55.25 3.5 54.1307 3.5 52.75C3.5 51.3693 2.38071 50.25 1 50.25H0.5V48.5H1C2.38071 48.5 3.5 47.3807 3.5 46C3.5 44.6193 2.38071 43.5 1 43.5H0.5L0.5 41.75H1C2.38071 41.75 3.5 40.6307 3.5 39.25C3.5 37.8693 2.38071 36.75 1 36.75H0.5V35H1C2.38071 35 3.5 33.8807 3.5 32.5C3.5 31.1193 2.38071 30 1 30H0.5V28.25H1C2.38071 28.25 3.5 27.1307 3.5 25.75C3.5 24.3693 2.38071 23.25 1 23.25H0.5L0.5 18.5H1C10.665 18.5 18.5 10.665 18.5 1V0.5ZM19.4934 1.5C19.2328 11.32 11.32 19.2328 1.5 19.4934L1.5 22.2854C3.19615 22.5281 4.5 23.9868 4.5 25.75C4.5 27.3609 3.41176 28.7176 1.93035 29.125C3.41176 29.5324 4.5 30.8891 4.5 32.5C4.5 34.1109 3.41176 35.4676 1.93035 35.875C3.41176 36.2825 4.5 37.6391 4.5 39.25C4.5 40.8609 3.41176 42.2176 1.93035 42.625C3.41176 43.0325 4.5 44.3891 4.5 46C4.5 47.6109 3.41176 48.9676 1.93035 49.375C3.41176 49.7825 4.5 51.1391 4.5 52.75C4.5 54.3609 3.41176 55.7176 1.93035 56.125C3.41176 56.5325 4.5 57.8891 4.5 59.5C4.5 61.1109 3.41176 62.4676 1.93035 62.875C3.41176 63.2825 4.5 64.6391 4.5 66.25C4.5 67.8609 3.41176 69.2176 1.93035 69.625C3.41176 70.0324 4.5 71.3891 4.5 73C4.5 74.7632 3.19615 76.2219 1.5 76.4646L1.5 78.5066C11.32 78.7672 19.2328 86.68 19.4934 96.5H119.75V93.5H122.25V96.5H222.507C222.767 86.68 230.68 78.7672 240.5 78.5066V76.4646C238.804 76.2219 237.5 74.7632 237.5 73C237.5 71.3891 238.588 70.0324 240.07 69.625C238.588 69.2176 237.5 67.8609 237.5 66.25C237.5 64.6391 238.588 63.2825 240.07 62.875C238.588 62.4676 237.5 61.1109 237.5 59.5C237.5 57.8891 238.588 56.5325 240.07 56.125C238.588 55.7176 237.5 54.3609 237.5 52.75C237.5 51.1391 238.588 49.7825 240.07 49.375C238.588 48.9676 237.5 47.6109 237.5 46C237.5 44.3891 238.588 43.0325 240.07 42.625C238.588 42.2176 237.5 40.8609 237.5 39.25C237.5 37.6391 238.588 36.2825 240.07 35.875C238.588 35.4676 237.5 34.1109 237.5 32.5C237.5 30.8891 238.588 29.5324 240.07 29.125C238.588 28.7176 237.5 27.3609 237.5 25.75C237.5 23.9868 238.804 22.5281 240.5 22.2854V19.4934C230.68 19.2328 222.767 11.32 222.507 1.5L122.25 1.5V4.5H119.75V1.5L19.4934 1.5ZM119.75 9.5H122.25V16.5H119.75V9.5ZM120.75 10.5V15.5H121.25V10.5H120.75ZM119.75 21.5H122.25V28.5H119.75V21.5ZM120.75 22.5V27.5H121.25V22.5H120.75ZM119.75 33.5H122.25V40.5H119.75V33.5ZM120.75 34.5V39.5H121.25V34.5H120.75ZM119.75 45.5H122.25V52.5H119.75V45.5ZM120.75 46.5V51.5H121.25V46.5H120.75ZM119.75 57.5H122.25V64.5H119.75V57.5ZM120.75 58.5V63.5H121.25V58.5H120.75ZM119.75 69.5H122.25V76.5H119.75V69.5ZM120.75 70.5V75.5H121.25V70.5H120.75ZM119.75 81.5H122.25V88.5H119.75V81.5ZM120.75 82.5V87.5H121.25V82.5H120.75Z" fill="white" fill-opacity="0.2"/>
<path d="M30.3578 41.904C30.9178 42.0813 31.3565 42.38 31.6738 42.8C31.9911 43.2107 32.1498 43.7193 32.1498 44.326C32.1498 45.1847 31.8138 45.8473 31.1418 46.314C30.4792 46.7713 29.5085 47 28.2298 47H23.1618V37.2H27.9498C29.1445 37.2 30.0591 37.4287 30.6938 37.886C31.3378 38.3433 31.6598 38.964 31.6598 39.748C31.6598 40.224 31.5432 40.6487 31.3098 41.022C31.0858 41.3953 30.7685 41.6893 30.3578 41.904ZM25.4158 38.908V41.218H27.6698C28.2298 41.218 28.6545 41.12 28.9438 40.924C29.2331 40.728 29.3778 40.4387 29.3778 40.056C29.3778 39.6733 29.2331 39.3887 28.9438 39.202C28.6545 39.006 28.2298 38.908 27.6698 38.908H25.4158ZM28.0618 45.292C28.6591 45.292 29.1072 45.194 29.4058 44.998C29.7138 44.802 29.8678 44.4987 29.8678 44.088C29.8678 43.276 29.2658 42.87 28.0618 42.87H25.4158V45.292H28.0618Z" fill="white" fill-opacity="0.2"/>
<path d="M41.3009 39.468V47H39.2289V46.104C38.9396 46.4307 38.5942 46.6827 38.1929 46.86C37.7916 47.028 37.3576 47.112 36.8909 47.112C35.9016 47.112 35.1176 46.8273 34.5389 46.258C33.9602 45.6887 33.6709 44.844 33.6709 43.724V39.468H35.8549V43.402C35.8549 44.6153 36.3636 45.222 37.3809 45.222C37.9036 45.222 38.3236 45.054 38.6409 44.718C38.9582 44.3727 39.1169 43.864 39.1169 43.192V39.468H41.3009Z" fill="white" fill-opacity="0.2"/>
<path d="M50.8002 39.468L47.3982 47.462C47.0529 48.33 46.6236 48.9413 46.1102 49.296C45.6062 49.6507 44.9949 49.828 44.2762 49.828C43.8842 49.828 43.4969 49.7673 43.1142 49.646C42.7316 49.5247 42.4189 49.3567 42.1762 49.142L42.9742 47.588C43.1422 47.7373 43.3336 47.854 43.5482 47.938C43.7722 48.022 43.9916 48.064 44.2062 48.064C44.5049 48.064 44.7476 47.9893 44.9342 47.84C45.1209 47.7 45.2889 47.462 45.4382 47.126L45.4662 47.056L42.2042 39.468H44.4582L46.5722 44.578L48.7002 39.468H50.8002Z" fill="white" fill-opacity="0.2"/>
<path d="M63.1323 39.468L59.7303 47.462C59.3849 48.33 58.9556 48.9413 58.4423 49.296C57.9383 49.6507 57.3269 49.828 56.6083 49.828C56.2163 49.828 55.8289 49.7673 55.4463 49.646C55.0636 49.5247 54.7509 49.3567 54.5083 49.142L55.3063 47.588C55.4743 47.7373 55.6656 47.854 55.8803 47.938C56.1043 48.022 56.3236 48.064 56.5383 48.064C56.8369 48.064 57.0796 47.9893 57.2663 47.84C57.4529 47.7 57.6209 47.462 57.7703 47.126L57.7983 47.056L54.5363 39.468H56.7903L58.9043 44.578L61.0323 39.468H63.1323Z" fill="white" fill-opacity="0.2"/>
<path d="M67.4024 47.112C66.609 47.112 65.895 46.9487 65.2604 46.622C64.635 46.286 64.145 45.824 63.7904 45.236C63.4357 44.648 63.2584 43.9807 63.2584 43.234C63.2584 42.4873 63.4357 41.82 63.7904 41.232C64.145 40.644 64.635 40.1867 65.2604 39.86C65.895 39.524 66.609 39.356 67.4024 39.356C68.1957 39.356 68.905 39.524 69.5304 39.86C70.1557 40.1867 70.6457 40.644 71.0004 41.232C71.355 41.82 71.5324 42.4873 71.5324 43.234C71.5324 43.9807 71.355 44.648 71.0004 45.236C70.6457 45.824 70.1557 46.286 69.5304 46.622C68.905 46.9487 68.1957 47.112 67.4024 47.112ZM67.4024 45.32C67.9624 45.32 68.4197 45.1333 68.7744 44.76C69.1384 44.3773 69.3204 43.8687 69.3204 43.234C69.3204 42.5993 69.1384 42.0953 68.7744 41.722C68.4197 41.3393 67.9624 41.148 67.4024 41.148C66.8424 41.148 66.3804 41.3393 66.0164 41.722C65.6524 42.0953 65.4704 42.5993 65.4704 43.234C65.4704 43.8687 65.6524 44.3773 66.0164 44.76C66.3804 45.1333 66.8424 45.32 67.4024 45.32Z" fill="white" fill-opacity="0.2"/>
<path d="M80.5802 39.468V47H78.5082V46.104C78.2189 46.4307 77.8735 46.6827 77.4722 46.86C77.0709 47.028 76.6369 47.112 76.1702 47.112C75.1809 47.112 74.3969 46.8273 73.8182 46.258C73.2395 45.6887 72.9502 44.844 72.9502 43.724V39.468H75.1342V43.402C75.1342 44.6153 75.6429 45.222 76.6602 45.222C77.1829 45.222 77.6029 45.054 77.9202 44.718C78.2375 44.3727 78.3962 43.864 78.3962 43.192V39.468H80.5802Z" fill="white" fill-opacity="0.2"/>
<path d="M84.6895 40.462C84.9509 40.098 85.3009 39.8227 85.7395 39.636C86.1875 39.4493 86.7009 39.356 87.2795 39.356V41.372C87.0369 41.3533 86.8735 41.344 86.7895 41.344C86.1642 41.344 85.6742 41.5213 85.3195 41.876C84.9649 42.2213 84.7875 42.744 84.7875 43.444V47H82.6035V39.468H84.6895V40.462Z" fill="white" fill-opacity="0.2"/>
<path d="M25.4018 55.636H27.3338V57.316H25.4578V63H23.2738V57.316H22.1118V55.636H23.2738V55.3C23.2738 54.4413 23.5258 53.76 24.0298 53.256C24.5431 52.752 25.2618 52.5 26.1858 52.5C26.5125 52.5 26.8205 52.5373 27.1098 52.612C27.4085 52.6773 27.6558 52.7753 27.8518 52.906L27.2778 54.488C27.0258 54.3107 26.7318 54.222 26.3958 54.222C25.7331 54.222 25.4018 54.586 25.4018 55.314V55.636ZM29.5458 55.468H31.7298V63H29.5458V55.468ZM30.6378 54.418C30.2365 54.418 29.9098 54.3013 29.6578 54.068C29.4058 53.8347 29.2798 53.5453 29.2798 53.2C29.2798 52.8547 29.4058 52.5653 29.6578 52.332C29.9098 52.0987 30.2365 51.982 30.6378 51.982C31.0391 51.982 31.3658 52.094 31.6178 52.318C31.8698 52.542 31.9958 52.822 31.9958 53.158C31.9958 53.522 31.8698 53.8253 31.6178 54.068C31.3658 54.3013 31.0391 54.418 30.6378 54.418Z" fill="white" fill-opacity="0.2"/>
<path d="M35.8399 56.462C36.1012 56.098 36.4512 55.8227 36.8899 55.636C37.3379 55.4493 37.8512 55.356 38.4299 55.356V57.372C38.1872 57.3533 38.0239 57.344 37.9399 57.344C37.3146 57.344 36.8246 57.5213 36.4699 57.876C36.1152 58.2213 35.9379 58.744 35.9379 59.444V63H33.7539V55.468H35.8399V56.462Z" fill="white" fill-opacity="0.2"/>
<path d="M42.2899 63.112C41.6645 63.112 41.0532 63.0373 40.4559 62.888C39.8585 62.7293 39.3825 62.5333 39.0279 62.3L39.7559 60.732C40.0919 60.9467 40.4979 61.124 40.9739 61.264C41.4499 61.3947 41.9165 61.46 42.3739 61.46C43.2979 61.46 43.7599 61.2313 43.7599 60.774C43.7599 60.5593 43.6339 60.4053 43.3819 60.312C43.1299 60.2187 42.7425 60.1393 42.2199 60.074C41.6039 59.9807 41.0952 59.8733 40.6939 59.752C40.2925 59.6307 39.9425 59.416 39.6439 59.108C39.3545 58.8 39.2099 58.3613 39.2099 57.792C39.2099 57.316 39.3452 56.896 39.6159 56.532C39.8959 56.1587 40.2972 55.8693 40.8199 55.664C41.3519 55.4587 41.9772 55.356 42.6959 55.356C43.2279 55.356 43.7552 55.4167 44.2779 55.538C44.8099 55.65 45.2485 55.8087 45.5939 56.014L44.8659 57.568C44.2032 57.1947 43.4799 57.008 42.6959 57.008C42.2292 57.008 41.8792 57.0733 41.6459 57.204C41.4125 57.3347 41.2959 57.5027 41.2959 57.708C41.2959 57.9413 41.4219 58.1047 41.6739 58.198C41.9259 58.2913 42.3272 58.38 42.8779 58.464C43.4939 58.5667 43.9979 58.6787 44.3899 58.8C44.7819 58.912 45.1225 59.122 45.4119 59.43C45.7012 59.738 45.8459 60.1673 45.8459 60.718C45.8459 61.1847 45.7059 61.6 45.4259 61.964C45.1459 62.328 44.7352 62.6127 44.1939 62.818C43.6619 63.014 43.0272 63.112 42.2899 63.112Z" fill="white" fill-opacity="0.2"/>
<path d="M52.0514 62.636C51.8367 62.7947 51.5707 62.916 51.2534 63C50.9454 63.0747 50.6187 63.112 50.2734 63.112C49.3774 63.112 48.682 62.8833 48.1874 62.426C47.702 61.9687 47.4594 61.2967 47.4594 60.41V57.316H46.2974V55.636H47.4594V53.802H49.6434V55.636H51.5194V57.316H49.6434V60.382C49.6434 60.6993 49.7227 60.9467 49.8814 61.124C50.0494 61.292 50.2827 61.376 50.5814 61.376C50.9267 61.376 51.2207 61.2827 51.4634 61.096L52.0514 62.636Z" fill="white" fill-opacity="0.2"/>
<path d="M62.1002 62.636C61.8855 62.7947 61.6195 62.916 61.3022 63C60.9942 63.0747 60.6675 63.112 60.3222 63.112C59.4262 63.112 58.7309 62.8833 58.2362 62.426C57.7509 61.9687 57.5082 61.2967 57.5082 60.41V57.316H56.3462V55.636H57.5082V53.802H59.6922V55.636H61.5682V57.316H59.6922V60.382C59.6922 60.6993 59.7715 60.9467 59.9302 61.124C60.0982 61.292 60.3315 61.376 60.6302 61.376C60.9755 61.376 61.2695 61.2827 61.5122 61.096L62.1002 62.636Z" fill="white" fill-opacity="0.2"/>
<path d="M63.3262 55.468H65.5102V63H63.3262V55.468ZM64.4182 54.418C64.0168 54.418 63.6902 54.3013 63.4382 54.068C63.1862 53.8347 63.0602 53.5453 63.0602 53.2C63.0602 52.8547 63.1862 52.5653 63.4382 52.332C63.6902 52.0987 64.0168 51.982 64.4182 51.982C64.8195 51.982 65.1462 52.094 65.3982 52.318C65.6502 52.542 65.7762 52.822 65.7762 53.158C65.7762 53.522 65.6502 53.8253 65.3982 54.068C65.1462 54.3013 64.8195 54.418 64.4182 54.418Z" fill="white" fill-opacity="0.2"/>
<path d="M71.1771 63.112C70.3744 63.112 69.6511 62.9487 69.0071 62.622C68.3724 62.286 67.8731 61.824 67.5091 61.236C67.1544 60.648 66.9771 59.9807 66.9771 59.234C66.9771 58.4873 67.1544 57.82 67.5091 57.232C67.8731 56.644 68.3724 56.1867 69.0071 55.86C69.6511 55.524 70.3744 55.356 71.1771 55.356C71.9704 55.356 72.6611 55.524 73.2491 55.86C73.8464 56.1867 74.2804 56.658 74.5511 57.274L72.8571 58.184C72.4651 57.4933 71.9004 57.148 71.1631 57.148C70.5938 57.148 70.1224 57.3347 69.7491 57.708C69.3758 58.0813 69.1891 58.59 69.1891 59.234C69.1891 59.878 69.3758 60.3867 69.7491 60.76C70.1224 61.1333 70.5938 61.32 71.1631 61.32C71.9098 61.32 72.4744 60.9747 72.8571 60.284L74.5511 61.208C74.2804 61.8053 73.8464 62.272 73.2491 62.608C72.6611 62.944 71.9704 63.112 71.1771 63.112Z" fill="white" fill-opacity="0.2"/>
<path d="M78.9879 60.046L77.9379 61.082V63H75.7539V52.612H77.9379V58.492L81.1299 55.468H83.7339L80.5979 58.66L84.0139 63H81.3679L78.9879 60.046Z" fill="white" fill-opacity="0.2"/>
<path d="M92.046 59.262C92.046 59.29 92.032 59.486 92.004 59.85H86.306C86.4086 60.3167 86.6513 60.6853 87.034 60.956C87.4166 61.2267 87.8926 61.362 88.462 61.362C88.854 61.362 89.1993 61.306 89.498 61.194C89.806 61.0727 90.0906 60.886 90.352 60.634L91.514 61.894C90.8046 62.706 89.7686 63.112 88.406 63.112C87.5566 63.112 86.8053 62.9487 86.152 62.622C85.4986 62.286 84.9946 61.824 84.64 61.236C84.2853 60.648 84.108 59.9807 84.108 59.234C84.108 58.4967 84.2806 57.834 84.626 57.246C84.9806 56.6487 85.4613 56.1867 86.068 55.86C86.684 55.524 87.37 55.356 88.126 55.356C88.8633 55.356 89.5306 55.5147 90.128 55.832C90.7253 56.1493 91.192 56.6067 91.528 57.204C91.8733 57.792 92.046 58.478 92.046 59.262ZM88.14 57.008C87.6453 57.008 87.23 57.148 86.894 57.428C86.558 57.708 86.3526 58.0907 86.278 58.576H89.988C89.9133 58.1 89.708 57.722 89.372 57.442C89.036 57.1527 88.6253 57.008 88.14 57.008Z" fill="white" fill-opacity="0.2"/>
<path d="M98.358 62.636C98.1433 62.7947 97.8773 62.916 97.56 63C97.252 63.0747 96.9253 63.112 96.58 63.112C95.684 63.112 94.9887 62.8833 94.494 62.426C94.0087 61.9687 93.766 61.2967 93.766 60.41V57.316H92.604V55.636H93.766V53.802H95.95V55.636H97.826V57.316H95.95V60.382C95.95 60.6993 96.0293 60.9467 96.188 61.124C96.356 61.292 96.5893 61.376 96.888 61.376C97.2333 61.376 97.5273 61.2827 97.77 61.096L98.358 62.636Z" fill="white" fill-opacity="0.2"/>
</svg>
