<svg width="70" height="110" viewBox="0 0 70 110" fill="none" xmlns="http://www.w3.org/2000/svg">
<rect x="1" y="1" width="68" height="108" fill="#2B2B2B" stroke="white" stroke-width="2"/>
<path d="M39.88 45.2002C41.8267 45.2002 43.4133 46.1069 44.64 47.9202C45.8667 49.7069 46.48 51.9069 46.48 54.5202C46.48 57.1069 46.0133 59.3336 45.08 61.2002C44.12 63.0669 42.5467 64.0002 40.36 64.0002C39.0533 64.0002 37.8933 63.5336 36.88 62.6002C35.8667 61.6669 35.1333 60.4136 34.68 58.8402C32.7867 61.1069 30.72 62.2402 28.48 62.2402C26.8267 62.2402 25.4267 61.5869 24.28 60.2802C23.1333 58.9736 22.56 57.0802 22.56 54.6002C22.56 52.0936 23.0667 50.0669 24.08 48.5202C25.0667 46.9469 26.2667 46.1602 27.68 46.1602C29.9733 46.1602 31.5867 47.6402 32.52 50.6002C34.8933 47.0002 37.3467 45.2002 39.88 45.2002ZM27.6 50.6802C26.3733 50.6802 25.36 51.1069 24.56 51.9602C23.76 52.7869 23.36 53.7736 23.36 54.9202C23.36 56.0669 23.6133 56.9469 24.12 57.5602C24.6 58.1469 25.28 58.4402 26.16 58.4402C26.9333 58.4402 27.7067 57.9469 28.48 56.9602C29.1467 56.1069 29.8267 55.0936 30.52 53.9202C31.2133 52.7202 31.6933 51.9069 31.96 51.4802C30.9733 50.9469 29.52 50.6802 27.6 50.6802ZM40.56 59.0802C42.08 59.0802 43.32 58.5469 44.28 57.4802C45.2133 56.3869 45.68 55.2402 45.68 54.0402C45.68 52.8136 45.3467 51.8269 44.68 51.0802C44.0133 50.3069 43.12 49.9202 42 49.9202C41.3067 49.9202 40.64 50.2802 40 51.0002C39.36 51.6936 38.56 52.8402 37.6 54.4402C36.64 56.0402 35.9067 57.1869 35.4 57.8802C37.32 58.6802 39.04 59.0802 40.56 59.0802Z" fill="white"/>
</svg>
