<svg width="70" height="110" viewBox="0 0 70 110" fill="none" xmlns="http://www.w3.org/2000/svg">
<rect x="1" y="1" width="68" height="108" fill="#2B2B2B" stroke="white" stroke-width="2"/>
<path d="M39.32 57.0568C41 57.0568 42.44 57.4568 43.64 58.2568C44.8133 59.0301 45.4 60.1768 45.4 61.6968C45.4 63.1901 44.9066 64.9368 43.92 66.9368C42.9066 68.9368 42.4 70.3768 42.4 71.2568C42.4 72.8301 43.2666 73.8035 45 74.1768L45 74.9768C42.9733 74.8168 41.0666 74.0701 39.28 72.7368C38.08 71.8301 36.04 69.9101 33.16 66.9768C32.3866 66.2035 31.4666 65.5101 30.4 64.8968C29.3333 64.2835 28.1866 63.9768 26.96 63.9768C25.7333 63.9768 24.68 64.3368 23.8 65.0568C22.92 65.7768 22.48 66.8435 22.48 68.2568C22.48 69.1635 22.6533 69.9901 23 70.7368C23.3466 71.4835 23.7466 71.8568 24.2 71.8568C24.6266 71.8568 24.9466 71.6835 25.16 71.3368C25.3733 70.9635 25.5466 70.5768 25.68 70.1768C25.7866 69.7501 26.0533 69.3635 26.48 69.0168C26.9066 68.6435 27.48 68.4568 28.2 68.4568C28.92 68.4568 29.5333 68.7235 30.04 69.2568C30.5466 69.7635 30.8 70.4701 30.8 71.3768C30.8 72.2835 30.4666 73.0301 29.8 73.6168C29.1333 74.2035 28.28 74.4968 27.24 74.4968C25.6133 74.4968 24.2533 73.8035 23.16 72.4168C22.0666 71.0035 21.52 69.0435 21.52 66.5368C21.52 64.0035 22.0666 61.8568 23.16 60.0968C24.2533 58.3368 25.76 57.4568 27.68 57.4568C29.2533 57.4568 30.5866 57.8301 31.68 58.5768C32.7733 59.2968 33.6 60.2301 34.16 61.3768C34.72 62.4968 35.2133 63.6568 35.64 64.8568C36.04 66.0301 36.52 67.1901 37.08 68.3368C37.6133 69.4568 38.24 70.2568 38.96 70.7368C38.4266 70.0968 38.16 69.2701 38.16 68.2568C38.16 67.2435 38.3333 66.0968 38.68 64.8168C39.0266 63.5101 39.2 62.4835 39.2 61.7368C39.2 60.9901 39.16 60.3768 39.08 59.8968C39 59.4168 38.7733 58.9635 38.4 58.5368C38.0266 58.1101 37.4933 57.8568 36.8 57.7768L36.8 57.3768C37.6533 57.1635 38.4933 57.0568 39.32 57.0568Z" fill="white"/>
<path d="M33.28 47.484C32.2133 46.2307 31.68 44.5107 31.68 42.324C31.68 40.1373 32.24 38.3107 33.36 36.844C34.4533 35.3507 36.08 34.604 38.24 34.604C40.4 34.604 42.1466 35.3907 43.48 36.964C44.8133 38.5107 45.48 40.6973 45.48 43.524C45.48 50.404 41.5333 53.844 33.64 53.844C29.8266 53.844 26.8533 52.884 24.72 50.964C22.56 49.0173 21.48 46.1907 21.48 42.484C21.48 41.124 21.8266 39.764 22.52 38.404C23.1866 37.0173 24.1866 36.1107 25.52 35.684C26.48 35.3107 27.4 35.244 28.28 35.484C29.16 35.724 29.7733 36.244 30.12 37.044C30.44 37.844 30.4933 38.5907 30.28 39.284C30.04 39.9773 29.6 40.4707 28.96 40.764C27.92 41.1373 27.1733 41.164 26.72 40.844C26.24 40.4973 25.7466 40.084 25.24 39.604C24.7066 39.0973 24.24 38.9107 23.84 39.044C23.4133 39.1507 23.08 39.564 22.84 40.284C22.5733 41.004 22.44 41.684 22.44 42.324C22.44 42.964 22.5066 43.5107 22.64 43.964C22.7466 44.3907 22.88 44.7773 23.04 45.124C23.1733 45.444 23.4266 45.7373 23.8 46.004C24.1466 46.244 24.4533 46.4573 24.72 46.644C24.96 46.804 25.3733 46.9373 25.96 47.044C26.52 47.1507 26.9733 47.244 27.32 47.324C27.64 47.3773 28.1866 47.4173 28.96 47.444C29.7066 47.4707 30.2533 47.484 30.6 47.484L33.28 47.484ZM44.68 43.484C44.68 41.2973 42.6 40.204 38.44 40.204C36.76 40.204 35.4266 40.5373 34.44 41.204C33.4533 41.844 32.96 42.7907 32.96 44.044C32.96 45.2973 33.44 46.444 34.4 47.484C37.9733 47.4573 40.5866 47.124 42.24 46.484C43.8666 45.8173 44.68 44.8173 44.68 43.484Z" fill="white"/>
</svg>
