<svg width="280" height="110" viewBox="0 0 280 110" fill="none" xmlns="http://www.w3.org/2000/svg">
<rect x="1" y="1" width="278" height="108" stroke="white" stroke-width="2"/>
<path d="M108.847 65.28H111.367V66H100.567V65.28H103.447V47.964L100.531 49.08L100.315 48.396L107.551 45.048H108.847V65.28Z" fill="white"/>
<path d="M120.545 65.712C123.041 65.712 124.289 65.028 124.289 63.66C124.289 62.892 123.857 62.268 122.993 61.788C122.129 61.284 121.085 60.876 119.861 60.564C118.637 60.252 117.425 59.892 116.225 59.484C115.049 59.076 114.065 58.428 113.273 57.54C112.505 56.652 112.193 55.488 112.337 54.048C112.481 52.608 113.213 51.42 114.533 50.484C115.877 49.548 117.521 49.08 119.465 49.08C121.433 49.08 123.017 49.392 124.217 50.016C125.417 50.64 126.089 51.48 126.233 52.536C126.329 53.184 126.221 53.784 125.909 54.336C125.621 54.888 125.129 55.176 124.433 55.2C123.761 55.224 123.197 55.044 122.741 54.66C122.309 54.276 122.105 53.832 122.129 53.328C122.153 52.824 122.345 52.38 122.705 51.996C123.065 51.588 123.245 51.264 123.245 51.024C123.245 50.616 122.849 50.316 122.057 50.124C121.289 49.908 120.389 49.8 119.357 49.8C118.349 49.8 117.521 50.028 116.873 50.484C116.225 50.94 115.901 51.504 115.901 52.176C115.901 52.848 116.297 53.424 117.089 53.904C117.905 54.384 118.889 54.78 120.041 55.092C121.193 55.38 122.333 55.716 123.461 56.1C124.613 56.46 125.585 57.048 126.377 57.864C127.193 58.68 127.601 59.712 127.601 60.96C127.601 62.616 127.013 63.948 125.837 64.956C124.661 65.94 122.885 66.432 120.509 66.432C118.133 66.432 116.201 66.072 114.713 65.352C113.249 64.632 112.445 63.708 112.301 62.58C112.205 61.932 112.313 61.332 112.625 60.78C112.937 60.228 113.429 59.94 114.101 59.916C114.773 59.892 115.325 60.072 115.757 60.456C116.213 60.84 116.429 61.284 116.405 61.788C116.381 62.292 116.189 62.748 115.829 63.156C115.469 63.54 115.289 63.852 115.289 64.092C115.289 64.572 115.841 64.968 116.945 65.28C118.073 65.568 119.273 65.712 120.545 65.712Z" fill="white"/>
<path d="M134.715 50.16V58.944C134.715 61.008 134.799 62.268 134.967 62.724C135.135 63.156 135.315 63.528 135.507 63.84C135.867 64.464 136.491 64.776 137.379 64.776C138.291 64.776 138.927 64.656 139.287 64.416V65.136C138.135 65.952 136.875 66.36 135.507 66.36C133.491 66.36 131.955 65.88 130.899 64.92C129.843 63.96 129.315 62.244 129.315 59.772V50.16H126.651V49.44H129.315C130.467 49.248 131.487 48.696 132.375 47.784C133.263 46.848 133.875 45.564 134.211 43.932H134.715V49.44H138.891V50.16H134.715Z" fill="white"/>
<path d="M154.486 65.28H157.006V66H146.206V65.28H149.085V47.964L146.169 49.08L145.953 48.396L153.189 45.048H154.486V65.28Z" fill="white"/>
<path d="M173.852 60.888C173.852 62.4 173.492 63.696 172.772 64.776C172.076 65.832 171.044 66.36 169.676 66.36C168.332 66.36 166.76 65.916 164.96 65.028C163.16 64.116 161.864 63.66 161.072 63.66C159.656 63.66 158.78 64.44 158.444 66H157.724C157.868 64.176 158.54 62.46 159.74 60.852C160.556 59.772 162.284 57.936 164.924 55.344C165.62 54.648 166.244 53.82 166.796 52.86C167.348 51.9 167.624 50.868 167.624 49.764C167.624 48.66 167.3 47.712 166.652 46.92C166.004 46.128 165.044 45.732 163.772 45.732C162.956 45.732 162.212 45.888 161.54 46.2C160.868 46.512 160.532 46.872 160.532 47.28C160.532 47.664 160.688 47.952 161 48.144C161.336 48.336 161.684 48.492 162.044 48.612C162.428 48.708 162.776 48.948 163.088 49.332C163.424 49.716 163.592 50.232 163.592 50.88C163.592 51.528 163.352 52.08 162.872 52.536C162.416 52.992 161.78 53.22 160.964 53.22C160.148 53.22 159.476 52.92 158.948 52.32C158.42 51.72 158.156 50.952 158.156 50.016C158.156 48.552 158.78 47.328 160.028 46.344C161.3 45.36 163.064 44.868 165.32 44.868C167.6 44.868 169.532 45.36 171.116 46.344C172.7 47.328 173.492 48.684 173.492 50.412C173.492 51.828 173.156 53.028 172.484 54.012C171.836 54.996 170.996 55.74 169.964 56.244C168.956 56.748 167.912 57.192 166.832 57.576C165.776 57.936 164.732 58.368 163.7 58.872C162.692 59.352 161.972 59.916 161.54 60.564C162.116 60.084 162.86 59.844 163.772 59.844C164.684 59.844 165.716 60 166.868 60.312C168.044 60.624 168.968 60.78 169.64 60.78C170.312 60.78 170.864 60.744 171.296 60.672C171.728 60.6 172.136 60.396 172.52 60.06C172.904 59.724 173.132 59.244 173.204 58.62H173.564C173.756 59.388 173.852 60.144 173.852 60.888Z" fill="white"/>
</svg>
