<svg width="70" height="110" viewBox="0 0 70 110" fill="none" xmlns="http://www.w3.org/2000/svg">
<rect x="1" y="1" width="68" height="108" fill="#2B2B2B" stroke="white" stroke-width="2"/>
<path d="M39.32 56.6662C41 56.6662 42.44 57.0662 43.64 57.8662C44.8134 58.6395 45.4 59.7862 45.4 61.3062C45.4 62.7995 44.9067 64.5462 43.92 66.5462C42.9067 68.5462 42.4 69.9862 42.4 70.8662C42.4 72.4395 43.2667 73.4128 45 73.7862L45 74.5862C42.9734 74.4262 41.0667 73.6795 39.28 72.3462C38.08 71.4395 36.04 69.5195 33.16 66.5862C32.3867 65.8128 31.4667 65.1195 30.4 64.5062C29.3334 63.8928 28.1867 63.5862 26.96 63.5862C25.7334 63.5862 24.68 63.9462 23.8 64.6662C22.92 65.3862 22.48 66.4528 22.48 67.8662C22.48 68.7728 22.6534 69.5995 23 70.3462C23.3467 71.0928 23.7467 71.4662 24.2 71.4662C24.6267 71.4662 24.9467 71.2928 25.16 70.9462C25.3734 70.5728 25.5467 70.1862 25.68 69.7862C25.7867 69.3595 26.0534 68.9728 26.48 68.6262C26.9067 68.2528 27.48 68.0662 28.2 68.0662C28.92 68.0662 29.5334 68.3328 30.04 68.8662C30.5467 69.3728 30.8 70.0795 30.8 70.9862C30.8 71.8928 30.4667 72.6395 29.8 73.2262C29.1334 73.8128 28.28 74.1062 27.24 74.1062C25.6134 74.1062 24.2534 73.4128 23.16 72.0262C22.0667 70.6128 21.52 68.6528 21.52 66.1462C21.52 63.6128 22.0667 61.4662 23.16 59.7062C24.2534 57.9462 25.76 57.0662 27.68 57.0662C29.2534 57.0662 30.5867 57.4395 31.68 58.1862C32.7734 58.9062 33.6 59.8395 34.16 60.9862C34.72 62.1062 35.2134 63.2662 35.64 64.4662C36.04 65.6395 36.52 66.7995 37.08 67.9462C37.6133 69.0662 38.24 69.8662 38.96 70.3462C38.4267 69.7062 38.16 68.8795 38.16 67.8662C38.16 66.8528 38.3334 65.7062 38.68 64.4262C39.0267 63.1195 39.2 62.0928 39.2 61.3462C39.2 60.5995 39.16 59.9862 39.08 59.5062C39 59.0262 38.7734 58.5728 38.4 58.1462C38.0267 57.7195 37.4934 57.4662 36.8 57.3862L36.8 56.9862C37.6534 56.7728 38.4934 56.6662 39.32 56.6662Z" fill="white"/>
<path d="M35.84 35.9334L35.84 35.0134L42 35.0134L42 35.9334L39.28 35.9334L39.28 38.8934L44.2 38.8934L44.2 36.2934L45 36.2934L45 47.4934L44.2 47.4934L44.2 44.8934L39.28 44.8934L39.28 54.2534L38.48 54.2534L21.72 42.8934L21.72 38.8934L38.48 38.8934L38.48 35.9334L35.84 35.9334ZM38.48 44.8934L26.12 44.8934L38.48 53.2134L38.48 44.8934Z" fill="white"/>
</svg>
