<svg width="140" height="110" viewBox="0 0 140 110" fill="none" xmlns="http://www.w3.org/2000/svg">
<rect x="1" y="1" width="138" height="108" stroke="white" stroke-width="2"/>
<path d="M23.6051 65.28H26.1251V66H15.3251V65.28H18.2051V47.964L15.2891 49.08L15.0731 48.396L22.3091 45.048H23.6051V65.28Z" fill="white"/>
<path d="M35.2314 44.832C41.4234 44.832 44.5194 48.384 44.5194 55.488C44.5194 58.92 43.6434 61.608 41.8914 63.552C40.1634 65.472 37.6314 66.432 34.2954 66.432C33.0714 66.432 31.8354 66.132 30.5874 65.532C29.3634 64.908 28.5594 63.996 28.1754 62.796C27.8394 61.932 27.7794 61.104 27.9954 60.312C28.2114 59.52 28.6794 58.98 29.3994 58.692C30.1194 58.38 30.7914 58.332 31.4154 58.548C32.0394 58.74 32.4834 59.124 32.7474 59.7C33.0834 60.636 33.0954 61.32 32.7834 61.752C32.4954 62.16 32.1234 62.604 31.6674 63.084C31.2354 63.54 31.0674 63.96 31.1634 64.344C31.2834 64.704 31.6674 65.004 32.3154 65.244C32.9634 65.46 33.5754 65.568 34.1514 65.568C34.7274 65.568 35.2074 65.52 35.5914 65.424C35.9994 65.304 36.3474 65.184 36.6354 65.064C36.9474 64.92 37.2114 64.692 37.4274 64.38C37.6674 64.044 37.8594 63.768 38.0034 63.552C38.1714 63.312 38.3034 62.94 38.3994 62.436C38.4954 61.908 38.5674 61.5 38.6154 61.212C38.6874 60.9 38.7354 60.408 38.7594 59.736C38.7834 59.04 38.7954 58.536 38.7954 58.224V55.812C37.6674 56.772 36.1194 57.252 34.1514 57.252C32.1834 57.252 30.5274 56.76 29.1834 55.776C27.8634 54.768 27.2034 53.292 27.2034 51.348C27.2034 49.404 27.8994 47.832 29.2914 46.632C30.7074 45.432 32.6874 44.832 35.2314 44.832ZM32.2434 51.168C32.2434 52.68 32.5314 53.88 33.1074 54.768C33.7074 55.656 34.5714 56.1 35.6994 56.1C36.8274 56.1 37.8594 55.668 38.7954 54.804C38.7714 51.588 38.4594 49.248 37.8594 47.784C37.2834 46.296 36.3954 45.552 35.1954 45.552C33.2274 45.552 32.2434 47.424 32.2434 51.168Z" fill="white"/>
<path d="M58.5099 50.16V58.944C58.5099 61.008 58.5939 62.268 58.7619 62.724C58.9299 63.156 59.1099 63.528 59.3019 63.84C59.6619 64.464 60.2859 64.776 61.1739 64.776C62.0859 64.776 62.7219 64.656 63.0819 64.416V65.136C61.9299 65.952 60.6699 66.36 59.3019 66.36C57.2859 66.36 55.7499 65.88 54.6939 64.92C53.6379 63.96 53.1099 62.244 53.1099 59.772V50.16H50.4459V49.44H53.1099C54.2619 49.248 55.2819 48.696 56.1699 47.784C57.0579 46.848 57.6699 45.564 58.0059 43.932H58.5099V49.44H62.6859V50.16H58.5099Z" fill="white"/>
<path d="M69.3937 63.84C69.9217 65.04 70.8337 65.64 72.1297 65.64C73.4257 65.64 74.3497 65.028 74.9017 63.804C75.4537 62.58 75.7297 60.564 75.7297 57.756C75.7297 54.924 75.4537 52.896 74.9017 51.672C74.3497 50.424 73.4257 49.8 72.1297 49.8C70.8337 49.8 69.9217 50.424 69.3937 51.672C68.8657 52.896 68.6017 54.924 68.6017 57.756C68.6017 60.588 68.8657 62.616 69.3937 63.84ZM72.0577 66.36C69.7777 66.36 67.7137 65.616 65.8657 64.128C64.0177 62.64 63.0937 60.528 63.0937 57.792C63.0937 56.328 63.3577 55.02 63.8857 53.868C64.4377 52.716 65.1577 51.804 66.0457 51.132C66.9577 50.46 67.9297 49.956 68.9617 49.62C69.9937 49.26 71.0497 49.08 72.1297 49.08C73.2097 49.08 74.2657 49.26 75.2977 49.62C76.3537 49.956 77.3257 50.46 78.2137 51.132C79.1257 51.804 79.8577 52.716 80.4097 53.868C80.9617 55.02 81.2377 56.316 81.2377 57.756C81.2377 59.196 80.9617 60.48 80.4097 61.608C79.8577 62.736 79.1257 63.636 78.2137 64.308C76.3897 65.676 74.3377 66.36 72.0577 66.36Z" fill="white"/>
<path d="M95.1804 44.868C100.652 44.868 103.388 46.524 103.388 49.836C103.388 51.156 102.86 52.272 101.804 53.184C100.772 54.096 99.2844 54.6 97.3404 54.696C99.5244 54.72 101.288 55.212 102.632 56.172C104 57.132 104.684 58.44 104.684 60.096C104.684 62.136 103.856 63.732 102.2 64.884C100.568 66.012 98.2524 66.576 95.2524 66.576C93.1644 66.576 91.5324 66.12 90.3564 65.208C89.2044 64.272 88.6284 63.036 88.6284 61.5C88.6284 60.54 88.8804 59.76 89.3844 59.16C89.9124 58.56 90.5964 58.26 91.4364 58.26C92.2764 58.26 92.9244 58.488 93.3804 58.944C93.8604 59.4 94.1004 59.964 94.1004 60.636C94.1004 61.284 93.9204 61.8 93.5604 62.184C93.2004 62.568 92.8044 62.808 92.3724 62.904C91.2444 63.168 90.6804 63.552 90.6804 64.056C90.6804 64.536 91.0164 64.932 91.6884 65.244C92.3844 65.556 93.1764 65.712 94.0644 65.712C95.4564 65.712 96.5844 65.208 97.4484 64.2C98.3124 63.192 98.7444 61.836 98.7444 60.132C98.7444 58.404 98.3604 57.132 97.5924 56.316C96.8484 55.5 95.4804 55.092 93.4884 55.092H92.9124V54.372H93.4884C95.0244 54.372 96.1284 53.916 96.8004 53.004C97.4724 52.068 97.8084 51.012 97.8084 49.836C97.8084 48.66 97.4724 47.676 96.8004 46.884C96.1284 46.092 95.2764 45.696 94.2444 45.696C93.2124 45.696 92.4324 45.864 91.9044 46.2C91.3764 46.536 91.1124 46.896 91.1124 47.28C91.1124 47.64 91.2564 47.904 91.5444 48.072C91.8564 48.24 92.1924 48.372 92.5524 48.468C92.9364 48.54 93.2724 48.744 93.5604 49.08C93.8724 49.416 94.0284 49.872 94.0284 50.448C94.0284 51.024 93.8244 51.516 93.4164 51.924C93.0084 52.332 92.4324 52.536 91.6884 52.536C90.9444 52.536 90.3324 52.272 89.8524 51.744C89.3724 51.216 89.1324 50.496 89.1324 49.584C89.1324 48.264 89.6724 47.148 90.7524 46.236C91.8564 45.324 93.3324 44.868 95.1804 44.868Z" fill="white"/>
<path d="M111.502 55.452C112.63 54.492 114.178 54.012 116.146 54.012C118.114 54.012 119.758 54.516 121.078 55.524C122.422 56.508 123.094 57.972 123.094 59.916C123.094 61.86 122.386 63.432 120.97 64.632C119.578 65.832 117.61 66.432 115.066 66.432C108.874 66.432 105.778 62.88 105.778 55.776C105.778 52.344 106.642 49.668 108.37 47.748C110.122 45.804 112.666 44.832 116.002 44.832C117.226 44.832 118.45 45.144 119.674 45.768C120.922 46.368 121.738 47.268 122.122 48.468C122.458 49.332 122.518 50.16 122.302 50.952C122.086 51.744 121.618 52.296 120.898 52.608C120.178 52.896 119.506 52.944 118.882 52.752C118.258 52.536 117.814 52.14 117.55 51.564C117.214 50.628 117.19 49.956 117.478 49.548C117.79 49.116 118.162 48.672 118.594 48.216C119.05 47.736 119.218 47.316 119.098 46.956C119.002 46.572 118.63 46.272 117.982 46.056C117.334 45.816 116.722 45.696 116.146 45.696C115.57 45.696 115.078 45.756 114.67 45.876C114.286 45.972 113.938 46.092 113.626 46.236C113.338 46.356 113.074 46.584 112.834 46.92C112.618 47.232 112.426 47.508 112.258 47.748C112.114 47.964 111.994 48.336 111.898 48.864C111.802 49.368 111.718 49.776 111.646 50.088C111.598 50.376 111.562 50.868 111.538 51.564C111.514 52.236 111.502 52.728 111.502 53.04V55.452ZM115.102 65.712C117.07 65.712 118.054 63.84 118.054 60.096C118.054 58.584 117.754 57.384 117.154 56.496C116.578 55.608 115.726 55.164 114.598 55.164C113.47 55.164 112.438 55.596 111.502 56.46C111.526 59.676 111.826 62.028 112.402 63.516C113.002 64.98 113.902 65.712 115.102 65.712Z" fill="white"/>
</svg>
