<svg width="70" height="110" viewBox="0 0 70 110" fill="none" xmlns="http://www.w3.org/2000/svg">
<rect x="1" y="1" width="68" height="108" fill="#2B2B2B" stroke="white" stroke-width="2"/>
<path d="M39.32 57.0568C41 57.0568 42.44 57.4568 43.64 58.2568C44.8133 59.0301 45.4 60.1768 45.4 61.6968C45.4 63.1901 44.9066 64.9368 43.92 66.9368C42.9066 68.9368 42.4 70.3768 42.4 71.2568C42.4 72.8301 43.2666 73.8035 45 74.1768L45 74.9768C42.9733 74.8168 41.0666 74.0701 39.28 72.7368C38.08 71.8301 36.04 69.9101 33.16 66.9768C32.3866 66.2035 31.4666 65.5101 30.4 64.8968C29.3333 64.2835 28.1866 63.9768 26.96 63.9768C25.7333 63.9768 24.68 64.3368 23.8 65.0568C22.92 65.7768 22.48 66.8435 22.48 68.2568C22.48 69.1635 22.6533 69.9901 23 70.7368C23.3466 71.4835 23.7466 71.8568 24.2 71.8568C24.6266 71.8568 24.9466 71.6835 25.16 71.3368C25.3733 70.9635 25.5466 70.5768 25.68 70.1768C25.7866 69.7501 26.0533 69.3635 26.48 69.0168C26.9066 68.6435 27.48 68.4568 28.2 68.4568C28.92 68.4568 29.5333 68.7235 30.04 69.2568C30.5466 69.7635 30.8 70.4701 30.8 71.3768C30.8 72.2835 30.4666 73.0301 29.8 73.6168C29.1333 74.2035 28.28 74.4968 27.24 74.4968C25.6133 74.4968 24.2533 73.8035 23.16 72.4168C22.0666 71.0035 21.52 69.0435 21.52 66.5368C21.52 64.0035 22.0666 61.8568 23.16 60.0968C24.2533 58.3368 25.76 57.4568 27.68 57.4568C29.2533 57.4568 30.5866 57.8301 31.68 58.5768C32.7733 59.2968 33.6 60.2301 34.16 61.3768C34.72 62.4968 35.2133 63.6568 35.64 64.8568C36.04 66.0301 36.52 67.1901 37.08 68.3368C37.6133 69.4568 38.24 70.2568 38.96 70.7368C38.4266 70.0968 38.16 69.2701 38.16 68.2568C38.16 67.2435 38.3333 66.0968 38.68 64.8168C39.0266 63.5101 39.2 62.4835 39.2 61.7368C39.2 60.9901 39.16 60.3768 39.08 59.8968C39 59.4168 38.7733 58.9635 38.4 58.5368C38.0266 58.1101 37.4933 57.8568 36.8 57.7768L36.8 57.3768C37.6533 57.1635 38.4933 57.0568 39.32 57.0568Z" fill="white"/>
<path d="M21.48 44.524C21.48 37.644 25.4266 34.204 33.32 34.204C37.1333 34.204 40.12 35.1773 42.28 37.124C44.4133 39.044 45.48 41.8573 45.48 45.564C45.48 46.924 45.1466 48.2973 44.48 49.684C43.7866 51.044 42.7733 51.9373 41.44 52.364C40.48 52.7373 39.56 52.804 38.68 52.564C37.8 52.324 37.2 51.804 36.88 51.004C36.5333 50.204 36.48 49.4573 36.72 48.764C36.9333 48.0707 37.36 47.5773 38 47.284C39.04 46.9107 39.8 46.8973 40.28 47.244C40.7333 47.564 41.2266 47.9773 41.76 48.484C42.2666 48.964 42.7333 49.1507 43.16 49.044C43.56 48.9107 43.8933 48.484 44.16 47.764C44.4 47.044 44.52 46.364 44.52 45.724C44.52 45.084 44.4666 44.5507 44.36 44.124C44.2266 43.6707 44.0933 43.284 43.96 42.964C43.8 42.6173 43.5466 42.324 43.2 42.084C42.8266 41.8173 42.52 41.604 42.28 41.444C42.0133 41.2573 41.6 41.1107 41.04 41.004C40.4533 40.8973 40 40.8173 39.68 40.764C39.3333 40.684 38.7866 40.6307 38.04 40.604C37.2666 40.5773 36.7066 40.564 36.36 40.564L33.68 40.564C34.7466 41.8173 35.28 43.5373 35.28 45.724C35.28 47.9107 34.7333 49.7507 33.64 51.244C32.52 52.7107 30.88 53.444 28.72 53.444C26.56 53.444 24.8133 52.6707 23.48 51.124C22.1466 49.5507 21.48 47.3507 21.48 44.524ZM28.52 47.844C30.2 47.844 31.5333 47.524 32.52 46.884C33.5066 46.2173 34 45.2573 34 44.004C34 42.7507 33.52 41.604 32.56 40.564C28.9866 40.5907 26.3866 40.9373 24.76 41.604C23.1066 42.244 22.28 43.2307 22.28 44.564C22.28 46.7507 24.36 47.844 28.52 47.844Z" fill="white"/>
</svg>
