<svg width="70" height="110" viewBox="0 0 70 110" fill="none" xmlns="http://www.w3.org/2000/svg">
<rect x="1" y="1" width="68" height="108" fill="#D81616" stroke="white" stroke-width="2"/>
<path d="M39.32 53.5802C41 53.5802 42.44 53.9802 43.64 54.7802C44.8134 55.5536 45.4 56.7002 45.4 58.2202C45.4 59.7136 44.9067 61.4602 43.92 63.4602C42.9067 65.4602 42.4 66.9002 42.4 67.7802C42.4 69.3536 43.2667 70.3269 45 70.7002L45 71.5002C42.9734 71.3402 41.0667 70.5936 39.28 69.2602C38.08 68.3536 36.04 66.4336 33.16 63.5002C32.3867 62.7269 31.4667 62.0336 30.4 61.4202C29.3334 60.8069 28.1867 60.5002 26.96 60.5002C25.7334 60.5002 24.68 60.8602 23.8 61.5802C22.92 62.3002 22.48 63.3669 22.48 64.7802C22.48 65.6869 22.6534 66.5136 23 67.2602C23.3467 68.0069 23.7467 68.3802 24.2 68.3802C24.6267 68.3802 24.9467 68.2069 25.16 67.8602C25.3734 67.4869 25.5467 67.1002 25.68 66.7002C25.7867 66.2736 26.0534 65.8869 26.48 65.5402C26.9067 65.1669 27.48 64.9802 28.2 64.9802C28.92 64.9802 29.5334 65.2469 30.04 65.7802C30.5467 66.2869 30.8 66.9936 30.8 67.9002C30.8 68.8069 30.4667 69.5536 29.8 70.1402C29.1334 70.7269 28.28 71.0202 27.24 71.0202C25.6134 71.0202 24.2534 70.3269 23.16 68.9402C22.0667 67.5269 21.52 65.5669 21.52 63.0602C21.52 60.5269 22.0667 58.3802 23.16 56.6202C24.2534 54.8602 25.76 53.9802 27.68 53.9802C29.2534 53.9802 30.5867 54.3536 31.68 55.1002C32.7734 55.8202 33.6 56.7536 34.16 57.9002C34.72 59.0202 35.2134 60.1802 35.64 61.3802C36.04 62.5536 36.52 63.7136 37.08 64.8602C37.6133 65.9802 38.24 66.7802 38.96 67.2602C38.4267 66.6202 38.16 65.7936 38.16 64.7802C38.16 63.7669 38.3334 62.6202 38.68 61.3402C39.0267 60.0336 39.2 59.0069 39.2 58.2602C39.2 57.5136 39.16 56.9002 39.08 56.4202C39 55.9402 38.7734 55.4869 38.4 55.0602C38.0267 54.6336 37.4934 54.3802 36.8 54.3002L36.8 53.9002C37.6534 53.6869 38.4934 53.5802 39.32 53.5802Z" fill="white"/>
<path d="M44.2 40.4874L44.2 37.6874L45 37.6874L45 49.6874L44.2 49.6874L44.2 46.4874L24.96 46.4874L26.2 49.7274L25.44 49.9674L21.72 41.9274L21.72 40.4874L44.2 40.4874Z" fill="white"/>
</svg>
