<svg width="70" height="110" viewBox="0 0 70 110" fill="none" xmlns="http://www.w3.org/2000/svg">
<rect x="1" y="1" width="68" height="108" stroke="white" stroke-width="2"/>
<path d="M36.888 78.4854C38.4 78.4854 39.696 78.8454 40.776 79.5654C41.832 80.2614 42.36 81.2934 42.36 82.6614C42.36 84.0054 41.916 85.5774 41.028 87.3774C40.116 89.1774 39.66 90.4734 39.66 91.2654C39.66 92.6814 40.44 93.5574 42 93.8934L42 94.6134C40.176 94.4694 38.46 93.7974 36.852 92.5974C35.772 91.7814 33.936 90.0534 31.344 87.4134C30.648 86.7174 29.82 86.0934 28.86 85.5414C27.9 84.9894 26.868 84.7134 25.764 84.7134C24.66 84.7134 23.712 85.0374 22.92 85.6854C22.128 86.3334 21.732 87.2934 21.732 88.5654C21.732 89.3814 21.888 90.1254 22.2 90.7974C22.512 91.4694 22.872 91.8054 23.28 91.8054C23.664 91.8054 23.952 91.6494 24.144 91.3374C24.336 91.0014 24.492 90.6534 24.612 90.2934C24.708 89.9094 24.948 89.5614 25.332 89.2494C25.716 88.9134 26.232 88.7454 26.88 88.7454C27.528 88.7454 28.08 88.9854 28.536 89.4654C28.992 89.9214 29.22 90.5574 29.22 91.3734C29.22 92.1894 28.92 92.8614 28.32 93.3894C27.72 93.9174 26.952 94.1814 26.016 94.1814C24.552 94.1814 23.328 93.5574 22.344 92.3094C21.36 91.0374 20.868 89.2734 20.868 87.0174C20.868 84.7374 21.36 82.8054 22.344 81.2214C23.328 79.6374 24.684 78.8454 26.412 78.8454C27.828 78.8454 29.028 79.1814 30.012 79.8534C30.996 80.5014 31.74 81.3414 32.244 82.3734C32.748 83.3814 33.192 84.4254 33.576 85.5054C33.936 86.5614 34.368 87.6054 34.872 88.6374C35.352 89.6454 35.916 90.3654 36.564 90.7974C36.084 90.2214 35.844 89.4774 35.844 88.5654C35.844 87.6534 36 86.6214 36.312 85.4694C36.624 84.2934 36.78 83.3694 36.78 82.6974C36.78 82.0254 36.744 81.4734 36.672 81.0414C36.6 80.6094 36.396 80.2014 36.06 79.8174C35.724 79.4334 35.244 79.2054 34.62 79.1334L34.62 78.7734C35.388 78.5814 36.144 78.4854 36.888 78.4854Z" fill="white"/>
<path d="M26.16 60.8755L34.944 60.8755C37.008 60.8755 38.268 60.7915 38.724 60.6235C39.156 60.4555 39.528 60.2755 39.84 60.0835C40.464 59.7235 40.776 59.0995 40.776 58.2115C40.776 57.2995 40.656 56.6635 40.416 56.3035L41.136 56.3035C41.952 57.4555 42.36 58.7155 42.36 60.0835C42.36 62.0995 41.88 63.6355 40.92 64.6915C39.96 65.7475 38.244 66.2755 35.772 66.2755L26.16 66.2755L26.16 68.9395L25.44 68.9395L25.44 66.2755C25.248 65.1235 24.696 64.1035 23.784 63.2155C22.848 62.3275 21.564 61.7155 19.932 61.3795L19.932 60.8755L25.44 60.8755L25.44 56.6995L26.16 56.6995L26.16 60.8755Z" fill="white"/>
<path d="M39.84 48.5517C41.04 48.0237 41.64 47.1117 41.64 45.8157C41.64 44.5197 41.028 43.5957 39.804 43.0437C38.58 42.4917 36.564 42.2157 33.756 42.2157C30.924 42.2157 28.896 42.4917 27.672 43.0437C26.424 43.5957 25.8 44.5197 25.8 45.8157C25.8 47.1117 26.424 48.0237 27.672 48.5517C28.896 49.0797 30.924 49.3437 33.756 49.3437C36.588 49.3437 38.616 49.0797 39.84 48.5517ZM42.36 45.8877C42.36 48.1677 41.616 50.2317 40.128 52.0797C38.64 53.9277 36.528 54.8517 33.792 54.8517C32.328 54.8517 31.02 54.5877 29.868 54.0597C28.716 53.5077 27.804 52.7877 27.132 51.8997C26.46 50.9877 25.956 50.0157 25.62 48.9837C25.26 47.9517 25.08 46.8957 25.08 45.8157C25.08 44.7357 25.26 43.6797 25.62 42.6477C25.956 41.5917 26.46 40.6197 27.132 39.7317C27.804 38.8197 28.716 38.0877 29.868 37.5357C31.02 36.9837 32.316 36.7077 33.756 36.7077C35.196 36.7077 36.48 36.9837 37.608 37.5357C38.736 38.0877 39.636 38.8197 40.308 39.7317C41.676 41.5557 42.36 43.6077 42.36 45.8877Z" fill="white"/>
<path d="M41.28 17.905L41.28 15.385L42 15.385L42 26.185L41.28 26.185L41.28 23.305L23.964 23.305L25.08 26.221L24.396 26.437L21.048 19.201L21.048 17.905L41.28 17.905Z" fill="white"/>
</svg>
