<svg width="70" height="110" viewBox="0 0 70 110" fill="none" xmlns="http://www.w3.org/2000/svg">
<rect x="1" y="1" width="68" height="108" fill="#2B2B2B" stroke="white" stroke-width="2"/>
<path d="M45.2 60.4875L45.2 57.6875L46 57.6875L46 69.6875L45.2 69.6875L45.2 66.4875L25.96 66.4875L27.2 69.7275L26.44 69.9675L22.72 61.9275L22.72 60.4875L45.2 60.4875Z" fill="white"/>
<path d="M29.04 45.5294C29.04 46.3827 28.8934 47.6361 28.6 49.2894C28.28 50.9161 28.12 52.0761 28.12 52.7694C28.12 53.4627 28.4 54.0494 28.96 54.5294C29.52 54.9827 30.24 55.2361 31.12 55.2894L31.12 55.7294C30.2134 55.9694 29.0134 56.0894 27.52 56.0894C26 56.0894 24.76 55.7027 23.8 54.9294C22.8134 54.1561 22.32 53.0361 22.32 51.5694C22.32 50.0761 22.7067 48.1961 23.48 45.9294C24.2534 43.6361 24.64 42.1294 24.64 41.4094C24.64 40.6627 24.4267 40.1294 24 39.8094C23.5467 39.4894 22.8934 39.2494 22.04 39.0894L22.04 38.4094C25.08 38.4094 27.6267 39.1427 29.68 40.6094C30.5334 41.2227 31.3467 41.8494 32.12 42.4894C33.9334 43.9561 36 44.6894 38.32 44.6894C38.88 44.6894 39.6267 44.5694 40.56 44.3294C41.4934 44.0894 42.3334 43.9694 43.08 43.9694C43.8 43.9694 44.5467 44.3161 45.32 45.0094C46.0934 45.6761 46.48 46.5827 46.48 47.7294C46.48 48.8494 46.08 49.7294 45.28 50.3694C44.4534 51.0094 43.36 51.3294 42 51.3294C40.64 51.3294 39.3867 51.0494 38.24 50.4894C37.0667 49.9027 36.0667 49.1561 35.24 48.2494C34.4134 47.3427 33.6267 46.4094 32.88 45.4494C32.1334 44.4627 31.2134 43.4761 30.12 42.4894C29.0267 41.4761 27.8534 40.6894 26.6 40.1294L26.48 40.2494C28.1867 41.2627 29.04 43.0227 29.04 45.5294Z" fill="white"/>
</svg>
