<svg width="70" height="110" viewBox="0 0 70 110" fill="none" xmlns="http://www.w3.org/2000/svg">
<rect x="1" y="1" width="68" height="108" fill="#D81616" stroke="white" stroke-width="2"/>
<path d="M21.52 66.8086C21.52 60.7286 23.36 57.6886 27.04 57.6886C28.5067 57.6886 29.7467 58.2753 30.76 59.4486C31.7734 60.5953 32.3334 62.2486 32.44 64.4086C32.4667 61.982 33.0134 60.022 34.08 58.5286C35.1467 57.0086 36.6 56.2486 38.44 56.2486C40.7067 56.2486 42.48 57.1686 43.76 59.0086C45.0134 60.822 45.64 63.3953 45.64 66.7286C45.64 69.0486 45.1334 70.862 44.12 72.1686C43.08 73.4486 41.7067 74.0886 40 74.0886C38.9334 74.0886 38.0667 73.8086 37.4 73.2486C36.7334 72.662 36.4 71.902 36.4 70.9686C36.4 70.0353 36.6534 69.3153 37.16 68.8086C37.6667 68.2753 38.2934 68.0086 39.04 68.0086C39.76 68.0086 40.3334 68.2086 40.76 68.6086C41.1867 69.0086 41.4534 69.4486 41.56 69.9286C41.8534 71.182 42.28 71.8086 42.84 71.8086C43.3734 71.8086 43.8134 71.4353 44.16 70.6886C44.5067 69.9153 44.68 69.0353 44.68 68.0486C44.68 66.502 44.12 65.2486 43 64.2886C41.88 63.3286 40.3734 62.8486 38.48 62.8486C36.56 62.8486 35.1467 63.2753 34.24 64.1286C33.3334 64.9553 32.88 66.4753 32.88 68.6886L32.88 69.3286L32.08 69.3286L32.08 68.6886C32.08 66.982 31.5734 65.7553 30.56 65.0086C29.52 64.262 28.3467 63.8886 27.04 63.8886C25.7334 63.8886 24.64 64.262 23.76 65.0086C22.88 65.7553 22.44 66.702 22.44 67.8486C22.44 68.9953 22.6267 69.862 23 70.4486C23.3734 71.0353 23.7734 71.3286 24.2 71.3286C24.6 71.3286 24.8934 71.1686 25.08 70.8486C25.2667 70.502 25.4134 70.1286 25.52 69.7286C25.6 69.302 25.8267 68.9286 26.2 68.6086C26.5734 68.262 27.08 68.0886 27.72 68.0886C28.36 68.0886 28.9067 68.3153 29.36 68.7686C29.8134 69.222 30.04 69.862 30.04 70.6886C30.04 71.5153 29.7467 72.1953 29.16 72.7286C28.5734 73.262 27.7734 73.5286 26.76 73.5286C25.2934 73.5286 24.0534 72.9286 23.04 71.7286C22.0267 70.502 21.52 68.862 21.52 66.8086Z" fill="white"/>
<path d="M39.32 35.5139C41 35.5139 42.44 35.9139 43.64 36.7139C44.8134 37.4873 45.4 38.6339 45.4 40.1539C45.4 41.6473 44.9067 43.3939 43.92 45.3939C42.9067 47.3939 42.4 48.8339 42.4 49.7139C42.4 51.2873 43.2667 52.2606 45 52.6339L45 53.4339C42.9734 53.2739 41.0667 52.5273 39.28 51.1939C38.08 50.2873 36.04 48.3673 33.16 45.4339C32.3867 44.6606 31.4667 43.9673 30.4 43.3539C29.3334 42.7406 28.1867 42.4339 26.96 42.4339C25.7334 42.4339 24.68 42.7939 23.8 43.5139C22.92 44.2339 22.48 45.3006 22.48 46.7139C22.48 47.6206 22.6534 48.4473 23 49.1939C23.3467 49.9406 23.7467 50.3139 24.2 50.3139C24.6267 50.3139 24.9467 50.1406 25.16 49.7939C25.3734 49.4206 25.5467 49.0339 25.68 48.6339C25.7867 48.2073 26.0534 47.8206 26.48 47.4739C26.9067 47.1006 27.48 46.9139 28.2 46.9139C28.92 46.9139 29.5334 47.1806 30.04 47.7139C30.5467 48.2206 30.8 48.9273 30.8 49.8339C30.8 50.7406 30.4667 51.4873 29.8 52.0739C29.1334 52.6606 28.28 52.9539 27.24 52.9539C25.6134 52.9539 24.2534 52.2606 23.16 50.8739C22.0667 49.4606 21.52 47.5006 21.52 44.9939C21.52 42.4606 22.0667 40.3139 23.16 38.5539C24.2534 36.7939 25.76 35.9139 27.68 35.9139C29.2533 35.9139 30.5867 36.2873 31.68 37.0339C32.7734 37.7539 33.6 38.6873 34.16 39.8339C34.72 40.9539 35.2134 42.1139 35.64 43.3139C36.04 44.4873 36.52 45.6473 37.08 46.7939C37.6133 47.9139 38.24 48.7139 38.96 49.1939C38.4267 48.5539 38.16 47.7273 38.16 46.7139C38.16 45.7006 38.3334 44.5539 38.68 43.2739C39.0267 41.9673 39.2 40.9406 39.2 40.1939C39.2 39.4473 39.16 38.8339 39.08 38.3539C39 37.8739 38.7734 37.4206 38.4 36.9939C38.0267 36.5673 37.4934 36.3139 36.8 36.2339L36.8 35.8339C37.6533 35.6206 38.4934 35.5139 39.32 35.5139Z" fill="white"/>
</svg>
