<svg width="70" height="110" viewBox="0 0 70 110" fill="none" xmlns="http://www.w3.org/2000/svg">
<rect x="1" y="1" width="68" height="108" fill="#D81616" stroke="white" stroke-width="2"/>
<path d="M29.04 52.8787C29.04 53.7321 28.8933 54.9854 28.6 56.6387C28.28 58.2654 28.12 59.4254 28.12 60.1187C28.12 60.8121 28.4 61.3987 28.96 61.8787C29.52 62.3321 30.24 62.5854 31.12 62.6387L31.12 63.0787C30.2133 63.3187 29.0133 63.4387 27.52 63.4387C26 63.4387 24.76 63.0521 23.8 62.2787C22.8133 61.5054 22.32 60.3854 22.32 58.9187C22.32 57.4254 22.7066 55.5454 23.48 53.2787C24.2533 50.9854 24.64 49.4787 24.64 48.7587C24.64 48.0121 24.4266 47.4787 24 47.1587C23.5466 46.8387 22.8933 46.5987 22.04 46.4387L22.04 45.7587C25.08 45.7587 27.6266 46.4921 29.68 47.9587C30.5333 48.5721 31.3466 49.1987 32.12 49.8387C33.9333 51.3054 36 52.0387 38.32 52.0387C38.88 52.0387 39.6266 51.9187 40.56 51.6787C41.4933 51.4387 42.3333 51.3187 43.08 51.3187C43.8 51.3187 44.5466 51.6654 45.32 52.3587C46.0933 53.0254 46.48 53.9321 46.48 55.0787C46.48 56.1987 46.08 57.0787 45.28 57.7187C44.4533 58.3587 43.36 58.6787 42 58.6787C40.64 58.6787 39.3866 58.3987 38.24 57.8387C37.0666 57.2521 36.0666 56.5054 35.24 55.5987C34.4133 54.6921 33.6266 53.7587 32.88 52.7987C32.1333 51.8121 31.2133 50.8254 30.12 49.8387C29.0266 48.8254 27.8533 48.0387 26.6 47.4787L26.48 47.5987C28.1866 48.6121 29.04 50.3721 29.04 52.8787Z" fill="white"/>
</svg>
