<svg width="70" height="110" viewBox="0 0 70 110" fill="none" xmlns="http://www.w3.org/2000/svg">
<rect x="1" y="1" width="68" height="108" fill="#D81616" stroke="white" stroke-width="2"/>
<path d="M39.3201 56.1446C41.0001 56.1446 42.4401 56.5446 43.6401 57.3446C44.8134 58.1179 45.4001 59.2646 45.4001 60.7846C45.4001 62.2779 44.9067 64.0246 43.9201 66.0246C42.9067 68.0246 42.4001 69.4646 42.4001 70.3446C42.4001 71.9179 43.2667 72.8912 45.0001 73.2646L45.0001 74.0646C42.9734 73.9046 41.0667 73.1579 39.2801 71.8246C38.0801 70.9179 36.0401 68.9979 33.1601 66.0646C32.3867 65.2912 31.4667 64.5979 30.4001 63.9846C29.3334 63.3712 28.1867 63.0646 26.9601 63.0646C25.7334 63.0646 24.6801 63.4246 23.8001 64.1446C22.9201 64.8646 22.4801 65.9312 22.4801 67.3446C22.4801 68.2512 22.6534 69.0779 23.0001 69.8246C23.3467 70.5712 23.7467 70.9446 24.2001 70.9446C24.6267 70.9446 24.9467 70.7712 25.1601 70.4246C25.3734 70.0512 25.5467 69.6646 25.6801 69.2646C25.7867 68.8379 26.0534 68.4512 26.4801 68.1046C26.9067 67.7312 27.4801 67.5446 28.2001 67.5446C28.9201 67.5446 29.5334 67.8112 30.0401 68.3446C30.5467 68.8512 30.8001 69.5579 30.8001 70.4646C30.8001 71.3712 30.4667 72.1179 29.8001 72.7046C29.1334 73.2912 28.2801 73.5846 27.2401 73.5846C25.6134 73.5846 24.2534 72.8912 23.1601 71.5046C22.0667 70.0912 21.5201 68.1312 21.5201 65.6246C21.5201 63.0912 22.0667 60.9446 23.1601 59.1846C24.2534 57.4246 25.7601 56.5446 27.6801 56.5446C29.2534 56.5446 30.5867 56.9179 31.6801 57.6646C32.7734 58.3846 33.6001 59.3179 34.1601 60.4646C34.7201 61.5846 35.2134 62.7446 35.6401 63.9446C36.0401 65.1179 36.5201 66.2779 37.0801 67.4246C37.6134 68.5446 38.2401 69.3446 38.9601 69.8246C38.4267 69.1846 38.1601 68.3579 38.1601 67.3446C38.1601 66.3312 38.3334 65.1846 38.6801 63.9046C39.0267 62.5979 39.2001 61.5712 39.2001 60.8246C39.2001 60.0779 39.1601 59.4646 39.0801 58.9846C39.0001 58.5046 38.7734 58.0512 38.4001 57.6246C38.0267 57.1979 37.4934 56.9446 36.8001 56.8646L36.8001 56.4646C37.6534 56.2512 38.4934 56.1446 39.3201 56.1446Z" fill="white"/>
<path d="M22.8401 42.6918C22.8401 41.1451 22.7601 40.0518 22.6001 39.4118C22.4134 38.7718 22.1467 38.3051 21.8001 38.0118C21.4267 37.6918 20.9334 37.3984 20.3201 37.1318L20.3201 36.7318C21.1467 36.5184 22.0534 36.4118 23.0401 36.4118C24.7734 36.4118 26.1867 36.8251 27.2801 37.6518C28.3734 38.4784 28.9201 39.6918 28.9201 41.2918C28.9201 44.2251 27.6667 46.8784 25.1601 49.2518L32.7201 50.0918C31.6534 48.9718 31.1201 47.1851 31.1201 44.7318C31.1201 41.5051 31.7201 39.1051 32.9201 37.5318C34.0934 35.9318 35.7867 35.1318 38.0001 35.1318C40.2134 35.1318 42.0001 36.0251 43.3601 37.8118C44.7201 39.5718 45.4001 42.1584 45.4001 45.5718C45.4001 47.8918 44.8934 49.7051 43.8801 51.0118C42.8401 52.2918 41.4667 52.9318 39.7601 52.9318C38.6934 52.9318 37.8267 52.6518 37.1601 52.0918C36.4934 51.5051 36.1601 50.7451 36.1601 49.8118C36.1601 48.8784 36.4134 48.1584 36.9201 47.6518C37.4267 47.1184 38.0534 46.8518 38.8001 46.8518C39.5201 46.8518 40.0934 47.0518 40.5201 47.4518C40.9467 47.8518 41.2134 48.2918 41.3201 48.7718C41.6134 50.0251 42.0401 50.6518 42.6001 50.6518C43.1334 50.6518 43.5734 50.2784 43.9201 49.5318C44.2667 48.7584 44.4401 47.8784 44.4401 46.8918C44.4401 43.4518 42.2667 41.7318 37.9201 41.7318C36.1334 41.7318 34.7467 42.0384 33.7601 42.6518C32.7734 43.2384 32.2801 44.4251 32.2801 46.2118C32.2801 47.9718 32.9467 49.3851 34.2801 50.4518L34.1201 51.1318L21.9201 49.7718C22.5334 48.2518 22.8401 45.8918 22.8401 42.6918Z" fill="white"/>
</svg>
