<svg width="70" height="110" viewBox="0 0 70 110" fill="none" xmlns="http://www.w3.org/2000/svg">
<rect x="1" y="1" width="68" height="108" fill="#D81616" stroke="white" stroke-width="2"/>
<path d="M21.52 66.6775C21.52 60.5975 23.36 57.5575 27.04 57.5575C28.5067 57.5575 29.7467 58.1442 30.76 59.3175C31.7734 60.4642 32.3334 62.1175 32.44 64.2775C32.4667 61.8509 33.0134 59.8909 34.08 58.3975C35.1467 56.8775 36.6 56.1175 38.44 56.1175C40.7067 56.1175 42.48 57.0375 43.76 58.8775C45.0134 60.6909 45.64 63.2642 45.64 66.5975C45.64 68.9175 45.1334 70.7309 44.12 72.0375C43.08 73.3175 41.7067 73.9575 40 73.9575C38.9334 73.9575 38.0667 73.6775 37.4 73.1175C36.7334 72.5309 36.4 71.7709 36.4 70.8375C36.4 69.9042 36.6534 69.1842 37.16 68.6775C37.6667 68.1442 38.2934 67.8775 39.04 67.8775C39.76 67.8775 40.3334 68.0775 40.76 68.4775C41.1867 68.8775 41.4534 69.3175 41.56 69.7975C41.8534 71.0509 42.28 71.6775 42.84 71.6775C43.3734 71.6775 43.8134 71.3042 44.16 70.5575C44.5067 69.7842 44.68 68.9042 44.68 67.9175C44.68 66.3709 44.12 65.1175 43 64.1575C41.88 63.1975 40.3734 62.7175 38.48 62.7175C36.56 62.7175 35.1467 63.1442 34.24 63.9975C33.3334 64.8242 32.88 66.3442 32.88 68.5575L32.88 69.1975L32.08 69.1975L32.08 68.5575C32.08 66.8509 31.5734 65.6242 30.56 64.8775C29.52 64.1309 28.3467 63.7575 27.04 63.7575C25.7334 63.7575 24.64 64.1309 23.76 64.8775C22.88 65.6242 22.44 66.5709 22.44 67.7175C22.44 68.8642 22.6267 69.7309 23 70.3175C23.3734 70.9042 23.7734 71.1975 24.2 71.1975C24.6 71.1975 24.8934 71.0375 25.08 70.7175C25.2667 70.3709 25.4134 69.9975 25.52 69.5975C25.6 69.1709 25.8267 68.7975 26.2 68.4775C26.5734 68.1309 27.08 67.9575 27.72 67.9575C28.36 67.9575 28.9067 68.1842 29.36 68.6375C29.8134 69.0909 30.04 69.7309 30.04 70.5575C30.04 71.3842 29.7467 72.0642 29.16 72.5975C28.5734 73.1309 27.7734 73.3975 26.76 73.3975C25.2934 73.3975 24.0534 72.7975 23.04 71.5975C22.0267 70.3709 21.52 68.7309 21.52 66.6775Z" fill="white"/>
<path d="M35.84 35.7828L35.84 34.8628L42 34.8628L42 35.7828L39.28 35.7828L39.28 38.7428L44.2 38.7428L44.2 36.1428L45 36.1428L45 47.3428L44.2 47.3428L44.2 44.7428L39.28 44.7428L39.28 54.1028L38.48 54.1028L21.72 42.7428L21.72 38.7428L38.48 38.7428L38.48 35.7828L35.84 35.7828ZM38.48 44.7428L26.12 44.7428L38.48 53.0628L38.48 44.7428Z" fill="white"/>
</svg>
