<svg width="70" height="110" viewBox="0 0 70 110" fill="none" xmlns="http://www.w3.org/2000/svg">
<rect x="1" y="1" width="68" height="108" fill="#D81616" stroke="white" stroke-width="2"/>
<path d="M22.52 56.2422C22.52 50.1622 24.36 47.1222 28.04 47.1222C29.5067 47.1222 30.7467 47.7089 31.76 48.8822C32.7734 50.0289 33.3334 51.6822 33.44 53.8422C33.4667 51.4156 34.0134 49.4555 35.08 47.9622C36.1467 46.4422 37.6 45.6822 39.44 45.6822C41.7067 45.6822 43.48 46.6022 44.76 48.4422C46.0134 50.2555 46.64 52.8289 46.64 56.1622C46.64 58.4822 46.1334 60.2955 45.12 61.6022C44.08 62.8822 42.7067 63.5222 41 63.5222C39.9334 63.5222 39.0667 63.2422 38.4 62.6822C37.7334 62.0955 37.4 61.3355 37.4 60.4022C37.4 59.4689 37.6534 58.7489 38.16 58.2422C38.6667 57.7089 39.2934 57.4422 40.04 57.4422C40.76 57.4422 41.3334 57.6422 41.76 58.0422C42.1867 58.4422 42.4534 58.8822 42.56 59.3622C42.8534 60.6155 43.28 61.2422 43.84 61.2422C44.3734 61.2422 44.8134 60.8689 45.16 60.1222C45.5067 59.3489 45.68 58.4689 45.68 57.4822C45.68 55.9355 45.12 54.6822 44 53.7222C42.88 52.7622 41.3734 52.2822 39.48 52.2822C37.56 52.2822 36.1467 52.7089 35.24 53.5622C34.3334 54.3889 33.88 55.9089 33.88 58.1222L33.88 58.7622L33.08 58.7622L33.08 58.1222C33.08 56.4156 32.5734 55.1889 31.56 54.4422C30.52 53.6955 29.3467 53.3222 28.04 53.3222C26.7334 53.3222 25.64 53.6955 24.76 54.4422C23.88 55.1889 23.44 56.1356 23.44 57.2822C23.44 58.4289 23.6267 59.2956 24 59.8822C24.3734 60.4689 24.7734 60.7622 25.2 60.7622C25.6 60.7622 25.8934 60.6022 26.08 60.2822C26.2667 59.9356 26.4134 59.5622 26.52 59.1622C26.6 58.7355 26.8267 58.3622 27.2 58.0422C27.5734 57.6956 28.08 57.5222 28.72 57.5222C29.36 57.5222 29.9067 57.7489 30.36 58.2022C30.8134 58.6556 31.04 59.2955 31.04 60.1222C31.04 60.9489 30.7467 61.6289 30.16 62.1622C29.5734 62.6956 28.7734 62.9622 27.76 62.9622C26.2934 62.9622 25.0534 62.3622 24.04 61.1622C23.0267 59.9355 22.52 58.2955 22.52 56.2422Z" fill="white"/>
</svg>
