<svg width="70" height="110" viewBox="0 0 70 110" fill="none" xmlns="http://www.w3.org/2000/svg">
<rect x="1" y="1" width="68" height="108" fill="#D81616" stroke="white" stroke-width="2"/>
<path d="M45.2 61.6594L45.2 58.8594L46 58.8594L46 70.8594L45.2 70.8594L45.2 67.6594L25.96 67.6594L27.2 70.8994L26.44 71.1394L22.72 63.0994L22.72 61.6594L45.2 61.6594Z" fill="white"/>
<path d="M39.88 37.6613C41.8267 37.6613 43.4133 38.5679 44.64 40.3813C45.8667 42.1679 46.48 44.3679 46.48 46.9813C46.48 49.5679 46.0133 51.7946 45.08 53.6613C44.12 55.5279 42.5467 56.4613 40.36 56.4613C39.0533 56.4613 37.8933 55.9946 36.88 55.0613C35.8667 54.1279 35.1333 52.8746 34.68 51.3013C32.7867 53.5679 30.72 54.7013 28.48 54.7013C26.8267 54.7013 25.4267 54.0479 24.28 52.7413C23.1333 51.4346 22.56 49.5413 22.56 47.0613C22.56 44.5546 23.0667 42.5279 24.08 40.9813C25.0667 39.4079 26.2667 38.6213 27.68 38.6213C29.9733 38.6213 31.5867 40.1013 32.52 43.0613C34.8933 39.4613 37.3467 37.6613 39.88 37.6613ZM27.6 43.1413C26.3733 43.1413 25.36 43.5679 24.56 44.4213C23.76 45.2479 23.36 46.2346 23.36 47.3813C23.36 48.5279 23.6133 49.4079 24.12 50.0213C24.6 50.6079 25.28 50.9013 26.16 50.9013C26.9333 50.9013 27.7067 50.4079 28.48 49.4213C29.1467 48.5679 29.8267 47.5546 30.52 46.3813C31.2133 45.1813 31.6933 44.3679 31.96 43.9413C30.9733 43.4079 29.52 43.1413 27.6 43.1413ZM40.56 51.5413C42.08 51.5413 43.32 51.0079 44.28 49.9413C45.2133 48.8479 45.68 47.7013 45.68 46.5013C45.68 45.2746 45.3467 44.2879 44.68 43.5413C44.0133 42.7679 43.12 42.3813 42 42.3813C41.3067 42.3813 40.64 42.7413 40 43.4613C39.36 44.1546 38.56 45.3013 37.6 46.9013C36.64 48.5013 35.9067 49.6479 35.4 50.3413C37.32 51.1413 39.04 51.5413 40.56 51.5413Z" fill="white"/>
</svg>
