<svg width="70" height="110" viewBox="0 0 70 110" fill="none" xmlns="http://www.w3.org/2000/svg">
<rect x="1" y="1" width="68" height="108" fill="#2B2B2B" stroke="white" stroke-width="2"/>
<path d="M45.2 61.3469L45.2 58.5469L46 58.5469L46 70.5469L45.2 70.5469L45.2 67.3469L25.96 67.3469L27.2 70.5869L26.44 70.8269L22.72 62.7869L22.72 61.3469L45.2 61.3469Z" fill="white"/>
<path d="M23.84 45.9088C23.84 44.3621 23.76 43.2688 23.6 42.6288C23.4133 41.9888 23.1467 41.5221 22.8 41.2288C22.4267 40.9088 21.9333 40.6154 21.32 40.3488L21.32 39.9488C22.1467 39.7354 23.0533 39.6288 24.04 39.6288C25.7733 39.6288 27.1867 40.0421 28.28 40.8688C29.3733 41.6954 29.92 42.9088 29.92 44.5088C29.92 47.4421 28.6667 50.0954 26.16 52.4688L33.72 53.3088C32.6533 52.1888 32.12 50.4021 32.12 47.9488C32.12 44.7221 32.72 42.3221 33.92 40.7488C35.0933 39.1488 36.7867 38.3488 39 38.3488C41.2133 38.3488 43 39.2421 44.36 41.0288C45.72 42.7888 46.4 45.3754 46.4 48.7888C46.4 51.1088 45.8933 52.9221 44.88 54.2288C43.84 55.5088 42.4667 56.1488 40.76 56.1488C39.6933 56.1488 38.8267 55.8688 38.16 55.3088C37.4933 54.7221 37.16 53.9621 37.16 53.0288C37.16 52.0954 37.4133 51.3754 37.92 50.8688C38.4267 50.3354 39.0533 50.0688 39.8 50.0688C40.52 50.0688 41.0933 50.2688 41.52 50.6688C41.9467 51.0688 42.2133 51.5088 42.32 51.9888C42.6133 53.2421 43.04 53.8688 43.6 53.8688C44.1333 53.8688 44.5733 53.4954 44.92 52.7488C45.2667 51.9754 45.44 51.0954 45.44 50.1088C45.44 46.6688 43.2667 44.9488 38.92 44.9488C37.1333 44.9488 35.7467 45.2554 34.76 45.8688C33.7733 46.4554 33.28 47.6421 33.28 49.4288C33.28 51.1888 33.9467 52.6021 35.28 53.6688L35.12 54.3488L22.92 52.9888C23.5333 51.4688 23.84 49.1088 23.84 45.9088Z" fill="white"/>
</svg>
