<svg width="70" height="110" viewBox="0 0 70 110" fill="none" xmlns="http://www.w3.org/2000/svg">
<rect x="1" y="1" width="68" height="108" fill="#D81616" stroke="white" stroke-width="2"/>
<path d="M44.2 61.8799L44.2 59.0799L45 59.0799L45 71.0799L44.2 71.0799L44.2 67.8799L24.96 67.8799L26.2 71.1199L25.44 71.3599L21.72 63.3199L21.72 61.8799L44.2 61.8799Z" fill="white"/>
<path d="M21.48 47.3617C21.48 40.4817 25.4266 37.0417 33.32 37.0417C37.1333 37.0417 40.12 38.0151 42.28 39.9617C44.4133 41.8817 45.48 44.6951 45.48 48.4017C45.48 49.7617 45.1466 51.1351 44.48 52.5217C43.7866 53.8817 42.7733 54.7751 41.44 55.2017C40.48 55.5751 39.56 55.6417 38.68 55.4017C37.8 55.1617 37.2 54.6417 36.88 53.8417C36.5333 53.0417 36.48 52.2951 36.72 51.6017C36.9333 50.9084 37.36 50.4151 38 50.1217C39.04 49.7484 39.8 49.7351 40.28 50.0817C40.7333 50.4017 41.2266 50.8151 41.76 51.3217C42.2666 51.8017 42.7333 51.9884 43.16 51.8817C43.56 51.7484 43.8933 51.3217 44.16 50.6017C44.4 49.8817 44.52 49.2017 44.52 48.5617C44.52 47.9217 44.4666 47.3884 44.36 46.9617C44.2266 46.5084 44.0933 46.1217 43.96 45.8017C43.8 45.4551 43.5466 45.1617 43.2 44.9217C42.8266 44.6551 42.52 44.4417 42.28 44.2817C42.0133 44.0951 41.6 43.9484 41.04 43.8417C40.4533 43.7351 40 43.6551 39.68 43.6017C39.3333 43.5217 38.7866 43.4684 38.04 43.4417C37.2666 43.4151 36.7066 43.4017 36.36 43.4017L33.68 43.4017C34.7466 44.6551 35.28 46.3751 35.28 48.5617C35.28 50.7484 34.7333 52.5884 33.64 54.0817C32.52 55.5484 30.88 56.2817 28.72 56.2817C26.56 56.2817 24.8133 55.5084 23.48 53.9617C22.1466 52.3884 21.48 50.1884 21.48 47.3617ZM28.52 50.6817C30.2 50.6817 31.5333 50.3617 32.52 49.7217C33.5066 49.0551 34 48.0951 34 46.8417C34 45.5884 33.52 44.4417 32.56 43.4017C28.9866 43.4284 26.3866 43.7751 24.76 44.4417C23.1066 45.0817 22.28 46.0684 22.28 47.4017C22.28 49.5884 24.36 50.6817 28.52 50.6817Z" fill="white"/>
</svg>
