<svg width="68" height="56" viewBox="0 0 68 56" fill="none" xmlns="http://www.w3.org/2000/svg">
<g clip-path="url(#clip0)">
<ellipse cx="33.6" cy="25.8461" rx="33.6" ry="25.8461" fill="#F3F3F3"/>
<path d="M33.6 51.6923C15.0432 51.6923 0 40.1206 0 25.8462V30.1539C0 44.4283 15.0432 56 33.6 56C52.1567 56 67.2 44.4283 67.2 30.1539V25.8462C67.2 40.1206 52.1567 51.6923 33.6 51.6923Z" fill="#F3F3F3"/>
<g style="mix-blend-mode:multiply">
<path d="M33.6 51.6923C15.0432 51.6923 0 40.1206 0 25.8462V30.1539C0 44.4283 15.0432 56 33.6 56C52.1567 56 67.2 44.4283 67.2 30.1539V25.8462C67.2 40.1206 52.1567 51.6923 33.6 51.6923Z" fill="url(#paint0_linear)" fill-opacity="0.2"/>
</g>
<ellipse cx="33.6" cy="25.844" rx="33.6" ry="25.844" fill="url(#paint1_radial)"/>
<path d="M35.1695 16.6195L37.8777 21.2934L43.8687 22.0314C44.9356 22.172 45.387 23.2966 44.6073 23.9643L40.2577 27.5489L41.2836 32.6446C41.4477 33.5583 40.3398 34.2611 39.355 33.8394L34.0205 31.4497L28.645 33.8746C27.6602 34.2963 26.5523 33.5934 26.7164 32.6797L27.7423 27.584L23.3927 23.9643C22.613 23.2966 23.0644 22.172 24.1313 22.0314L30.1223 21.2934L32.8305 16.6195C33.3229 15.776 34.7181 15.8112 35.1695 16.6195Z" fill="#303030"/>
</g>
<defs>
<linearGradient id="paint0_linear" x1="-4.5352e-07" y1="25.2" x2="67.2" y2="25.2" gradientUnits="userSpaceOnUse">
<stop/>
<stop offset="0.427083" stop-color="white"/>
<stop offset="1"/>
</linearGradient>
<radialGradient id="paint1_radial" cx="0" cy="0" r="1" gradientUnits="userSpaceOnUse" gradientTransform="translate(33.6 25.844) rotate(90) scale(25.844 33.6)">
<stop stop-color="white"/>
<stop offset="1" stop-color="#E8E8E8"/>
</radialGradient>
<clipPath id="clip0">
<rect width="67.2" height="56" fill="white"/>
</clipPath>
</defs>
</svg>
