<?xml version="1.0" standalone="no"?>
<!DOCTYPE svg PUBLIC "-//W3C//DTD SVG 20010904//EN"
 "http://www.w3.org/TR/2001/REC-SVG-20010904/DTD/svg10.dtd">
<svg version="1.0" xmlns="http://www.w3.org/2000/svg"
 width="512.000000pt" height="512.000000pt" viewBox="0 0 512.000000 512.000000"
 preserveAspectRatio="xMidYMid meet">
<metadata>
Created by potrace 1.14, written by Peter Selinger 2001-2017
</metadata>
<g transform="translate(0.000000,512.000000) scale(0.100000,-0.100000)"
fill="#000000" stroke="none">
<path d="M2475 5043 c-123 -133 -123 -135 12 -273 l73 -75 84 87 c88 92 104
123 84 162 -19 35 -155 176 -170 176 -7 0 -44 -35 -83 -77z"/>
<path d="M1962 4778 c-15 -20 -95 -287 -99 -336 -9 -86 13 -116 219 -309 86
-81 86 -80 143 109 76 258 79 250 -180 492 -33 31 -63 56 -66 56 -4 0 -11 -6
-17 -12z"/>
<path d="M3084 4727 c-141 -128 -199 -192 -211 -229 -13 -46 -10 -101 11 -165
8 -27 29 -94 45 -149 17 -56 37 -104 45 -107 8 -3 37 17 68 46 30 29 87 82
126 119 39 37 79 82 88 99 27 52 20 122 -25 268 -22 74 -41 140 -41 147 0 7
-9 18 -19 23 -16 9 -30 0 -87 -52z"/>
<path d="M1273 4768 c-5 -7 -20 -62 -33 -122 -32 -147 -31 -149 118 -198 62
-20 119 -35 126 -32 14 5 41 103 62 220 10 50 -25 78 -142 113 -115 35 -118
36 -131 19z"/>
<path d="M3600 4554 c-86 -29 -110 -47 -110 -83 1 -44 35 -172 49 -180 12 -8
140 27 182 50 30 16 33 53 9 149 -25 103 -19 100 -130 64z"/>
<path d="M2467 4318 c-110 -225 -111 -226 -105 -306 5 -60 15 -86 96 -249 50
-100 95 -184 100 -187 17 -10 34 15 116 179 96 194 106 223 101 302 -3 49 -18
87 -96 245 -67 134 -98 188 -110 188 -12 0 -42 -50 -102 -172z"/>
<path d="M1601 4231 c-10 -7 -12 -31 -7 -107 4 -55 9 -139 12 -189 11 -200 36
-237 267 -389 94 -63 177 -111 185 -108 12 4 13 30 7 146 -11 230 -14 258 -30
307 -25 74 -77 124 -244 233 -192 126 -174 116 -190 107z"/>
<path d="M942 4187 c-8 -10 -8 -24 -1 -51 6 -21 12 -46 14 -55 21 -101 48
-209 59 -234 27 -63 85 -107 162 -122 16 -3 83 -18 149 -34 95 -24 123 -27
133 -17 10 10 5 42 -24 166 -59 257 -63 261 -306 320 -92 22 -170 40 -172 40
-2 0 -8 -6 -14 -13z"/>
<path d="M3740 4076 c-66 -21 -74 -29 -67 -72 8 -52 15 -82 21 -93 9 -13 109
18 128 40 12 15 14 27 8 52 -4 17 -11 44 -14 60 -7 30 -19 32 -76 13z"/>
<path d="M3389 4066 c-4 -5 -19 -8 -86 -21 -16 -3 -64 -15 -108 -27 -121 -32
-134 -50 -179 -236 -20 -83 -36 -153 -36 -155 0 -14 35 -14 87 0 32 8 67 17
78 19 124 23 182 50 210 97 22 37 86 294 78 314 -5 12 -34 18 -44 9z"/>
<path d="M465 3878 c-91 -22 -107 -26 -117 -27 -14 -2 -8 -34 21 -131 18 -59
38 -106 55 -124 29 -32 25 -32 188 6 48 11 89 25 92 33 3 8 -11 63 -30 124
-48 152 -58 157 -209 119z"/>
<path d="M901 3526 c-10 -12 7 -44 108 -193 171 -254 161 -249 521 -268 144
-8 131 -8 148 -6 27 2 7 43 -94 196 -114 171 -129 190 -184 222 -51 31 -101
41 -230 48 -63 3 -147 8 -186 11 -55 4 -73 2 -83 -10z"/>
<path d="M525 3228 c-72 -22 -135 -41 -141 -42 -7 -1 -19 -8 -28 -15 -20 -17
-19 -18 118 -164 151 -161 182 -171 361 -117 55 17 124 38 152 47 29 9 58 22
64 29 11 14 -5 37 -86 120 -11 12 -49 52 -85 89 -36 37 -79 74 -97 81 -52 22
-119 15 -258 -28z"/>
<path d="M1000 2756 c-19 -7 -108 -50 -198 -95 -125 -63 -163 -86 -160 -99 2
-11 71 -51 192 -112 189 -95 189 -95 263 -94 72 1 77 2 263 94 155 77 190 98
190 115 -1 16 -36 37 -183 109 -173 84 -186 89 -257 92 -47 3 -88 -1 -110 -10z"/>
<path d="M173 2727 c-33 -19 -173 -153 -173 -167 0 -16 136 -146 174 -166 16
-9 38 -13 52 -10 13 4 63 44 111 91 l88 85 -83 80 c-73 71 -115 101 -140 100
-4 -1 -17 -6 -29 -13z"/>
<path d="M644 2264 c-44 -11 -62 -25 -176 -145 -97 -103 -124 -137 -118 -149
10 -19 308 -110 360 -110 64 1 111 32 225 155 61 64 113 123 117 129 12 22 -6
33 -97 61 -49 14 -117 35 -150 45 -86 26 -106 28 -161 14z"/>
<path d="M1557 2063 c-1 0 -58 -4 -127 -8 -69 -3 -142 -10 -162 -14 -45 -10
-115 -50 -144 -83 -24 -26 -222 -320 -230 -342 -11 -28 33 -33 176 -21 30 2
96 7 145 10 112 6 176 29 231 80 24 22 90 112 148 200 120 181 120 187 24 183
-33 -2 -60 -4 -61 -5z"/>
<path d="M1871 1580 c-90 -61 -172 -120 -183 -132 -57 -66 -74 -118 -82 -258
-19 -299 -18 -290 -2 -296 10 -4 75 34 177 100 270 179 267 174 285 559 6 129
5 137 -12 136 -11 0 -93 -49 -183 -109z"/>
<path d="M445 1540 c-12 -4 -26 -14 -32 -21 -16 -21 -75 -219 -69 -234 5 -13
57 -31 116 -41 14 -3 32 -7 40 -10 8 -3 32 -8 53 -11 64 -9 81 11 121 138 19
61 32 117 30 124 -3 7 -44 22 -92 33 -118 28 -144 32 -167 22z"/>
<path d="M2464 1379 c-98 -196 -112 -236 -107 -299 4 -60 21 -103 112 -283 56
-112 81 -153 96 -155 17 -2 34 25 104 165 109 219 124 279 92 376 -27 79 -176
362 -193 365 -13 3 -37 -36 -104 -169z"/>
<path d="M2987 1506 c-5 -13 44 -241 62 -289 24 -61 67 -85 216 -120 184 -43
186 -42 161 41 -3 9 -7 28 -10 42 -19 109 -51 202 -78 230 -35 37 -48 42 -180
74 -164 39 -165 39 -171 22z"/>
<path d="M1273 1430 c-123 -29 -171 -45 -198 -66 -40 -31 -68 -79 -80 -139 -5
-22 -9 -44 -11 -50 -46 -189 -52 -221 -41 -232 9 -9 49 -3 172 26 259 61 258
60 319 324 34 145 36 178 12 176 -6 0 -84 -18 -173 -39z"/>
<path d="M3691 1208 c-19 -49 -23 -114 -9 -125 15 -12 118 -47 122 -42 8 12
26 91 26 117 0 28 -4 32 -52 48 -29 9 -59 19 -65 21 -7 3 -17 -6 -22 -19z"/>
<path d="M2103 1017 c-213 -194 -243 -233 -242 -312 0 -22 21 -110 47 -195 42
-136 50 -155 69 -155 28 0 255 214 278 261 10 20 17 55 17 78 -1 54 -92 354
-109 360 -8 3 -35 -13 -60 -37z"/>
<path d="M2961 1041 c-6 -10 -31 -87 -56 -171 -57 -192 -53 -242 23 -317 139
-137 214 -203 232 -203 11 0 20 2 20 3 0 2 21 71 46 153 80 259 82 251 -142
465 -89 85 -109 97 -123 70z"/>
<path d="M3532 841 c-8 -4 -13 -11 -12 -15 1 -3 -6 -38 -14 -76 -29 -126 -25
-133 101 -172 63 -19 86 -23 97 -14 7 6 22 53 32 104 18 91 18 92 -1 111 -11
11 -57 31 -103 45 -96 30 -84 28 -100 17z"/>
<path d="M1365 675 c-113 -34 -145 -56 -145 -99 0 -34 47 -217 58 -228 8 -8
42 -2 122 22 129 39 154 60 145 119 -11 73 -50 215 -60 217 -5 2 -59 -12 -120
-31z"/>
<path d="M2476 339 c-90 -93 -105 -124 -82 -166 21 -38 151 -173 168 -173 14
0 146 139 165 174 6 13 10 31 8 42 -2 10 -4 22 -4 26 -1 10 -162 178 -171 178
-3 0 -41 -36 -84 -81z"/>
</g>
</svg>
