<svg width="70" height="110" viewBox="0 0 70 110" fill="none" xmlns="http://www.w3.org/2000/svg">
<rect x="1" y="1" width="68" height="108" fill="#2B2B2B" stroke="white" stroke-width="2"/>
<path d="M45.2 61.3916L45.2 58.5916L46 58.5916L46 70.5916L45.2 70.5916L45.2 67.3916L25.96 67.3916L27.2 70.6316L26.44 70.8716L22.72 62.8316L22.72 61.3916L45.2 61.3916Z" fill="white"/>
<path d="M22.52 48.5135C22.52 42.4335 24.36 39.3935 28.04 39.3935C29.5067 39.3935 30.7467 39.9801 31.76 41.1535C32.7734 42.3001 33.3333 43.9535 33.44 46.1135C33.4667 43.6868 34.0134 41.7268 35.08 40.2335C36.1467 38.7135 37.6 37.9535 39.44 37.9535C41.7067 37.9535 43.48 38.8735 44.76 40.7135C46.0134 42.5268 46.64 45.1001 46.64 48.4335C46.64 50.7535 46.1334 52.5668 45.12 53.8735C44.08 55.1535 42.7067 55.7935 41 55.7935C39.9334 55.7935 39.0667 55.5135 38.4 54.9535C37.7334 54.3668 37.4 53.6068 37.4 52.6735C37.4 51.7401 37.6534 51.0201 38.16 50.5135C38.6667 49.9801 39.2934 49.7135 40.04 49.7135C40.76 49.7135 41.3334 49.9135 41.76 50.3135C42.1867 50.7135 42.4534 51.1535 42.56 51.6335C42.8534 52.8868 43.28 53.5135 43.84 53.5135C44.3734 53.5135 44.8134 53.1401 45.16 52.3935C45.5067 51.6201 45.68 50.7401 45.68 49.7535C45.68 48.2068 45.12 46.9535 44 45.9935C42.88 45.0335 41.3734 44.5535 39.48 44.5535C37.56 44.5535 36.1467 44.9801 35.24 45.8335C34.3334 46.6601 33.88 48.1801 33.88 50.3935L33.88 51.0335L33.08 51.0335L33.08 50.3935C33.08 48.6868 32.5734 47.4601 31.56 46.7135C30.52 45.9668 29.3467 45.5935 28.04 45.5935C26.7334 45.5935 25.64 45.9668 24.76 46.7135C23.88 47.4601 23.44 48.4068 23.44 49.5535C23.44 50.7001 23.6267 51.5668 24 52.1535C24.3734 52.7401 24.7734 53.0335 25.2 53.0335C25.6 53.0335 25.8934 52.8735 26.08 52.5535C26.2667 52.2068 26.4133 51.8335 26.52 51.4335C26.6 51.0068 26.8267 50.6335 27.2 50.3135C27.5734 49.9668 28.08 49.7935 28.72 49.7935C29.36 49.7935 29.9067 50.0201 30.36 50.4735C30.8134 50.9268 31.04 51.5668 31.04 52.3935C31.04 53.2201 30.7467 53.9001 30.16 54.4335C29.5734 54.9668 28.7734 55.2335 27.76 55.2335C26.2934 55.2335 25.0534 54.6335 24.04 53.4335C23.0267 52.2068 22.52 50.5668 22.52 48.5135Z" fill="white"/>
</svg>
