<svg width="70" height="110" viewBox="0 0 70 110" fill="none" xmlns="http://www.w3.org/2000/svg">
<rect x="1" y="1" width="68" height="108" fill="#2B2B2B" stroke="white" stroke-width="2"/>
<path d="M21.5201 66.5352C21.5201 60.4552 23.3601 57.4152 27.0401 57.4152C28.5067 57.4152 29.7467 58.0019 30.7601 59.1752C31.7734 60.3219 32.3334 61.9752 32.4401 64.1352C32.4667 61.7085 33.0134 59.7485 34.0801 58.2552C35.1467 56.7352 36.6001 55.9752 38.4401 55.9752C40.7067 55.9752 42.4801 56.8952 43.7601 58.7352C45.0134 60.5485 45.6401 63.1219 45.6401 66.4552C45.6401 68.7752 45.1334 70.5885 44.1201 71.8952C43.0801 73.1752 41.7067 73.8152 40.0001 73.8152C38.9334 73.8152 38.0667 73.5352 37.4001 72.9752C36.7334 72.3885 36.4001 71.6285 36.4001 70.6952C36.4001 69.7619 36.6534 69.0419 37.1601 68.5352C37.6667 68.0019 38.2934 67.7352 39.0401 67.7352C39.7601 67.7352 40.3334 67.9352 40.7601 68.3352C41.1867 68.7352 41.4534 69.1752 41.5601 69.6552C41.8534 70.9085 42.2801 71.5352 42.8401 71.5352C43.3734 71.5352 43.8134 71.1619 44.1601 70.4152C44.5067 69.6419 44.6801 68.7619 44.6801 67.7752C44.6801 66.2285 44.1201 64.9752 43.0001 64.0152C41.8801 63.0552 40.3734 62.5752 38.4801 62.5752C36.5601 62.5752 35.1467 63.0019 34.2401 63.8552C33.3334 64.6819 32.8801 66.2019 32.8801 68.4152L32.8801 69.0552L32.0801 69.0552L32.0801 68.4152C32.0801 66.7085 31.5734 65.4819 30.5601 64.7352C29.5201 63.9885 28.3467 63.6152 27.0401 63.6152C25.7334 63.6152 24.6401 63.9885 23.7601 64.7352C22.8801 65.4819 22.4401 66.4285 22.4401 67.5752C22.4401 68.7219 22.6267 69.5885 23.0001 70.1752C23.3734 70.7619 23.7734 71.0552 24.2001 71.0552C24.6001 71.0552 24.8934 70.8952 25.0801 70.5752C25.2667 70.2285 25.4134 69.8552 25.5201 69.4552C25.6001 69.0285 25.8267 68.6552 26.2001 68.3352C26.5734 67.9885 27.0801 67.8152 27.7201 67.8152C28.3601 67.8152 28.9067 68.0419 29.3601 68.4952C29.8134 68.9485 30.0401 69.5885 30.0401 70.4152C30.0401 71.2419 29.7467 71.9219 29.1601 72.4552C28.5734 72.9885 27.7734 73.2552 26.7601 73.2552C25.2934 73.2552 24.0534 72.6552 23.0401 71.4552C22.0267 70.2285 21.5201 68.5885 21.5201 66.5352Z" fill="white"/>
<path d="M22.8401 42.9205C22.8401 41.3738 22.7601 40.2805 22.6001 39.6405C22.4134 39.0005 22.1467 38.5338 21.8001 38.2405C21.4267 37.9205 20.9334 37.6272 20.3201 37.3605L20.3201 36.9605C21.1467 36.7472 22.0534 36.6405 23.0401 36.6405C24.7734 36.6405 26.1867 37.0538 27.2801 37.8805C28.3734 38.7072 28.9201 39.9205 28.9201 41.5205C28.9201 44.4538 27.6667 47.1072 25.1601 49.4805L32.7201 50.3205C31.6534 49.2005 31.1201 47.4138 31.1201 44.9605C31.1201 41.7338 31.7201 39.3338 32.9201 37.7605C34.0934 36.1605 35.7867 35.3605 38.0001 35.3605C40.2134 35.3605 42.0001 36.2538 43.3601 38.0405C44.7201 39.8005 45.4001 42.3872 45.4001 45.8005C45.4001 48.1205 44.8934 49.9338 43.8801 51.2405C42.8401 52.5205 41.4667 53.1605 39.7601 53.1605C38.6934 53.1605 37.8267 52.8805 37.1601 52.3205C36.4934 51.7338 36.1601 50.9738 36.1601 50.0405C36.1601 49.1072 36.4134 48.3872 36.9201 47.8805C37.4267 47.3472 38.0534 47.0805 38.8001 47.0805C39.5201 47.0805 40.0934 47.2805 40.5201 47.6805C40.9467 48.0805 41.2134 48.5205 41.3201 49.0005C41.6134 50.2538 42.0401 50.8805 42.6001 50.8805C43.1334 50.8805 43.5734 50.5072 43.9201 49.7605C44.2667 48.9872 44.4401 48.1072 44.4401 47.1205C44.4401 43.6805 42.2667 41.9605 37.9201 41.9605C36.1334 41.9605 34.7467 42.2672 33.7601 42.8805C32.7734 43.4672 32.2801 44.6538 32.2801 46.4405C32.2801 48.2005 32.9467 49.6138 34.2801 50.6805L34.1201 51.3605L21.9201 50.0005C22.5334 48.4805 22.8401 46.1205 22.8401 42.9205Z" fill="white"/>
</svg>
