<svg width="140" height="110" viewBox="0 0 140 110" fill="none" xmlns="http://www.w3.org/2000/svg">
<rect x="1" y="1" width="138" height="108" stroke="white" stroke-width="2"/>
<path d="M56.2267 55.884C56.2267 52.812 55.8067 50.424 54.9667 48.72C54.1507 46.992 53.0107 46.128 51.5467 46.128C50.1067 46.128 48.9667 46.992 48.1267 48.72C47.2867 50.448 46.8667 52.86 46.8667 55.956C46.8667 59.052 47.2627 61.44 48.0547 63.12C48.8707 64.8 50.0347 65.64 51.5467 65.64C54.6667 65.64 56.2267 62.388 56.2267 55.884ZM62.0227 56.1C62.0227 59.388 61.0507 61.92 59.1067 63.696C57.1627 65.472 54.6307 66.36 51.5107 66.36C48.3907 66.36 45.8707 65.484 43.9507 63.732C42.0307 61.956 41.0707 59.424 41.0707 56.136C41.0707 52.824 42.0307 50.208 43.9507 48.288C45.8707 46.368 48.4147 45.408 51.5827 45.408C54.7747 45.408 57.3067 46.368 59.1787 48.288C61.0747 50.184 62.0227 52.788 62.0227 56.1Z" fill="white"/>
<path d="M71.7452 66H62.7452V65.28H64.5452V46.56H62.7452V45.84H71.7452C73.5212 45.84 75.1172 46.14 76.5332 46.74C77.9732 47.316 79.1372 48.084 80.0252 49.044C81.8252 51.036 82.7252 53.292 82.7252 55.812C82.7252 59.22 81.8252 61.776 80.0252 63.48C78.2252 65.16 75.4652 66 71.7452 66ZM69.9452 65.28C72.5372 65.28 74.4092 64.584 75.5612 63.192C76.7132 61.776 77.2892 59.484 77.2892 56.316C77.2892 53.124 76.6652 50.7 75.4172 49.044C74.1692 47.388 72.3452 46.56 69.9452 46.56V65.28Z" fill="white"/>
<path d="M92.4536 66H83.4536V65.28H85.2536V46.56H83.4536V45.84H92.4536C94.2296 45.84 95.8256 46.14 97.2416 46.74C98.6816 47.316 99.8456 48.084 100.734 49.044C102.534 51.036 103.434 53.292 103.434 55.812C103.434 59.22 102.534 61.776 100.734 63.48C98.9336 65.16 96.1736 66 92.4536 66ZM90.6536 65.28C93.2456 65.28 95.1176 64.584 96.2696 63.192C97.4216 61.776 97.9976 59.484 97.9976 56.316C97.9976 53.124 97.3736 50.7 96.1256 49.044C94.8776 47.388 93.0536 46.56 90.6536 46.56V65.28Z" fill="white"/>
</svg>
