<svg width="280" height="110" viewBox="0 0 280 110" fill="none" xmlns="http://www.w3.org/2000/svg">
<rect x="1" y="1" width="278" height="108" stroke="white" stroke-width="2"/>
<path d="M108.786 60.888C108.786 62.4 108.426 63.696 107.706 64.776C107.01 65.832 105.978 66.36 104.61 66.36C103.266 66.36 101.694 65.916 99.8939 65.028C98.0939 64.116 96.7979 63.66 96.0059 63.66C94.5899 63.66 93.7139 64.44 93.3779 66H92.6579C92.8019 64.176 93.4739 62.46 94.6739 60.852C95.4899 59.772 97.2179 57.936 99.8579 55.344C100.554 54.648 101.178 53.82 101.73 52.86C102.282 51.9 102.558 50.868 102.558 49.764C102.558 48.66 102.234 47.712 101.586 46.92C100.938 46.128 99.9779 45.732 98.7059 45.732C97.8899 45.732 97.1459 45.888 96.4739 46.2C95.8019 46.512 95.4659 46.872 95.4659 47.28C95.4659 47.664 95.6219 47.952 95.9339 48.144C96.2699 48.336 96.6179 48.492 96.9779 48.612C97.3619 48.708 97.7099 48.948 98.0219 49.332C98.3579 49.716 98.5259 50.232 98.5259 50.88C98.5259 51.528 98.2859 52.08 97.8059 52.536C97.3499 52.992 96.7139 53.22 95.8979 53.22C95.0819 53.22 94.4099 52.92 93.8819 52.32C93.3539 51.72 93.0899 50.952 93.0899 50.016C93.0899 48.552 93.7139 47.328 94.9619 46.344C96.2339 45.36 97.9979 44.868 100.254 44.868C102.534 44.868 104.466 45.36 106.05 46.344C107.634 47.328 108.426 48.684 108.426 50.412C108.426 51.828 108.09 53.028 107.418 54.012C106.77 54.996 105.93 55.74 104.898 56.244C103.89 56.748 102.846 57.192 101.766 57.576C100.71 57.936 99.6659 58.368 98.6339 58.872C97.6259 59.352 96.9059 59.916 96.4739 60.564C97.0499 60.084 97.7939 59.844 98.7059 59.844C99.6179 59.844 100.65 60 101.802 60.312C102.978 60.624 103.902 60.78 104.574 60.78C105.246 60.78 105.798 60.744 106.23 60.672C106.662 60.6 107.07 60.396 107.454 60.06C107.838 59.724 108.066 59.244 108.138 58.62H108.498C108.69 59.388 108.786 60.144 108.786 60.888Z" fill="white"/>
<path d="M129.497 65.28H131.297V66H122.297V65.28H124.097V55.2C124.097 53.496 123.845 52.284 123.341 51.564C122.837 50.844 122.081 50.484 121.073 50.484C119.705 50.484 118.613 51.204 117.797 52.644V65.28H119.597V66H110.597V65.28H112.397V50.16H110.597V49.44H117.797V51.312C118.253 50.688 118.961 50.16 119.921 49.728C120.905 49.272 121.961 49.044 123.089 49.044C127.361 49.044 129.497 51.36 129.497 55.992V65.28Z" fill="white"/>
<path d="M139.165 66.432C137.221 66.432 135.541 65.664 134.125 64.128C132.709 62.592 132.001 60.42 132.001 57.612C132.001 54.804 132.697 52.608 134.089 51.024C135.481 49.44 137.173 48.648 139.165 48.648C140.149 48.648 141.073 48.852 141.937 49.26C142.801 49.668 143.425 50.28 143.809 51.096V42.6H142.009V41.88H149.209V65.28H151.009V66H143.809V64.344C143.161 65.736 141.613 66.432 139.165 66.432ZM143.809 58.116V52.176C143.161 50.88 142.309 50.232 141.253 50.232C140.221 50.232 139.333 50.832 138.589 52.032C137.845 53.232 137.473 55.14 137.473 57.756C137.473 60.348 137.857 62.244 138.625 63.444C139.393 64.644 140.317 65.16 141.397 64.992C141.997 64.896 142.453 64.704 142.765 64.416C143.461 63.744 143.809 61.644 143.809 58.116Z" fill="white"/>
<path d="M166.911 65.28H169.431V66H158.631V65.28H161.511V47.964L158.595 49.08L158.379 48.396L165.615 45.048H166.911V65.28Z" fill="white"/>
<path d="M186.277 60.888C186.277 62.4 185.917 63.696 185.197 64.776C184.501 65.832 183.469 66.36 182.101 66.36C180.757 66.36 179.185 65.916 177.385 65.028C175.585 64.116 174.289 63.66 173.497 63.66C172.081 63.66 171.205 64.44 170.869 66H170.149C170.293 64.176 170.965 62.46 172.165 60.852C172.981 59.772 174.709 57.936 177.349 55.344C178.045 54.648 178.669 53.82 179.221 52.86C179.773 51.9 180.049 50.868 180.049 49.764C180.049 48.66 179.725 47.712 179.077 46.92C178.429 46.128 177.469 45.732 176.197 45.732C175.381 45.732 174.637 45.888 173.965 46.2C173.293 46.512 172.957 46.872 172.957 47.28C172.957 47.664 173.113 47.952 173.425 48.144C173.761 48.336 174.109 48.492 174.469 48.612C174.853 48.708 175.201 48.948 175.513 49.332C175.849 49.716 176.017 50.232 176.017 50.88C176.017 51.528 175.777 52.08 175.297 52.536C174.841 52.992 174.205 53.22 173.389 53.22C172.573 53.22 171.901 52.92 171.373 52.32C170.845 51.72 170.581 50.952 170.581 50.016C170.581 48.552 171.205 47.328 172.453 46.344C173.725 45.36 175.489 44.868 177.745 44.868C180.025 44.868 181.957 45.36 183.541 46.344C185.125 47.328 185.917 48.684 185.917 50.412C185.917 51.828 185.581 53.028 184.909 54.012C184.261 54.996 183.421 55.74 182.389 56.244C181.381 56.748 180.337 57.192 179.257 57.576C178.201 57.936 177.157 58.368 176.125 58.872C175.117 59.352 174.397 59.916 173.965 60.564C174.541 60.084 175.285 59.844 176.197 59.844C177.109 59.844 178.141 60 179.293 60.312C180.469 60.624 181.393 60.78 182.065 60.78C182.737 60.78 183.289 60.744 183.721 60.672C184.153 60.6 184.561 60.396 184.945 60.06C185.329 59.724 185.557 59.244 185.629 58.62H185.989C186.181 59.388 186.277 60.144 186.277 60.888Z" fill="white"/>
</svg>
