<svg width="70" height="110" viewBox="0 0 70 110" fill="none" xmlns="http://www.w3.org/2000/svg">
<rect x="1" y="1" width="68" height="108" fill="#D81616" stroke="white" stroke-width="2"/>
<path d="M39.32 56.5685C41 56.5685 42.44 56.9685 43.64 57.7685C44.8134 58.5419 45.4 59.6885 45.4 61.2085C45.4 62.7019 44.9067 64.4485 43.92 66.4485C42.9067 68.4485 42.4 69.8885 42.4 70.7685C42.4 72.3419 43.2667 73.3152 45 73.6885L45 74.4885C42.9734 74.3285 41.0667 73.5819 39.28 72.2485C38.08 71.3419 36.04 69.4219 33.16 66.4885C32.3867 65.7152 31.4667 65.0219 30.4 64.4085C29.3334 63.7952 28.1867 63.4885 26.96 63.4885C25.7334 63.4885 24.68 63.8485 23.8 64.5685C22.92 65.2885 22.48 66.3552 22.48 67.7685C22.48 68.6752 22.6534 69.5019 23 70.2485C23.3467 70.9952 23.7467 71.3685 24.2 71.3685C24.6267 71.3685 24.9467 71.1952 25.16 70.8485C25.3734 70.4752 25.5467 70.0885 25.68 69.6885C25.7867 69.2619 26.0534 68.8752 26.48 68.5285C26.9067 68.1552 27.48 67.9685 28.2 67.9685C28.92 67.9685 29.5334 68.2352 30.04 68.7685C30.5467 69.2752 30.8 69.9819 30.8 70.8885C30.8 71.7952 30.4667 72.5419 29.8 73.1285C29.1334 73.7152 28.28 74.0085 27.24 74.0085C25.6134 74.0085 24.2534 73.3152 23.16 71.9285C22.0667 70.5152 21.52 68.5552 21.52 66.0485C21.52 63.5152 22.0667 61.3685 23.16 59.6085C24.2534 57.8485 25.76 56.9685 27.68 56.9685C29.2534 56.9685 30.5867 57.3419 31.68 58.0885C32.7734 58.8085 33.6 59.7419 34.16 60.8885C34.72 62.0085 35.2134 63.1685 35.64 64.3685C36.04 65.5419 36.52 66.7019 37.08 67.8485C37.6133 68.9685 38.24 69.7685 38.96 70.2485C38.4267 69.6085 38.16 68.7819 38.16 67.7685C38.16 66.7552 38.3334 65.6085 38.68 64.3285C39.0267 63.0219 39.2 61.9952 39.2 61.2485C39.2 60.5019 39.16 59.8885 39.08 59.4085C39 58.9285 38.7734 58.4752 38.4 58.0485C38.0267 57.6219 37.4934 57.3685 36.8 57.2885L36.8 56.8885C37.6534 56.6752 38.4934 56.5685 39.32 56.5685Z" fill="white"/>
<path d="M21.52 45.6757C21.52 39.5957 23.36 36.5557 27.04 36.5557C28.5067 36.5557 29.7467 37.1424 30.76 38.3157C31.7734 39.4624 32.3333 41.1157 32.44 43.2757C32.4667 40.849 33.0133 38.889 34.08 37.3957C35.1467 35.8757 36.6 35.1157 38.44 35.1157C40.7067 35.1157 42.48 36.0357 43.76 37.8757C45.0133 39.689 45.64 42.2624 45.64 45.5957C45.64 47.9157 45.1334 49.729 44.12 51.0357C43.08 52.3157 41.7067 52.9557 40 52.9557C38.9334 52.9557 38.0667 52.6757 37.4 52.1157C36.7333 51.529 36.4 50.769 36.4 49.8357C36.4 48.9024 36.6534 48.1824 37.16 47.6757C37.6667 47.1424 38.2934 46.8757 39.04 46.8757C39.76 46.8757 40.3333 47.0757 40.76 47.4757C41.1867 47.8757 41.4534 48.3157 41.56 48.7957C41.8534 50.049 42.28 50.6757 42.84 50.6757C43.3734 50.6757 43.8134 50.3024 44.16 49.5557C44.5067 48.7824 44.68 47.9024 44.68 46.9157C44.68 45.369 44.12 44.1157 43 43.1557C41.88 42.1957 40.3734 41.7157 38.48 41.7157C36.56 41.7157 35.1467 42.1424 34.24 42.9957C33.3334 43.8224 32.88 45.3424 32.88 47.5557L32.88 48.1957L32.08 48.1957L32.08 47.5557C32.08 45.849 31.5734 44.6224 30.56 43.8757C29.52 43.129 28.3467 42.7557 27.04 42.7557C25.7334 42.7557 24.64 43.129 23.76 43.8757C22.88 44.6224 22.44 45.569 22.44 46.7157C22.44 47.8624 22.6267 48.729 23 49.3157C23.3734 49.9024 23.7734 50.1957 24.2 50.1957C24.6 50.1957 24.8934 50.0357 25.08 49.7157C25.2667 49.369 25.4133 48.9957 25.52 48.5957C25.6 48.169 25.8267 47.7957 26.2 47.4757C26.5734 47.129 27.08 46.9557 27.72 46.9557C28.36 46.9557 28.9067 47.1824 29.36 47.6357C29.8134 48.089 30.04 48.729 30.04 49.5557C30.04 50.3824 29.7467 51.0624 29.16 51.5957C28.5734 52.129 27.7734 52.3957 26.76 52.3957C25.2933 52.3957 24.0533 51.7957 23.04 50.5957C22.0267 49.369 21.52 47.729 21.52 45.6757Z" fill="white"/>
</svg>
