<svg width="70" height="110" viewBox="0 0 70 110" fill="none" xmlns="http://www.w3.org/2000/svg">
<rect x="1" y="1" width="68" height="108" fill="#2B2B2B" stroke="white" stroke-width="2"/>
<path d="M34.28 58.0504C33.2133 56.7971 32.68 55.0771 32.68 52.8904C32.68 50.7037 33.24 48.8771 34.36 47.4104C35.4533 45.9171 37.08 45.1704 39.24 45.1704C41.4 45.1704 43.1466 45.9571 44.48 47.5304C45.8133 49.0771 46.48 51.2637 46.48 54.0904C46.48 60.9704 42.5333 64.4104 34.64 64.4104C30.8266 64.4104 27.8533 63.4504 25.72 61.5304C23.56 59.5837 22.48 56.7571 22.48 53.0504C22.48 51.6904 22.8266 50.3304 23.52 48.9704C24.1866 47.5837 25.1866 46.6771 26.52 46.2504C27.48 45.8771 28.4 45.8104 29.28 46.0504C30.16 46.2904 30.7733 46.8104 31.12 47.6104C31.44 48.4104 31.4933 49.1571 31.28 49.8504C31.04 50.5437 30.6 51.0371 29.96 51.3304C28.92 51.7037 28.1733 51.7304 27.72 51.4104C27.24 51.0637 26.7466 50.6504 26.24 50.1704C25.7066 49.6637 25.24 49.4771 24.84 49.6104C24.4133 49.7171 24.08 50.1304 23.84 50.8504C23.5733 51.5704 23.44 52.2504 23.44 52.8904C23.44 53.5304 23.5066 54.0771 23.64 54.5304C23.7466 54.9571 23.88 55.3437 24.04 55.6904C24.1733 56.0104 24.4266 56.3037 24.8 56.5704C25.1466 56.8104 25.4533 57.0237 25.72 57.2104C25.96 57.3704 26.3733 57.5037 26.96 57.6104C27.52 57.7171 27.9733 57.8104 28.32 57.8904C28.64 57.9437 29.1866 57.9837 29.96 58.0104C30.7066 58.0371 31.2533 58.0504 31.6 58.0504L34.28 58.0504ZM45.68 54.0504C45.68 51.8637 43.6 50.7704 39.44 50.7704C37.76 50.7704 36.4266 51.1037 35.44 51.7704C34.4533 52.4104 33.96 53.3571 33.96 54.6104C33.96 55.8637 34.44 57.0104 35.4 58.0504C38.9733 58.0237 41.5866 57.6904 43.24 57.0504C44.8666 56.3837 45.68 55.3837 45.68 54.0504Z" fill="white"/>
</svg>
