<svg width="80" height="330" viewBox="0 0 80 330" fill="none" xmlns="http://www.w3.org/2000/svg">
<path d="M45.6058 11.8101C47.4691 5.40503 53.3382 1 60.0087 1H79V329H60.0087C53.3382 329 47.4691 324.595 45.6058 318.19L2.26035 169.19C1.46425 166.453 1.46425 163.547 2.26035 160.81L45.6058 11.8101Z" fill="#2C9934" stroke="white" stroke-width="2"/>
<path d="M43.04 155.32C46.64 155.32 49.5333 156.213 51.72 158C53.88 159.787 54.96 162.2 54.96 165.24C54.96 168.253 53.88 170.64 51.72 172.4C49.56 174.133 46.5067 175 42.56 175C39.3067 175 36.5733 174.133 34.36 172.4C32.12 170.64 31 168.213 31 165.12C31 162 32.1067 159.587 34.32 157.88C36.5067 156.173 39.4133 155.32 43.04 155.32ZM42.56 161.28C35.3867 161.28 31.8 162.573 31.8 165.16C31.8 167.747 35.3867 169.04 42.56 169.04C46.4 169.04 49.2933 168.76 51.24 168.2C53.1867 167.64 54.16 166.613 54.16 165.12C54.16 163.627 53.2 162.613 51.28 162.08C49.36 161.547 46.4533 161.28 42.56 161.28Z" fill="white"/>
</svg>
