<svg width="70" height="110" viewBox="0 0 70 110" fill="none" xmlns="http://www.w3.org/2000/svg">
<rect x="1" y="1" width="68" height="108" fill="#D81616" stroke="white" stroke-width="2"/>
<path d="M23.04 67.72C23.04 61.64 24.88 58.6 28.56 58.6C30.0267 58.6 31.2667 59.1867 32.28 60.36C33.2933 61.5067 33.8533 63.16 33.96 65.32C33.9867 62.8933 34.5333 60.9333 35.6 59.44C36.6667 57.92 38.12 57.16 39.96 57.16C42.2267 57.16 44 58.08 45.28 59.92C46.5333 61.7333 47.16 64.3067 47.16 67.64C47.16 69.96 46.6533 71.7733 45.64 73.08C44.6 74.36 43.2267 75 41.52 75C40.4533 75 39.5867 74.72 38.92 74.16C38.2533 73.5733 37.92 72.8133 37.92 71.88C37.92 70.9467 38.1733 70.2267 38.68 69.72C39.1867 69.1867 39.8133 68.92 40.56 68.92C41.28 68.92 41.8533 69.12 42.28 69.52C42.7067 69.92 42.9733 70.36 43.08 70.84C43.3733 72.0933 43.8 72.72 44.36 72.72C44.8933 72.72 45.3333 72.3467 45.68 71.6C46.0267 70.8267 46.2 69.9467 46.2 68.96C46.2 67.4133 45.64 66.16 44.52 65.2C43.4 64.24 41.8933 63.76 40 63.76C38.08 63.76 36.6667 64.1867 35.76 65.04C34.8533 65.8667 34.4 67.3867 34.4 69.6L34.4 70.24L33.6 70.24L33.6 69.6C33.6 67.8933 33.0933 66.6667 32.08 65.92C31.04 65.1733 29.8667 64.8 28.56 64.8C27.2533 64.8 26.16 65.1733 25.28 65.92C24.4 66.6667 23.96 67.6133 23.96 68.76C23.96 69.9067 24.1467 70.7733 24.52 71.36C24.8933 71.9467 25.2933 72.24 25.72 72.24C26.12 72.24 26.4133 72.08 26.6 71.76C26.7867 71.4133 26.9333 71.04 27.04 70.64C27.12 70.2133 27.3467 69.84 27.72 69.52C28.0933 69.1733 28.6 69 29.24 69C29.88 69 30.4267 69.2267 30.88 69.68C31.3333 70.1333 31.56 70.7733 31.56 71.6C31.56 72.4267 31.2667 73.1067 30.68 73.64C30.0933 74.1733 29.2933 74.44 28.28 74.44C26.8133 74.44 25.5733 73.84 24.56 72.64C23.5467 71.4133 23.04 69.7733 23.04 67.72Z" fill="white"/>
<path d="M34.8 47.9853C33.7333 46.732 33.2 45.012 33.2 42.8253C33.2 40.6386 33.76 38.812 34.88 37.3453C35.9733 35.852 37.6 35.1053 39.76 35.1053C41.92 35.1053 43.6667 35.892 45 37.4653C46.3333 39.012 47 41.1986 47 44.0253C47 50.9053 43.0533 54.3453 35.16 54.3453C31.3467 54.3453 28.3733 53.3853 26.24 51.4653C24.08 49.5186 23 46.692 23 42.9853C23 41.6253 23.3467 40.2653 24.04 38.9053C24.7067 37.5186 25.7067 36.612 27.04 36.1853C28 35.812 28.92 35.7453 29.8 35.9853C30.68 36.2253 31.2933 36.7453 31.64 37.5453C31.96 38.3453 32.0133 39.092 31.8 39.7853C31.56 40.4786 31.12 40.972 30.48 41.2653C29.44 41.6386 28.6933 41.6653 28.24 41.3453C27.76 40.9986 27.2667 40.5853 26.76 40.1053C26.2267 39.5986 25.76 39.412 25.36 39.5453C24.9333 39.652 24.6 40.0653 24.36 40.7853C24.0933 41.5053 23.96 42.1853 23.96 42.8253C23.96 43.4653 24.0267 44.012 24.16 44.4653C24.2667 44.892 24.4 45.2786 24.56 45.6253C24.6933 45.9453 24.9467 46.2386 25.32 46.5053C25.6667 46.7453 25.9733 46.9586 26.24 47.1453C26.48 47.3053 26.8933 47.4386 27.48 47.5453C28.04 47.652 28.4933 47.7453 28.84 47.8253C29.16 47.8786 29.7067 47.9186 30.48 47.9453C31.2267 47.972 31.7733 47.9853 32.12 47.9853L34.8 47.9853ZM46.2 43.9853C46.2 41.7986 44.12 40.7053 39.96 40.7053C38.28 40.7053 36.9467 41.0386 35.96 41.7053C34.9733 42.3453 34.48 43.292 34.48 44.5453C34.48 45.7986 34.96 46.9453 35.92 47.9853C39.4933 47.9586 42.1067 47.6253 43.76 46.9853C45.3867 46.3186 46.2 45.3186 46.2 43.9853Z" fill="white"/>
</svg>
