<svg width="70" height="110" viewBox="0 0 70 110" fill="none" xmlns="http://www.w3.org/2000/svg">
<rect x="1" y="1" width="68" height="108" fill="#D81616" stroke="white" stroke-width="2"/>
<path d="M45.2 61.6203L45.2 58.8203L46 58.8203L46 70.8203L45.2 70.8203L45.2 67.6203L25.96 67.6203L27.2 70.8603L26.44 71.1003L22.72 63.0603L22.72 61.6203L45.2 61.6203Z" fill="white"/>
<path d="M40.32 38.5022C42 38.5022 43.44 38.9022 44.64 39.7022C45.8134 40.4755 46.4 41.6222 46.4 43.1422C46.4 44.6356 45.9067 46.3822 44.92 48.3822C43.9067 50.3822 43.4 51.8222 43.4 52.7022C43.4 54.2755 44.2667 55.2489 46 55.6222L46 56.4222C43.9734 56.2622 42.0667 55.5156 40.28 54.1822C39.08 53.2756 37.04 51.3555 34.16 48.4222C33.3867 47.6489 32.4667 46.9556 31.4 46.3422C30.3334 45.7289 29.1867 45.4222 27.96 45.4222C26.7334 45.4222 25.68 45.7822 24.8 46.5022C23.92 47.2222 23.48 48.2889 23.48 49.7022C23.48 50.6089 23.6534 51.4356 24 52.1822C24.3467 52.9289 24.7467 53.3022 25.2 53.3022C25.6267 53.3022 25.9467 53.1289 26.16 52.7822C26.3734 52.4089 26.5467 52.0222 26.68 51.6222C26.7867 51.1956 27.0534 50.8089 27.48 50.4622C27.9067 50.0889 28.48 49.9022 29.2 49.9022C29.92 49.9022 30.5334 50.1689 31.04 50.7022C31.5467 51.2089 31.8 51.9155 31.8 52.8222C31.8 53.7289 31.4667 54.4755 30.8 55.0622C30.1334 55.6489 29.28 55.9422 28.24 55.9422C26.6134 55.9422 25.2534 55.2489 24.16 53.8622C23.0667 52.4489 22.52 50.4889 22.52 47.9822C22.52 45.4489 23.0667 43.3022 24.16 41.5422C25.2534 39.7822 26.76 38.9022 28.68 38.9022C30.2533 38.9022 31.5867 39.2755 32.68 40.0222C33.7734 40.7422 34.6 41.6755 35.16 42.8222C35.72 43.9422 36.2134 45.1022 36.64 46.3022C37.04 47.4756 37.52 48.6355 38.08 49.7822C38.6133 50.9022 39.24 51.7022 39.96 52.1822C39.4267 51.5422 39.16 50.7155 39.16 49.7022C39.16 48.6889 39.3334 47.5422 39.68 46.2622C40.0267 44.9555 40.2 43.9289 40.2 43.1822C40.2 42.4355 40.16 41.8222 40.08 41.3422C40 40.8622 39.7734 40.4089 39.4 39.9822C39.0267 39.5556 38.4934 39.3022 37.8 39.2222L37.8 38.8222C38.6533 38.6089 39.4934 38.5022 40.32 38.5022Z" fill="white"/>
</svg>
