<svg width="70" height="110" viewBox="0 0 70 110" fill="none" xmlns="http://www.w3.org/2000/svg">
<rect x="1" y="1" width="68" height="108" fill="#2B2B2B" stroke="white" stroke-width="2"/>
<path d="M21.52 63.5916C21.52 57.5116 23.36 54.4716 27.04 54.4716C28.5067 54.4716 29.7467 55.0582 30.76 56.2316C31.7734 57.3782 32.3334 59.0316 32.44 61.1916C32.4667 58.7649 33.0134 56.8049 34.08 55.3116C35.1467 53.7916 36.6 53.0316 38.44 53.0316C40.7067 53.0316 42.48 53.9516 43.76 55.7916C45.0134 57.6049 45.64 60.1782 45.64 63.5116C45.64 65.8316 45.1334 67.6449 44.12 68.9516C43.08 70.2316 41.7067 70.8716 40 70.8716C38.9334 70.8716 38.0667 70.5916 37.4 70.0316C36.7334 69.4449 36.4 68.6849 36.4 67.7516C36.4 66.8182 36.6534 66.0982 37.16 65.5916C37.6667 65.0582 38.2934 64.7916 39.04 64.7916C39.76 64.7916 40.3334 64.9916 40.76 65.3916C41.1867 65.7916 41.4534 66.2316 41.56 66.7116C41.8534 67.9649 42.28 68.5916 42.84 68.5916C43.3734 68.5916 43.8134 68.2182 44.16 67.4716C44.5067 66.6982 44.68 65.8182 44.68 64.8316C44.68 63.2849 44.12 62.0316 43 61.0716C41.88 60.1116 40.3734 59.6316 38.48 59.6316C36.56 59.6316 35.1467 60.0582 34.24 60.9116C33.3334 61.7382 32.88 63.2582 32.88 65.4716L32.88 66.1116L32.08 66.1116L32.08 65.4716C32.08 63.7649 31.5734 62.5382 30.56 61.7916C29.52 61.0449 28.3467 60.6716 27.04 60.6716C25.7334 60.6716 24.64 61.0449 23.76 61.7916C22.88 62.5382 22.44 63.4849 22.44 64.6316C22.44 65.7782 22.6267 66.6449 23 67.2316C23.3734 67.8182 23.7734 68.1116 24.2 68.1116C24.6 68.1116 24.8934 67.9516 25.08 67.6316C25.2667 67.2849 25.4134 66.9116 25.52 66.5116C25.6 66.0849 25.8267 65.7116 26.2 65.3916C26.5734 65.0449 27.08 64.8716 27.72 64.8716C28.36 64.8716 28.9067 65.0982 29.36 65.5516C29.8134 66.0049 30.04 66.6449 30.04 67.4716C30.04 68.2982 29.7467 68.9782 29.16 69.5116C28.5734 70.0449 27.7734 70.3116 26.76 70.3116C25.2934 70.3116 24.0534 69.7116 23.04 68.5116C22.0267 67.2849 21.52 65.6449 21.52 63.5916Z" fill="white"/>
<path d="M44.2 40.3369L44.2 37.5369L45 37.5369L45 49.5369L44.2 49.5369L44.2 46.3369L24.96 46.3369L26.2 49.5769L25.44 49.8169L21.72 41.7769L21.72 40.3369L44.2 40.3369Z" fill="white"/>
</svg>
