<svg width="70" height="110" viewBox="0 0 70 110" fill="none" xmlns="http://www.w3.org/2000/svg">
<rect x="1" y="1" width="68" height="108" fill="#D81616" stroke="white" stroke-width="2"/>
<path d="M22.48 55.0905C22.48 48.2105 26.4266 44.7705 34.32 44.7705C38.1333 44.7705 41.12 45.7438 43.28 47.6905C45.4133 49.6105 46.48 52.4238 46.48 56.1305C46.48 57.4905 46.1466 58.8638 45.48 60.2505C44.7866 61.6105 43.7733 62.5038 42.44 62.9305C41.48 63.3038 40.56 63.3705 39.68 63.1305C38.8 62.8905 38.2 62.3705 37.88 61.5705C37.5333 60.7705 37.48 60.0238 37.72 59.3305C37.9333 58.6372 38.36 58.1438 39 57.8505C40.04 57.4772 40.8 57.4638 41.28 57.8105C41.7333 58.1305 42.2266 58.5438 42.76 59.0505C43.2666 59.5305 43.7333 59.7172 44.16 59.6105C44.56 59.4772 44.8933 59.0505 45.16 58.3305C45.4 57.6105 45.52 56.9305 45.52 56.2905C45.52 55.6505 45.4666 55.1172 45.36 54.6905C45.2266 54.2372 45.0933 53.8505 44.96 53.5305C44.8 53.1838 44.5466 52.8905 44.2 52.6505C43.8266 52.3838 43.52 52.1705 43.28 52.0105C43.0133 51.8238 42.6 51.6772 42.04 51.5705C41.4533 51.4638 41 51.3838 40.68 51.3305C40.3333 51.2505 39.7866 51.1972 39.04 51.1705C38.2666 51.1438 37.7066 51.1305 37.36 51.1305L34.68 51.1305C35.7466 52.3838 36.28 54.1038 36.28 56.2905C36.28 58.4772 35.7333 60.3172 34.64 61.8105C33.52 63.2772 31.88 64.0105 29.72 64.0105C27.56 64.0105 25.8133 63.2372 24.48 61.6905C23.1466 60.1172 22.48 57.9172 22.48 55.0905ZM29.52 58.4105C31.2 58.4105 32.5333 58.0905 33.52 57.4505C34.5066 56.7838 35 55.8238 35 54.5705C35 53.3172 34.52 52.1705 33.56 51.1305C29.9866 51.1572 27.3866 51.5038 25.76 52.1705C24.1066 52.8105 23.28 53.7972 23.28 55.1305C23.28 57.3172 25.36 58.4105 29.52 58.4105Z" fill="white"/>
</svg>
