<svg width="140" height="110" viewBox="0 0 140 110" fill="none" xmlns="http://www.w3.org/2000/svg">
<rect x="1" y="1" width="138" height="108" stroke="white" stroke-width="2"/>
<path d="M36.8732 65.28H39.3932V66H28.5932V65.28H31.4732V47.964L28.5572 49.08L28.3412 48.396L35.5772 45.048H36.8732V65.28Z" fill="white"/>
<path d="M53.3899 50.16V58.944C53.3899 61.008 53.4739 62.268 53.6419 62.724C53.8099 63.156 53.9899 63.528 54.1819 63.84C54.5419 64.464 55.1659 64.776 56.0539 64.776C56.9659 64.776 57.6019 64.656 57.9619 64.416V65.136C56.8099 65.952 55.5499 66.36 54.1819 66.36C52.1659 66.36 50.6299 65.88 49.5739 64.92C48.5179 63.96 47.9899 62.244 47.9899 59.772V50.16H45.3259V49.44H47.9899C49.1419 49.248 50.1619 48.696 51.0499 47.784C51.9379 46.848 52.5499 45.564 52.8859 43.932H53.3899V49.44H57.5659V50.16H53.3899Z" fill="white"/>
<path d="M64.2737 63.84C64.8017 65.04 65.7137 65.64 67.0097 65.64C68.3057 65.64 69.2297 65.028 69.7817 63.804C70.3337 62.58 70.6097 60.564 70.6097 57.756C70.6097 54.924 70.3337 52.896 69.7817 51.672C69.2297 50.424 68.3057 49.8 67.0097 49.8C65.7137 49.8 64.8017 50.424 64.2737 51.672C63.7457 52.896 63.4817 54.924 63.4817 57.756C63.4817 60.588 63.7457 62.616 64.2737 63.84ZM66.9377 66.36C64.6577 66.36 62.5937 65.616 60.7457 64.128C58.8977 62.64 57.9737 60.528 57.9737 57.792C57.9737 56.328 58.2377 55.02 58.7657 53.868C59.3177 52.716 60.0377 51.804 60.9257 51.132C61.8377 50.46 62.8097 49.956 63.8417 49.62C64.8737 49.26 65.9297 49.08 67.0097 49.08C68.0897 49.08 69.1457 49.26 70.1777 49.62C71.2337 49.956 72.2057 50.46 73.0937 51.132C74.0057 51.804 74.7377 52.716 75.2897 53.868C75.8417 55.02 76.1177 56.316 76.1177 57.756C76.1177 59.196 75.8417 60.48 75.2897 61.608C74.7377 62.736 74.0057 63.636 73.0937 64.308C71.2697 65.676 69.2177 66.36 66.9377 66.36Z" fill="white"/>
<path d="M92.0404 65.28H94.5604V66H83.7604V65.28H86.6404V47.964L83.7244 49.08L83.5084 48.396L90.7444 45.048H92.0404V65.28Z" fill="white"/>
<path d="M112.199 60.492C112.199 62.244 111.383 63.672 109.751 64.776C108.143 65.88 106.163 66.432 103.811 66.432C101.483 66.432 99.4787 66.012 97.7987 65.172C96.1187 64.308 95.2787 62.892 95.2787 60.924C95.2787 59.748 95.6987 58.704 96.5387 57.792C97.3787 56.88 98.5067 56.22 99.9227 55.812C97.8827 54.108 96.8627 52.248 96.8627 50.232C96.8627 48.744 97.4507 47.484 98.6267 46.452C99.8027 45.42 101.507 44.904 103.739 44.904C105.995 44.904 107.819 45.36 109.211 46.272C110.627 47.16 111.335 48.24 111.335 49.512C111.335 51.576 110.003 53.028 107.339 53.868C110.579 56.004 112.199 58.212 112.199 60.492ZM107.267 49.44C107.267 48.336 106.883 47.424 106.115 46.704C105.371 45.984 104.483 45.624 103.451 45.624C102.419 45.624 101.627 45.852 101.075 46.308C100.547 46.74 100.283 47.352 100.283 48.144C100.283 48.84 100.727 49.536 101.615 50.232C102.383 50.832 103.295 51.444 104.351 52.068C105.431 52.692 106.163 53.124 106.547 53.364C107.027 52.476 107.267 51.168 107.267 49.44ZM99.7067 61.104C99.7067 62.472 100.187 63.588 101.147 64.452C102.131 65.292 103.163 65.712 104.243 65.712C105.347 65.712 106.235 65.412 106.907 64.812C107.603 64.212 107.951 63.408 107.951 62.4C107.951 61.776 107.627 61.176 106.979 60.6C106.355 60.024 105.323 59.304 103.883 58.44C102.443 57.576 101.411 56.916 100.787 56.46C100.067 58.188 99.7067 59.736 99.7067 61.104Z" fill="white"/>
</svg>
