<svg width="70" height="110" viewBox="0 0 70 110" fill="none" xmlns="http://www.w3.org/2000/svg">
<rect x="1" y="1" width="68" height="108" fill="#2B2B2B" stroke="white" stroke-width="2"/>
<path d="M45.2 62.3096L45.2 59.5095L46 59.5095L46 71.5096L45.2 71.5096L45.2 68.3096L25.96 68.3096L27.2 71.5496L26.44 71.7896L22.72 63.7495L22.72 62.3096L45.2 62.3096Z" fill="white"/>
<path d="M34.56 37.0314C38.16 37.0314 41.0533 37.9248 43.24 39.7114C45.4 41.4981 46.48 43.9114 46.48 46.9514C46.48 49.9648 45.4 52.3514 43.24 54.1114C41.08 55.8448 38.0267 56.7114 34.08 56.7114C30.8267 56.7114 28.0934 55.8448 25.88 54.1114C23.64 52.3514 22.52 49.9248 22.52 46.8314C22.52 43.7114 23.6267 41.2981 25.84 39.5914C28.0267 37.8848 30.9333 37.0314 34.56 37.0314ZM34.08 42.9914C26.9067 42.9914 23.32 44.2848 23.32 46.8714C23.32 49.4581 26.9067 50.7514 34.08 50.7514C37.92 50.7514 40.8133 50.4714 42.76 49.9114C44.7067 49.3514 45.68 48.3248 45.68 46.8314C45.68 45.3381 44.72 44.3248 42.8 43.7914C40.88 43.2581 37.9734 42.9914 34.08 42.9914Z" fill="white"/>
</svg>
