<svg width="70" height="110" viewBox="0 0 70 110" fill="none" xmlns="http://www.w3.org/2000/svg">
<rect x="1" y="1" width="68" height="108" fill="#D81616" stroke="white" stroke-width="2"/>
<path d="M45.2 61.6789L45.2 58.8789L46 58.8789L46 70.8789L45.2 70.8789L45.2 67.6789L25.96 67.6789L27.2 70.9189L26.44 71.1589L22.72 63.1189L22.72 61.6789L45.2 61.6789Z" fill="white"/>
<path d="M36.84 38.9608L36.84 38.0408L43 38.0408L43 38.9608L40.28 38.9608L40.28 41.9208L45.2 41.9208L45.2 39.3208L46 39.3208L46 50.5208L45.2 50.5208L45.2 47.9208L40.28 47.9208L40.28 57.2808L39.48 57.2808L22.72 45.9208L22.72 41.9208L39.48 41.9208L39.48 38.9608L36.84 38.9608ZM39.48 47.9208L27.12 47.9208L39.48 56.2408L39.48 47.9208Z" fill="white"/>
</svg>
