<svg width="70" height="110" viewBox="0 0 70 110" fill="none" xmlns="http://www.w3.org/2000/svg">
<rect x="1" y="1" width="68" height="108" fill="#2B2B2B" stroke="white" stroke-width="2"/>
<path d="M39.32 56.418C41 56.418 42.44 56.818 43.64 57.618C44.8134 58.3913 45.4 59.538 45.4 61.058C45.4 62.5513 44.9067 64.298 43.92 66.298C42.9067 68.298 42.4 69.738 42.4 70.618C42.4 72.1913 43.2667 73.1647 45 73.538L45 74.338C42.9734 74.178 41.0667 73.4313 39.28 72.098C38.08 71.1913 36.04 69.2713 33.16 66.338C32.3867 65.5647 31.4667 64.8713 30.4 64.258C29.3334 63.6447 28.1867 63.338 26.96 63.338C25.7334 63.338 24.68 63.698 23.8 64.418C22.92 65.138 22.48 66.2047 22.48 67.618C22.48 68.5247 22.6534 69.3513 23 70.098C23.3467 70.8447 23.7467 71.218 24.2 71.218C24.6267 71.218 24.9467 71.0447 25.16 70.698C25.3734 70.3247 25.5467 69.938 25.68 69.538C25.7867 69.1113 26.0534 68.7247 26.48 68.378C26.9067 68.0047 27.48 67.818 28.2 67.818C28.92 67.818 29.5334 68.0847 30.04 68.618C30.5467 69.1247 30.8 69.8313 30.8 70.738C30.8 71.6447 30.4667 72.3913 29.8 72.978C29.1334 73.5647 28.28 73.858 27.24 73.858C25.6134 73.858 24.2534 73.1647 23.16 71.778C22.0667 70.3647 21.52 68.4047 21.52 65.898C21.52 63.3647 22.0667 61.218 23.16 59.458C24.2534 57.698 25.76 56.818 27.68 56.818C29.2534 56.818 30.5867 57.1913 31.68 57.938C32.7734 58.658 33.6 59.5913 34.16 60.738C34.72 61.858 35.2134 63.018 35.64 64.218C36.04 65.3913 36.52 66.5513 37.08 67.698C37.6133 68.818 38.24 69.618 38.96 70.098C38.4267 69.458 38.16 68.6313 38.16 67.618C38.16 66.6047 38.3334 65.458 38.68 64.178C39.0267 62.8713 39.2 61.8447 39.2 61.098C39.2 60.3513 39.16 59.738 39.08 59.258C39 58.778 38.7734 58.3247 38.4 57.898C38.0267 57.4713 37.4934 57.218 36.8 57.138L36.8 56.738C37.6534 56.5247 38.4934 56.418 39.32 56.418Z" fill="white"/>
<path d="M39.32 35.2852C41 35.2852 42.44 35.6852 43.64 36.4852C44.8134 37.2585 45.4 38.4052 45.4 39.9252C45.4 41.4185 44.9067 43.1652 43.92 45.1652C42.9067 47.1652 42.4 48.6052 42.4 49.4852C42.4 51.0585 43.2667 52.0319 45 52.4052L45 53.2052C42.9734 53.0452 41.0667 52.2985 39.28 50.9652C38.08 50.0585 36.04 48.1385 33.16 45.2052C32.3867 44.4319 31.4667 43.7385 30.4 43.1252C29.3334 42.5119 28.1867 42.2052 26.96 42.2052C25.7334 42.2052 24.68 42.5652 23.8 43.2852C22.92 44.0052 22.48 45.0719 22.48 46.4852C22.48 47.3919 22.6534 48.2185 23 48.9652C23.3467 49.7119 23.7467 50.0852 24.2 50.0852C24.6267 50.0852 24.9467 49.9119 25.16 49.5652C25.3734 49.1919 25.5467 48.8052 25.68 48.4052C25.7867 47.9785 26.0534 47.5919 26.48 47.2452C26.9067 46.8719 27.48 46.6852 28.2 46.6852C28.92 46.6852 29.5334 46.9519 30.04 47.4852C30.5467 47.9919 30.8 48.6985 30.8 49.6052C30.8 50.5119 30.4667 51.2585 29.8 51.8452C29.1334 52.4319 28.28 52.7252 27.24 52.7252C25.6134 52.7252 24.2534 52.0319 23.16 50.6452C22.0667 49.2319 21.52 47.2719 21.52 44.7652C21.52 42.2319 22.0667 40.0852 23.16 38.3252C24.2534 36.5652 25.76 35.6852 27.68 35.6852C29.2533 35.6852 30.5867 36.0585 31.68 36.8052C32.7734 37.5252 33.6 38.4585 34.16 39.6052C34.72 40.7252 35.2134 41.8852 35.64 43.0852C36.04 44.2585 36.52 45.4185 37.08 46.5652C37.6133 47.6852 38.24 48.4852 38.96 48.9652C38.4267 48.3252 38.16 47.4985 38.16 46.4852C38.16 45.4719 38.3334 44.3252 38.68 43.0452C39.0267 41.7385 39.2 40.7119 39.2 39.9652C39.2 39.2185 39.16 38.6052 39.08 38.1252C39 37.6452 38.7734 37.1919 38.4 36.7652C38.0267 36.3385 37.4934 36.0852 36.8 36.0052L36.8 35.6052C37.6533 35.3919 38.4934 35.2852 39.32 35.2852Z" fill="white"/>
</svg>
