<svg width="70" height="110" viewBox="0 0 70 110" fill="none" xmlns="http://www.w3.org/2000/svg">
<rect x="1" y="1" width="68" height="108" fill="#2B2B2B" stroke="white" stroke-width="2"/>
<path d="M40.32 46.0412C42 46.0412 43.44 46.4412 44.64 47.2412C45.8134 48.0145 46.4 49.1612 46.4 50.6812C46.4 52.1745 45.9067 53.9212 44.92 55.9212C43.9067 57.9212 43.4 59.3612 43.4 60.2412C43.4 61.8145 44.2667 62.7878 46 63.1612L46 63.9612C43.9734 63.8012 42.0667 63.0545 40.28 61.7212C39.08 60.8145 37.04 58.8945 34.16 55.9612C33.3867 55.1878 32.4667 54.4945 31.4 53.8812C30.3334 53.2678 29.1867 52.9612 27.96 52.9612C26.7334 52.9612 25.68 53.3212 24.8 54.0412C23.92 54.7612 23.48 55.8278 23.48 57.2412C23.48 58.1478 23.6534 58.9745 24 59.7212C24.3467 60.4678 24.7467 60.8412 25.2 60.8412C25.6267 60.8412 25.9467 60.6678 26.16 60.3212C26.3734 59.9478 26.5467 59.5612 26.68 59.1612C26.7867 58.7345 27.0534 58.3478 27.48 58.0012C27.9067 57.6278 28.48 57.4412 29.2 57.4412C29.92 57.4412 30.5334 57.7078 31.04 58.2412C31.5467 58.7478 31.8 59.4545 31.8 60.3612C31.8 61.2678 31.4667 62.0145 30.8 62.6012C30.1334 63.1878 29.28 63.4812 28.24 63.4812C26.6134 63.4812 25.2534 62.7878 24.16 61.4012C23.0667 59.9878 22.52 58.0278 22.52 55.5212C22.52 52.9878 23.0667 50.8412 24.16 49.0812C25.2534 47.3212 26.76 46.4412 28.68 46.4412C30.2534 46.4412 31.5867 46.8145 32.68 47.5612C33.7734 48.2812 34.6 49.2145 35.16 50.3612C35.72 51.4812 36.2134 52.6412 36.64 53.8412C37.04 55.0145 37.52 56.1745 38.08 57.3212C38.6133 58.4412 39.24 59.2412 39.96 59.7212C39.4267 59.0812 39.16 58.2545 39.16 57.2412C39.16 56.2278 39.3334 55.0812 39.68 53.8012C40.0267 52.4945 40.2 51.4678 40.2 50.7212C40.2 49.9745 40.16 49.3612 40.08 48.8812C40 48.4012 39.7734 47.9478 39.4 47.5212C39.0267 47.0945 38.4934 46.8412 37.8 46.7612L37.8 46.3612C38.6534 46.1478 39.4934 46.0412 40.32 46.0412Z" fill="white"/>
</svg>
