<svg width="70" height="110" viewBox="0 0 70 110" fill="none" xmlns="http://www.w3.org/2000/svg">
<rect x="1" y="1" width="68" height="108" stroke="white" stroke-width="2"/>
<path d="M38.888 78.6751C40.4 78.6751 41.696 79.0351 42.776 79.7551C43.832 80.4511 44.36 81.4831 44.36 82.8511C44.36 84.1951 43.916 85.7671 43.028 87.5671C42.116 89.3671 41.66 90.6631 41.66 91.4551C41.66 92.8711 42.44 93.7471 44 94.0831L44 94.8031C42.176 94.6591 40.46 93.9871 38.852 92.7871C37.772 91.9711 35.936 90.2431 33.344 87.6031C32.648 86.9071 31.82 86.2831 30.86 85.7311C29.9 85.1791 28.868 84.9031 27.764 84.9031C26.66 84.9031 25.712 85.2271 24.92 85.8751C24.128 86.5231 23.732 87.4831 23.732 88.7551C23.732 89.5711 23.888 90.3151 24.2 90.9871C24.512 91.6591 24.872 91.9951 25.28 91.9951C25.664 91.9951 25.952 91.8391 26.144 91.5271C26.336 91.1911 26.492 90.8431 26.612 90.4831C26.708 90.0991 26.948 89.7511 27.332 89.4391C27.716 89.1031 28.232 88.9351 28.88 88.9351C29.528 88.9351 30.08 89.1751 30.536 89.6551C30.992 90.1111 31.22 90.7471 31.22 91.5631C31.22 92.3791 30.92 93.0511 30.32 93.5791C29.72 94.1071 28.952 94.3711 28.016 94.3711C26.552 94.3711 25.328 93.7471 24.344 92.4991C23.36 91.2271 22.868 89.4631 22.868 87.2071C22.868 84.9271 23.36 82.9951 24.344 81.4111C25.328 79.8271 26.684 79.0351 28.412 79.0351C29.828 79.0351 31.028 79.3711 32.012 80.0431C32.996 80.6911 33.74 81.5311 34.244 82.5631C34.748 83.5711 35.192 84.6151 35.576 85.6951C35.936 86.7511 36.368 87.7951 36.872 88.8271C37.352 89.8351 37.916 90.5551 38.564 90.9871C38.084 90.4111 37.844 89.6671 37.844 88.7551C37.844 87.8431 38 86.8111 38.312 85.6591C38.624 84.4831 38.78 83.5591 38.78 82.8871C38.78 82.2151 38.744 81.6631 38.672 81.2311C38.6 80.7991 38.396 80.3911 38.06 80.0071C37.724 79.6231 37.244 79.3951 36.62 79.3231L36.62 78.9631C37.388 78.7711 38.144 78.6751 38.888 78.6751Z" fill="white"/>
<path d="M28.16 61.0652L36.944 61.0652C39.008 61.0652 40.268 60.9812 40.724 60.8132C41.156 60.6452 41.528 60.4652 41.84 60.2732C42.464 59.9132 42.776 59.2892 42.776 58.4012C42.776 57.4892 42.656 56.8532 42.416 56.4932L43.136 56.4932C43.952 57.6452 44.36 58.9052 44.36 60.2732C44.36 62.2892 43.88 63.8252 42.92 64.8812C41.96 65.9372 40.244 66.4652 37.772 66.4652L28.16 66.4652L28.16 69.1292L27.44 69.1292L27.44 66.4652C27.248 65.3132 26.696 64.2932 25.784 63.4052C24.848 62.5172 23.564 61.9052 21.932 61.5692L21.932 61.0652L27.44 61.0652L27.44 56.8892L28.16 56.8892L28.16 61.0652Z" fill="white"/>
<path d="M41.84 48.7414C43.04 48.2134 43.64 47.3014 43.64 46.0054C43.64 44.7094 43.028 43.7854 41.804 43.2334C40.58 42.6814 38.564 42.4054 35.756 42.4054C32.924 42.4054 30.896 42.6814 29.672 43.2334C28.424 43.7854 27.8 44.7094 27.8 46.0054C27.8 47.3014 28.424 48.2134 29.672 48.7414C30.896 49.2694 32.924 49.5334 35.756 49.5334C38.588 49.5334 40.616 49.2694 41.84 48.7414ZM44.36 46.0774C44.36 48.3574 43.616 50.4214 42.128 52.2694C40.64 54.1174 38.528 55.0414 35.792 55.0414C34.328 55.0414 33.02 54.7774 31.868 54.2494C30.716 53.6974 29.804 52.9774 29.132 52.0894C28.46 51.1774 27.956 50.2054 27.62 49.1734C27.26 48.1414 27.08 47.0854 27.08 46.0054C27.08 44.9254 27.26 43.8694 27.62 42.8374C27.956 41.7814 28.46 40.8094 29.132 39.9214C29.804 39.0094 30.716 38.2774 31.868 37.7254C33.02 37.1734 34.316 36.8974 35.756 36.8974C37.196 36.8974 38.48 37.1734 39.608 37.7254C40.736 38.2774 41.636 39.0094 42.308 39.9214C43.676 41.7454 44.36 43.7974 44.36 46.0774Z" fill="white"/>
<path d="M43.28 18.0947L43.28 15.5747L44 15.5747L44 26.3747L43.28 26.3747L43.28 23.4947L25.964 23.4947L27.08 26.4107L26.396 26.6267L23.048 19.3907L23.048 18.0947L43.28 18.0947Z" fill="white"/>
</svg>
