<svg width="70" height="110" viewBox="0 0 70 110" fill="none" xmlns="http://www.w3.org/2000/svg">
<rect x="1" y="1" width="68" height="108" fill="#2B2B2B" stroke="white" stroke-width="2"/>
<path d="M39.32 56.4571C41 56.4571 42.44 56.8571 43.64 57.6571C44.8134 58.4304 45.4 59.5771 45.4 61.0971C45.4 62.5904 44.9067 64.3371 43.92 66.3371C42.9067 68.3371 42.4 69.7771 42.4 70.6571C42.4 72.2304 43.2667 73.2037 45 73.5771L45 74.3771C42.9734 74.2171 41.0667 73.4704 39.28 72.1371C38.08 71.2304 36.04 69.3104 33.16 66.3771C32.3867 65.6037 31.4667 64.9104 30.4 64.2971C29.3334 63.6837 28.1867 63.3771 26.96 63.3771C25.7334 63.3771 24.68 63.7371 23.8 64.4571C22.92 65.1771 22.48 66.2437 22.48 67.6571C22.48 68.5637 22.6534 69.3904 23 70.1371C23.3467 70.8837 23.7467 71.2571 24.2 71.2571C24.6267 71.2571 24.9467 71.0837 25.16 70.7371C25.3734 70.3637 25.5467 69.9771 25.68 69.5771C25.7867 69.1504 26.0534 68.7637 26.48 68.4171C26.9067 68.0437 27.48 67.8571 28.2 67.8571C28.92 67.8571 29.5334 68.1237 30.04 68.6571C30.5467 69.1637 30.8 69.8704 30.8 70.7771C30.8 71.6837 30.4667 72.4304 29.8 73.0171C29.1334 73.6037 28.28 73.8971 27.24 73.8971C25.6134 73.8971 24.2534 73.2037 23.16 71.8171C22.0667 70.4037 21.52 68.4437 21.52 65.9371C21.52 63.4037 22.0667 61.2571 23.16 59.4971C24.2534 57.7371 25.76 56.8571 27.68 56.8571C29.2534 56.8571 30.5867 57.2304 31.68 57.9771C32.7734 58.6971 33.6 59.6304 34.16 60.7771C34.72 61.8971 35.2134 63.0571 35.64 64.2571C36.04 65.4304 36.52 66.5904 37.08 67.7371C37.6133 68.8571 38.24 69.6571 38.96 70.1371C38.4267 69.4971 38.16 68.6704 38.16 67.6571C38.16 66.6437 38.3334 65.4971 38.68 64.2171C39.0267 62.9104 39.2 61.8837 39.2 61.1371C39.2 60.3904 39.16 59.7771 39.08 59.2971C39 58.8171 38.7734 58.3637 38.4 57.9371C38.0267 57.5104 37.4934 57.2571 36.8 57.1771L36.8 56.7771C37.6534 56.5637 38.4934 56.4571 39.32 56.4571Z" fill="white"/>
<path d="M38.88 34.4443C40.8267 34.4443 42.4133 35.3509 43.64 37.1643C44.8667 38.9509 45.48 41.1509 45.48 43.7643C45.48 46.3509 45.0134 48.5776 44.08 50.4443C43.12 52.3109 41.5467 53.2443 39.36 53.2443C38.0534 53.2443 36.8934 52.7776 35.88 51.8443C34.8667 50.9109 34.1334 49.6576 33.68 48.0843C31.7867 50.3509 29.72 51.4843 27.48 51.4843C25.8267 51.4843 24.4267 50.8309 23.28 49.5243C22.1334 48.2176 21.56 46.3243 21.56 43.8443C21.56 41.3376 22.0667 39.3109 23.08 37.7643C24.0667 36.1909 25.2667 35.4043 26.68 35.4043C28.9733 35.4043 30.5867 36.8843 31.52 39.8443C33.8934 36.2443 36.3467 34.4443 38.88 34.4443ZM26.6 39.9243C25.3734 39.9243 24.36 40.3509 23.56 41.2043C22.76 42.0309 22.36 43.0176 22.36 44.1643C22.36 45.3109 22.6134 46.1909 23.12 46.8043C23.6 47.3909 24.28 47.6843 25.16 47.6843C25.9334 47.6843 26.7067 47.1909 27.48 46.2043C28.1467 45.3509 28.8267 44.3376 29.52 43.1643C30.2133 41.9643 30.6933 41.1509 30.96 40.7243C29.9733 40.1909 28.52 39.9243 26.6 39.9243ZM39.56 48.3243C41.08 48.3243 42.32 47.7909 43.28 46.7243C44.2133 45.6309 44.68 44.4843 44.68 43.2843C44.68 42.0576 44.3467 41.0709 43.68 40.3243C43.0134 39.5509 42.12 39.1643 41 39.1643C40.3067 39.1643 39.64 39.5243 39 40.2443C38.36 40.9376 37.56 42.0843 36.6 43.6843C35.64 45.2843 34.9067 46.4309 34.4 47.1243C36.32 47.9243 38.04 48.3243 39.56 48.3243Z" fill="white"/>
</svg>
