<svg width="280" height="110" viewBox="0 0 280 110" fill="none" xmlns="http://www.w3.org/2000/svg">
<rect x="1" y="1" width="278" height="108" stroke="white" stroke-width="2"/>
<path d="M102.218 44.868C107.69 44.868 110.426 46.524 110.426 49.836C110.426 51.156 109.898 52.272 108.842 53.184C107.81 54.096 106.322 54.6 104.378 54.696C106.562 54.72 108.326 55.212 109.67 56.172C111.038 57.132 111.722 58.44 111.722 60.096C111.722 62.136 110.894 63.732 109.238 64.884C107.606 66.012 105.29 66.576 102.29 66.576C100.202 66.576 98.5703 66.12 97.3943 65.208C96.2423 64.272 95.6663 63.036 95.6663 61.5C95.6663 60.54 95.9183 59.76 96.4223 59.16C96.9503 58.56 97.6343 58.26 98.4743 58.26C99.3143 58.26 99.9623 58.488 100.418 58.944C100.898 59.4 101.138 59.964 101.138 60.636C101.138 61.284 100.958 61.8 100.598 62.184C100.238 62.568 99.8423 62.808 99.4103 62.904C98.2823 63.168 97.7183 63.552 97.7183 64.056C97.7183 64.536 98.0543 64.932 98.7263 65.244C99.4223 65.556 100.214 65.712 101.102 65.712C102.494 65.712 103.622 65.208 104.486 64.2C105.35 63.192 105.782 61.836 105.782 60.132C105.782 58.404 105.398 57.132 104.63 56.316C103.886 55.5 102.518 55.092 100.526 55.092H99.9503V54.372H100.526C102.062 54.372 103.166 53.916 103.838 53.004C104.51 52.068 104.846 51.012 104.846 49.836C104.846 48.66 104.51 47.676 103.838 46.884C103.166 46.092 102.314 45.696 101.282 45.696C100.25 45.696 99.4703 45.864 98.9423 46.2C98.4143 46.536 98.1503 46.896 98.1503 47.28C98.1503 47.64 98.2943 47.904 98.5823 48.072C98.8943 48.24 99.2303 48.372 99.5903 48.468C99.9743 48.54 100.31 48.744 100.598 49.08C100.91 49.416 101.066 49.872 101.066 50.448C101.066 51.024 100.862 51.516 100.454 51.924C100.046 52.332 99.4703 52.536 98.7263 52.536C97.9823 52.536 97.3703 52.272 96.8903 51.744C96.4103 51.216 96.1703 50.496 96.1703 49.584C96.1703 48.264 96.7103 47.148 97.7903 46.236C98.8943 45.324 100.37 44.868 102.218 44.868Z" fill="white"/>
<path d="M122.175 66H113.175V65.28H114.975V50.16H113.175V49.44H120.375V53.724C120.591 52.548 120.975 51.588 121.527 50.844C122.103 50.1 122.727 49.608 123.399 49.368C124.095 49.128 124.755 49.008 125.379 49.008C126.027 49.008 126.639 49.128 127.215 49.368C127.815 49.584 128.259 50.04 128.547 50.736C128.835 51.408 128.847 52.092 128.583 52.788C128.319 53.46 127.851 53.94 127.179 54.228C126.531 54.516 125.931 54.552 125.379 54.336C124.827 54.12 124.431 53.832 124.191 53.472C123.951 53.088 123.783 52.728 123.687 52.392C123.447 51.504 123.123 51.06 122.715 51.06C122.259 51.06 121.755 51.852 121.203 53.436C120.651 54.996 120.375 56.652 120.375 58.404V65.28H122.175V66Z" fill="white"/>
<path d="M135.942 66.432C133.998 66.432 132.318 65.664 130.902 64.128C129.486 62.592 128.778 60.42 128.778 57.612C128.778 54.804 129.474 52.608 130.866 51.024C132.258 49.44 133.95 48.648 135.942 48.648C136.926 48.648 137.85 48.852 138.714 49.26C139.578 49.668 140.202 50.28 140.586 51.096V42.6H138.786V41.88H145.986V65.28H147.786V66H140.586V64.344C139.938 65.736 138.39 66.432 135.942 66.432ZM140.586 58.116V52.176C139.938 50.88 139.086 50.232 138.03 50.232C136.998 50.232 136.11 50.832 135.366 52.032C134.622 53.232 134.25 55.14 134.25 57.756C134.25 60.348 134.634 62.244 135.402 63.444C136.17 64.644 137.094 65.16 138.174 64.992C138.774 64.896 139.23 64.704 139.542 64.416C140.238 63.744 140.586 61.644 140.586 58.116Z" fill="white"/>
<path d="M163.688 65.28H166.208V66H155.408V65.28H158.288V47.964L155.372 49.08L155.156 48.396L162.392 45.048H163.688V65.28Z" fill="white"/>
<path d="M183.055 60.888C183.055 62.4 182.695 63.696 181.975 64.776C181.279 65.832 180.247 66.36 178.879 66.36C177.535 66.36 175.963 65.916 174.163 65.028C172.363 64.116 171.067 63.66 170.275 63.66C168.859 63.66 167.983 64.44 167.647 66H166.927C167.071 64.176 167.743 62.46 168.943 60.852C169.759 59.772 171.487 57.936 174.127 55.344C174.823 54.648 175.447 53.82 175.999 52.86C176.551 51.9 176.827 50.868 176.827 49.764C176.827 48.66 176.503 47.712 175.855 46.92C175.207 46.128 174.247 45.732 172.975 45.732C172.159 45.732 171.415 45.888 170.743 46.2C170.071 46.512 169.735 46.872 169.735 47.28C169.735 47.664 169.891 47.952 170.203 48.144C170.539 48.336 170.887 48.492 171.247 48.612C171.631 48.708 171.979 48.948 172.291 49.332C172.627 49.716 172.795 50.232 172.795 50.88C172.795 51.528 172.555 52.08 172.075 52.536C171.619 52.992 170.983 53.22 170.167 53.22C169.351 53.22 168.679 52.92 168.151 52.32C167.623 51.72 167.359 50.952 167.359 50.016C167.359 48.552 167.983 47.328 169.231 46.344C170.503 45.36 172.267 44.868 174.523 44.868C176.803 44.868 178.735 45.36 180.319 46.344C181.903 47.328 182.695 48.684 182.695 50.412C182.695 51.828 182.359 53.028 181.687 54.012C181.039 54.996 180.199 55.74 179.167 56.244C178.159 56.748 177.115 57.192 176.035 57.576C174.979 57.936 173.935 58.368 172.903 58.872C171.895 59.352 171.175 59.916 170.743 60.564C171.319 60.084 172.063 59.844 172.975 59.844C173.887 59.844 174.919 60 176.071 60.312C177.247 60.624 178.171 60.78 178.843 60.78C179.515 60.78 180.067 60.744 180.499 60.672C180.931 60.6 181.339 60.396 181.723 60.06C182.107 59.724 182.335 59.244 182.407 58.62H182.767C182.959 59.388 183.055 60.144 183.055 60.888Z" fill="white"/>
</svg>
