<svg width="70" height="110" viewBox="0 0 70 110" fill="none" xmlns="http://www.w3.org/2000/svg">
<rect x="1" y="1" width="68" height="108" fill="#D81616" stroke="white" stroke-width="2"/>
<path d="M21.52 67.6875C21.52 61.6075 23.36 58.5675 27.04 58.5675C28.5067 58.5675 29.7467 59.1542 30.76 60.3275C31.7734 61.4742 32.3334 63.1275 32.44 65.2875C32.4667 62.8609 33.0134 60.9009 34.08 59.4075C35.1467 57.8875 36.6 57.1275 38.44 57.1275C40.7067 57.1275 42.48 58.0475 43.76 59.8875C45.0134 61.7009 45.64 64.2742 45.64 67.6075C45.64 69.9275 45.1334 71.7409 44.12 73.0475C43.08 74.3275 41.7067 74.9675 40 74.9675C38.9334 74.9675 38.0667 74.6875 37.4 74.1275C36.7334 73.5409 36.4 72.7809 36.4 71.8475C36.4 70.9142 36.6534 70.1942 37.16 69.6875C37.6667 69.1542 38.2934 68.8875 39.04 68.8875C39.76 68.8875 40.3334 69.0875 40.76 69.4875C41.1867 69.8875 41.4534 70.3275 41.56 70.8075C41.8534 72.0609 42.28 72.6875 42.84 72.6875C43.3734 72.6875 43.8134 72.3142 44.16 71.5675C44.5067 70.7942 44.68 69.9142 44.68 68.9275C44.68 67.3809 44.12 66.1275 43 65.1675C41.88 64.2075 40.3734 63.7275 38.48 63.7275C36.56 63.7275 35.1467 64.1542 34.24 65.0075C33.3334 65.8342 32.88 67.3542 32.88 69.5675L32.88 70.2075L32.08 70.2075L32.08 69.5675C32.08 67.8609 31.5734 66.6342 30.56 65.8875C29.52 65.1409 28.3467 64.7675 27.04 64.7675C25.7334 64.7675 24.64 65.1409 23.76 65.8875C22.88 66.6342 22.44 67.5809 22.44 68.7275C22.44 69.8742 22.6267 70.7409 23 71.3275C23.3734 71.9142 23.7734 72.2075 24.2 72.2075C24.6 72.2075 24.8934 72.0475 25.08 71.7275C25.2667 71.3809 25.4134 71.0075 25.52 70.6075C25.6 70.1809 25.8267 69.8075 26.2 69.4875C26.5734 69.1409 27.08 68.9675 27.72 68.9675C28.36 68.9675 28.9067 69.1942 29.36 69.6475C29.8134 70.1009 30.04 70.7409 30.04 71.5675C30.04 72.3942 29.7467 73.0742 29.16 73.6075C28.5734 74.1409 27.7734 74.4075 26.76 74.4075C25.2934 74.4075 24.0534 73.8075 23.04 72.6075C22.0267 71.3809 21.52 69.7409 21.52 67.6875Z" fill="white"/>
<path d="M33.56 34.2328C37.16 34.2328 40.0533 35.1262 42.24 36.9128C44.4 38.6995 45.48 41.1128 45.48 44.1528C45.48 47.1662 44.4 49.5528 42.24 51.3128C40.08 53.0462 37.0267 53.9128 33.08 53.9128C29.8267 53.9128 27.0934 53.0462 24.88 51.3128C22.64 49.5528 21.52 47.1262 21.52 44.0328C21.52 40.9128 22.6267 38.4995 24.84 36.7928C27.0267 35.0862 29.9333 34.2328 33.56 34.2328ZM33.08 40.1928C25.9067 40.1928 22.32 41.4862 22.32 44.0728C22.32 46.6595 25.9067 47.9528 33.08 47.9528C36.92 47.9528 39.8133 47.6728 41.76 47.1128C43.7067 46.5528 44.68 45.5262 44.68 44.0328C44.68 42.5395 43.72 41.5262 41.8 40.9928C39.88 40.4595 36.9734 40.1928 33.08 40.1928Z" fill="white"/>
</svg>
