<svg width="70" height="110" viewBox="0 0 70 110" fill="none" xmlns="http://www.w3.org/2000/svg">
<rect x="1" y="1" width="68" height="108" fill="#D81616" stroke="white" stroke-width="2"/>
<path d="M45.2 61.8799L45.2 59.0799L46 59.0799L46 71.0799L45.2 71.0799L45.2 67.8799L25.96 67.8799L27.2 71.1199L26.44 71.3599L22.72 63.3199L22.72 61.8799L45.2 61.8799Z" fill="white"/>
<path d="M34.28 50.3217C33.2134 49.0684 32.68 47.3484 32.68 45.1617C32.68 42.9751 33.24 41.1484 34.36 39.6817C35.4534 38.1884 37.08 37.4417 39.24 37.4417C41.4 37.4417 43.1467 38.2284 44.48 39.8017C45.8134 41.3484 46.48 43.5351 46.48 46.3617C46.48 53.2417 42.5334 56.6817 34.64 56.6817C30.8267 56.6817 27.8534 55.7217 25.72 53.8017C23.56 51.8551 22.48 49.0284 22.48 45.3217C22.48 43.9617 22.8267 42.6017 23.52 41.2417C24.1867 39.8551 25.1867 38.9484 26.52 38.5217C27.48 38.1484 28.4 38.0817 29.28 38.3217C30.16 38.5617 30.7734 39.0817 31.12 39.8817C31.44 40.6817 31.4934 41.4284 31.28 42.1217C31.04 42.8151 30.6 43.3084 29.96 43.6017C28.92 43.9751 28.1734 44.0017 27.72 43.6817C27.24 43.3351 26.7467 42.9217 26.24 42.4417C25.7067 41.9351 25.24 41.7484 24.84 41.8817C24.4134 41.9884 24.08 42.4017 23.84 43.1217C23.5734 43.8417 23.44 44.5217 23.44 45.1617C23.44 45.8017 23.5067 46.3484 23.64 46.8017C23.7467 47.2284 23.88 47.6151 24.04 47.9617C24.1734 48.2817 24.4267 48.5751 24.8 48.8417C25.1467 49.0817 25.4534 49.2951 25.72 49.4817C25.96 49.6417 26.3734 49.7751 26.96 49.8817C27.52 49.9884 27.9734 50.0817 28.32 50.1617C28.64 50.2151 29.1867 50.2551 29.96 50.2817C30.7067 50.3084 31.2534 50.3217 31.6 50.3217L34.28 50.3217ZM45.68 46.3217C45.68 44.1351 43.6 43.0417 39.44 43.0417C37.76 43.0417 36.4267 43.3751 35.44 44.0417C34.4534 44.6817 33.96 45.6284 33.96 46.8817C33.96 48.1351 34.44 49.2817 35.4 50.3217C38.9734 50.2951 41.5867 49.9617 43.24 49.3217C44.8667 48.6551 45.68 47.6551 45.68 46.3217Z" fill="white"/>
</svg>
