<svg width="70" height="110" viewBox="0 0 70 110" fill="none" xmlns="http://www.w3.org/2000/svg">
<rect x="1" y="1" width="68" height="108" fill="#2B2B2B" stroke="white" stroke-width="2"/>
<path d="M39.32 57.4865C41 57.4865 42.44 57.8865 43.64 58.6865C44.8134 59.4598 45.4 60.6065 45.4 62.1265C45.4 63.6198 44.9067 65.3665 43.92 67.3665C42.9067 69.3665 42.4 70.8065 42.4 71.6865C42.4 73.2598 43.2667 74.2332 45 74.6065L45 75.4065C42.9734 75.2465 41.0667 74.4998 39.28 73.1665C38.08 72.2598 36.04 70.3398 33.16 67.4065C32.3867 66.6332 31.4667 65.9398 30.4 65.3265C29.3334 64.7132 28.1867 64.4065 26.96 64.4065C25.7334 64.4065 24.68 64.7665 23.8 65.4865C22.92 66.2065 22.48 67.2732 22.48 68.6865C22.48 69.5932 22.6534 70.4198 23 71.1665C23.3467 71.9132 23.7467 72.2865 24.2 72.2865C24.6267 72.2865 24.9467 72.1132 25.16 71.7665C25.3734 71.3932 25.5467 71.0065 25.68 70.6065C25.7867 70.1798 26.0534 69.7932 26.48 69.4465C26.9067 69.0732 27.48 68.8865 28.2 68.8865C28.92 68.8865 29.5334 69.1532 30.04 69.6865C30.5467 70.1932 30.8 70.8998 30.8 71.8065C30.8 72.7132 30.4667 73.4598 29.8 74.0465C29.1334 74.6332 28.28 74.9265 27.24 74.9265C25.6134 74.9265 24.2534 74.2332 23.16 72.8465C22.0667 71.4332 21.52 69.4732 21.52 66.9665C21.52 64.4332 22.0667 62.2865 23.16 60.5265C24.2534 58.7665 25.76 57.8865 27.68 57.8865C29.2534 57.8865 30.5867 58.2598 31.68 59.0065C32.7734 59.7265 33.6 60.6598 34.16 61.8065C34.72 62.9265 35.2134 64.0865 35.64 65.2865C36.04 66.4598 36.52 67.6198 37.08 68.7665C37.6133 69.8865 38.24 70.6865 38.96 71.1665C38.4267 70.5265 38.16 69.6998 38.16 68.6865C38.16 67.6732 38.3334 66.5265 38.68 65.2465C39.0267 63.9398 39.2 62.9132 39.2 62.1665C39.2 61.4198 39.16 60.8065 39.08 60.3265C39 59.8465 38.7734 59.3932 38.4 58.9665C38.0267 58.5398 37.4934 58.2865 36.8 58.2065L36.8 57.8065C37.6534 57.5932 38.4934 57.4865 39.32 57.4865Z" fill="white"/>
<path d="M33.56 34.1937C37.16 34.1937 40.0533 35.087 42.24 36.8737C44.4 38.6603 45.48 41.0737 45.48 44.1137C45.48 47.127 44.4 49.5137 42.24 51.2737C40.08 53.007 37.0267 53.8737 33.08 53.8737C29.8267 53.8737 27.0934 53.007 24.88 51.2737C22.64 49.5137 21.52 47.087 21.52 43.9937C21.52 40.8737 22.6267 38.4603 24.84 36.7537C27.0267 35.047 29.9333 34.1937 33.56 34.1937ZM33.08 40.1537C25.9067 40.1537 22.32 41.447 22.32 44.0337C22.32 46.6203 25.9067 47.9137 33.08 47.9137C36.92 47.9137 39.8133 47.6337 41.76 47.0737C43.7067 46.5137 44.68 45.487 44.68 43.9937C44.68 42.5003 43.72 41.487 41.8 40.9537C39.88 40.4203 36.9734 40.1537 33.08 40.1537Z" fill="white"/>
</svg>
