<svg width="70" height="110" viewBox="0 0 70 110" fill="none" xmlns="http://www.w3.org/2000/svg">
<rect x="1" y="1" width="68" height="108" fill="#D81616" stroke="white" stroke-width="2"/>
<path d="M39.32 55.4748C41 55.4748 42.44 55.8748 43.64 56.6748C44.8134 57.4481 45.4 58.5948 45.4 60.1148C45.4 61.6081 44.9067 63.3548 43.92 65.3548C42.9067 67.3548 42.4 68.7948 42.4 69.6748C42.4 71.2481 43.2667 72.2214 45 72.5948L45 73.3948C42.9734 73.2348 41.0667 72.4881 39.28 71.1548C38.08 70.2481 36.04 68.3281 33.16 65.3948C32.3867 64.6214 31.4667 63.9281 30.4 63.3148C29.3334 62.7014 28.1867 62.3948 26.96 62.3948C25.7334 62.3948 24.68 62.7548 23.8 63.4748C22.92 64.1948 22.48 65.2614 22.48 66.6748C22.48 67.5814 22.6534 68.4081 23 69.1548C23.3467 69.9014 23.7467 70.2748 24.2 70.2748C24.6267 70.2748 24.9467 70.1014 25.16 69.7548C25.3734 69.3814 25.5467 68.9948 25.68 68.5948C25.7867 68.1681 26.0534 67.7814 26.48 67.4348C26.9067 67.0614 27.48 66.8748 28.2 66.8748C28.92 66.8748 29.5334 67.1414 30.04 67.6748C30.5467 68.1814 30.8 68.8881 30.8 69.7948C30.8 70.7014 30.4667 71.4481 29.8 72.0348C29.1334 72.6214 28.28 72.9148 27.24 72.9148C25.6134 72.9148 24.2534 72.2214 23.16 70.8348C22.0667 69.4214 21.52 67.4614 21.52 64.9548C21.52 62.4214 22.0667 60.2748 23.16 58.5148C24.2534 56.7548 25.76 55.8748 27.68 55.8748C29.2534 55.8748 30.5867 56.2481 31.68 56.9948C32.7734 57.7148 33.6 58.6481 34.16 59.7948C34.72 60.9148 35.2134 62.0748 35.64 63.2748C36.04 64.4481 36.52 65.6081 37.08 66.7548C37.6134 67.8748 38.24 68.6748 38.96 69.1548C38.4267 68.5148 38.16 67.6881 38.16 66.6748C38.16 65.6614 38.3334 64.5148 38.68 63.2348C39.0267 61.9281 39.2 60.9014 39.2 60.1548C39.2 59.4081 39.16 58.7948 39.08 58.3148C39 57.8348 38.7734 57.3814 38.4 56.9548C38.0267 56.5281 37.4934 56.2748 36.8 56.1948L36.8 55.7948C37.6534 55.5814 38.4934 55.4748 39.32 55.4748Z" fill="white"/>
<path d="M28.04 42.502C28.04 43.3553 27.8934 44.6086 27.6 46.262C27.28 47.8886 27.12 49.0486 27.12 49.742C27.12 50.4353 27.4 51.022 27.96 51.502C28.52 51.9553 29.24 52.2086 30.12 52.262L30.12 52.702C29.2134 52.942 28.0134 53.062 26.52 53.062C25 53.062 23.76 52.6753 22.8 51.902C21.8134 51.1286 21.32 50.0086 21.32 48.542C21.32 47.0486 21.7067 45.1686 22.48 42.902C23.2534 40.6086 23.64 39.102 23.64 38.382C23.64 37.6353 23.4267 37.102 23 36.782C22.5467 36.462 21.8934 36.222 21.04 36.062L21.04 35.382C24.08 35.382 26.6267 36.1153 28.68 37.582C29.5334 38.1953 30.3467 38.822 31.12 39.462C32.9334 40.9286 35 41.662 37.32 41.662C37.88 41.662 38.6267 41.542 39.56 41.302C40.4934 41.062 41.3334 40.942 42.08 40.942C42.8 40.942 43.5467 41.2886 44.32 41.982C45.0934 42.6486 45.48 43.5553 45.48 44.702C45.48 45.822 45.08 46.702 44.28 47.342C43.4534 47.982 42.36 48.302 41 48.302C39.64 48.302 38.3867 48.022 37.24 47.462C36.0667 46.8753 35.0667 46.1286 34.24 45.222C33.4134 44.3153 32.6267 43.382 31.88 42.422C31.1334 41.4353 30.2134 40.4486 29.12 39.462C28.0267 38.4486 26.8534 37.662 25.6 37.102L25.48 37.222C27.1867 38.2353 28.04 39.9953 28.04 42.502Z" fill="white"/>
</svg>
