<svg width="70" height="110" viewBox="0 0 70 110" fill="none" xmlns="http://www.w3.org/2000/svg">
<rect x="1" y="1" width="68" height="108" fill="#2B2B2B" stroke="white" stroke-width="2"/>
<path d="M21.52 66.7696C21.52 60.6896 23.36 57.6496 27.04 57.6496C28.5067 57.6496 29.7467 58.2362 30.76 59.4096C31.7734 60.5562 32.3334 62.2096 32.44 64.3696C32.4667 61.9429 33.0134 59.9829 34.08 58.4896C35.1467 56.9696 36.6 56.2096 38.44 56.2096C40.7067 56.2096 42.48 57.1296 43.76 58.9696C45.0134 60.7829 45.64 63.3562 45.64 66.6896C45.64 69.0096 45.1334 70.8229 44.12 72.1296C43.08 73.4096 41.7067 74.0496 40 74.0496C38.9334 74.0496 38.0667 73.7696 37.4 73.2096C36.7334 72.6229 36.4 71.8629 36.4 70.9296C36.4 69.9962 36.6534 69.2762 37.16 68.7696C37.6667 68.2362 38.2934 67.9696 39.04 67.9696C39.76 67.9696 40.3334 68.1696 40.76 68.5696C41.1867 68.9696 41.4534 69.4096 41.56 69.8896C41.8534 71.1429 42.28 71.7696 42.84 71.7696C43.3734 71.7696 43.8134 71.3962 44.16 70.6496C44.5067 69.8762 44.68 68.9962 44.68 68.0096C44.68 66.4629 44.12 65.2096 43 64.2496C41.88 63.2896 40.3734 62.8096 38.48 62.8096C36.56 62.8096 35.1467 63.2362 34.24 64.0896C33.3334 64.9162 32.88 66.4362 32.88 68.6496L32.88 69.2896L32.08 69.2896L32.08 68.6496C32.08 66.9429 31.5734 65.7162 30.56 64.9696C29.52 64.2229 28.3467 63.8496 27.04 63.8496C25.7334 63.8496 24.64 64.2229 23.76 64.9696C22.88 65.7162 22.44 66.6629 22.44 67.8096C22.44 68.9562 22.6267 69.8229 23 70.4096C23.3734 70.9962 23.7734 71.2896 24.2 71.2896C24.6 71.2896 24.8934 71.1296 25.08 70.8096C25.2667 70.4629 25.4134 70.0896 25.52 69.6896C25.6 69.2629 25.8267 68.8896 26.2 68.5696C26.5734 68.2229 27.08 68.0496 27.72 68.0496C28.36 68.0496 28.9067 68.2762 29.36 68.7296C29.8134 69.1829 30.04 69.8229 30.04 70.6496C30.04 71.4762 29.7467 72.1562 29.16 72.6896C28.5734 73.2229 27.7734 73.4896 26.76 73.4896C25.2934 73.4896 24.0534 72.8896 23.04 71.6896C22.0267 70.4629 21.52 68.8229 21.52 66.7696Z" fill="white"/>
<path d="M21.52 45.7149C21.52 39.6349 23.36 36.5949 27.04 36.5949C28.5067 36.5949 29.7467 37.1815 30.76 38.3549C31.7734 39.5015 32.3333 41.1549 32.44 43.3149C32.4667 40.8882 33.0133 38.9282 34.08 37.4349C35.1467 35.9149 36.6 35.1549 38.44 35.1549C40.7067 35.1549 42.48 36.0749 43.76 37.9149C45.0133 39.7282 45.64 42.3015 45.64 45.6349C45.64 47.9549 45.1334 49.7682 44.12 51.0749C43.08 52.3549 41.7067 52.9949 40 52.9949C38.9334 52.9949 38.0667 52.7149 37.4 52.1549C36.7333 51.5682 36.4 50.8082 36.4 49.8749C36.4 48.9415 36.6534 48.2215 37.16 47.7149C37.6667 47.1815 38.2934 46.9149 39.04 46.9149C39.76 46.9149 40.3333 47.1149 40.76 47.5149C41.1867 47.9149 41.4534 48.3549 41.56 48.8349C41.8534 50.0882 42.28 50.7149 42.84 50.7149C43.3734 50.7149 43.8134 50.3415 44.16 49.5949C44.5067 48.8215 44.68 47.9415 44.68 46.9549C44.68 45.4082 44.12 44.1549 43 43.1949C41.88 42.2349 40.3734 41.7549 38.48 41.7549C36.56 41.7549 35.1467 42.1815 34.24 43.0349C33.3334 43.8615 32.88 45.3815 32.88 47.5949L32.88 48.2349L32.08 48.2349L32.08 47.5949C32.08 45.8882 31.5734 44.6615 30.56 43.9149C29.52 43.1682 28.3467 42.7949 27.04 42.7949C25.7334 42.7949 24.64 43.1682 23.76 43.9149C22.88 44.6615 22.44 45.6082 22.44 46.7549C22.44 47.9015 22.6267 48.7682 23 49.3549C23.3734 49.9415 23.7734 50.2349 24.2 50.2349C24.6 50.2349 24.8934 50.0749 25.08 49.7549C25.2667 49.4082 25.4133 49.0349 25.52 48.6349C25.6 48.2082 25.8267 47.8349 26.2 47.5149C26.5734 47.1682 27.08 46.9949 27.72 46.9949C28.36 46.9949 28.9067 47.2215 29.36 47.6749C29.8134 48.1282 30.04 48.7682 30.04 49.5949C30.04 50.4215 29.7467 51.1015 29.16 51.6349C28.5734 52.1682 27.7734 52.4349 26.76 52.4349C25.2933 52.4349 24.0533 51.8349 23.04 50.6349C22.0267 49.4082 21.52 47.7682 21.52 45.7149Z" fill="white"/>
</svg>
