<svg width="70" height="110" viewBox="0 0 70 110" fill="none" xmlns="http://www.w3.org/2000/svg">
<rect x="1" y="1" width="68" height="108" fill="#D81616" stroke="white" stroke-width="2"/>
<path d="M23.84 53.4477C23.84 51.9011 23.76 50.8077 23.6 50.1677C23.4133 49.5277 23.1467 49.0611 22.8 48.7677C22.4267 48.4477 21.9333 48.1544 21.32 47.8877L21.32 47.4877C22.1467 47.2744 23.0533 47.1677 24.04 47.1677C25.7733 47.1677 27.1867 47.5811 28.28 48.4077C29.3733 49.2344 29.92 50.4477 29.92 52.0477C29.92 54.9811 28.6667 57.6344 26.16 60.0077L33.72 60.8477C32.6533 59.7277 32.12 57.9411 32.12 55.4877C32.12 52.2611 32.72 49.8611 33.92 48.2877C35.0933 46.6877 36.7867 45.8877 39 45.8877C41.2133 45.8877 43 46.7811 44.36 48.5677C45.72 50.3277 46.4 52.9144 46.4 56.3277C46.4 58.6477 45.8933 60.4611 44.88 61.7677C43.84 63.0477 42.4667 63.6877 40.76 63.6877C39.6933 63.6877 38.8267 63.4077 38.16 62.8477C37.4933 62.2611 37.16 61.5011 37.16 60.5677C37.16 59.6344 37.4133 58.9144 37.92 58.4077C38.4267 57.8744 39.0533 57.6077 39.8 57.6077C40.52 57.6077 41.0933 57.8077 41.52 58.2077C41.9467 58.6077 42.2133 59.0477 42.32 59.5277C42.6133 60.7811 43.04 61.4077 43.6 61.4077C44.1333 61.4077 44.5733 61.0344 44.92 60.2877C45.2667 59.5144 45.44 58.6344 45.44 57.6477C45.44 54.2077 43.2667 52.4877 38.92 52.4877C37.1333 52.4877 35.7467 52.7944 34.76 53.4077C33.7733 53.9944 33.28 55.1811 33.28 56.9677C33.28 58.7277 33.9467 60.1411 35.28 61.2077L35.12 61.8877L22.92 60.5277C23.5333 59.0077 23.84 56.6477 23.84 53.4477Z" fill="white"/>
</svg>
