<svg width="140" height="110" viewBox="0 0 140 110" fill="none" xmlns="http://www.w3.org/2000/svg">
<rect x="1" y="1" width="138" height="108" stroke="white" stroke-width="2"/>
<path d="M39.9498 65.28C43.5498 65.28 45.3498 63.24 45.3498 59.16H46.0698V66H29.1498V65.28H30.9498V46.56H29.1498V45.84H45.7098V51.96H44.9898C44.9898 49.824 44.5578 48.396 43.6938 47.676C42.8538 46.932 41.4858 46.56 39.5898 46.56H36.3498V55.2H37.7898C39.5178 55.2 40.6098 54.984 41.0658 54.552C41.5218 54.12 41.7498 53.256 41.7498 51.96H42.4698V59.16H41.7498C41.7498 57.816 41.5218 56.94 41.0658 56.532C40.6098 56.124 39.5178 55.92 37.7898 55.92H36.3498V65.28H39.9498Z" fill="white"/>
<path d="M68.063 45.84V46.56H65.615L57.947 66H57.011L47.975 46.56H46.247V45.84H56.435V46.56H54.671L59.927 58.62L64.679 46.56H61.799V45.84H68.063Z" fill="white"/>
<path d="M79.2221 65.28C82.8221 65.28 84.6221 63.24 84.6221 59.16H85.3421V66H68.4221V65.28H70.2221V46.56H68.4221V45.84H84.9821V51.96H84.2621C84.2621 49.824 83.8301 48.396 82.9661 47.676C82.1261 46.932 80.7581 46.56 78.8621 46.56H75.6221V55.2H77.0621C78.7901 55.2 79.8821 54.984 80.3381 54.552C80.7941 54.12 81.0221 53.256 81.0221 51.96H81.7421V59.16H81.0221C81.0221 57.816 80.7941 56.94 80.3381 56.532C79.8821 56.124 78.7901 55.92 77.0621 55.92H75.6221V65.28H79.2221Z" fill="white"/>
<path d="M88.7593 65.28H91.6393V66H85.8793V65.28H88.0393V48.144C87.2713 47.088 86.5513 46.56 85.8793 46.56V45.84H92.6113L102.727 57.828V46.56H99.8473V45.84H105.967V46.56H103.447V66.36H102.727L88.7593 49.044V65.28Z" fill="white"/>
</svg>
