<svg width="96" height="80" viewBox="0 0 96 80" fill="none" xmlns="http://www.w3.org/2000/svg">
<g clip-path="url(#clip0)">
<ellipse cx="48" cy="36.9231" rx="48" ry="36.9231" fill="#474747"/>
<path d="M48 73.8462C21.4903 73.8462 0 57.3151 0 36.9231V43.0769C0 63.469 21.4903 80 48 80C74.5097 80 96 63.469 96 43.0769V36.9231C96 57.3151 74.5097 73.8462 48 73.8462Z" fill="#00AFA5"/>
<g style="mix-blend-mode:multiply">
<path d="M48 73.8462C21.4903 73.8462 0 57.3151 0 36.9231V43.0769C0 63.469 21.4903 80 48 80C74.5097 80 96 63.469 96 43.0769V36.9231C96 57.3151 74.5097 73.8462 48 73.8462Z" fill="url(#paint0_linear)" fill-opacity="0.2"/>
</g>
<ellipse cx="48" cy="36.92" rx="48" ry="36.92" fill="#00AFA5"/>
<path d="M60.0001 1.16315V5.33014C56.47 5.8537 52.3715 6.15335 48.0001 6.15335C43.6286 6.15335 39.5301 5.8537 36.0001 5.33014V1.16313C39.8355 0.403836 43.8564 0 48 0C52.1436 0 56.1646 0.403844 60.0001 1.16315Z" fill="white"/>
<path d="M82.2492 11.0527L77.5677 13.1316C78.7333 15.7227 80.4261 18.576 82.5854 21.4626L82.6966 21.6108C84.8671 24.4924 87.2332 27.0466 89.5677 29.1185L94.2601 27.0347C92.0577 20.9239 87.8636 15.4501 82.2492 11.0527Z" fill="white"/>
<path d="M94.2601 46.8053L89.5678 44.7215C87.2236 46.802 84.8477 49.3687 82.6698 52.2648L82.612 52.3419C80.4401 55.2406 78.7381 58.1067 77.5678 60.7084L82.2492 62.7873C87.8636 58.3899 92.0577 52.9161 94.2601 46.8053Z" fill="white"/>
<path d="M60.0001 72.6768V68.5098C56.4834 67.9883 52.4026 67.6889 48.0497 67.6867H47.9504C43.5975 67.6889 39.5168 67.9883 36.0001 68.5098V72.6768C39.8355 73.4361 43.8564 73.84 48 73.84C52.1436 73.84 56.1646 73.4361 60.0001 72.6768Z" fill="white"/>
<path d="M13.7508 62.7872L18.4321 60.7084C17.2662 58.1166 15.5728 55.2624 13.4127 52.375L13.3051 52.2316C11.1341 49.3491 8.76734 46.794 6.43218 44.7215L1.73992 46.8052C3.94231 52.916 8.13641 58.3899 13.7508 62.7872Z" fill="white"/>
<path d="M1.73987 27.0349L6.43206 29.1186C8.78662 27.0289 11.1733 24.4486 13.359 21.5367C15.5447 18.6248 17.2566 15.745 18.4321 13.1318L13.7507 11.0528C8.1363 15.4502 3.94223 20.9241 1.73987 27.0349Z" fill="white"/>
<g style="mix-blend-mode:multiply">
<ellipse cx="48" cy="36.92" rx="36" ry="27.69" fill="black" fill-opacity="0.5"/>
</g>
<path fill-rule="evenodd" clip-rule="evenodd" d="M81.8303 39.5492L80.8386 39.4205C80.9453 38.5983 81 37.7641 81 36.92C81 36.0758 80.9453 35.2417 80.8386 34.4195L81.8303 34.2907C81.9425 35.1554 82 36.0325 82 36.92C82 37.8074 81.9425 38.6845 81.8303 39.5492ZM80.8644 30.1925L79.9191 30.5187C79.3773 28.9489 78.6399 27.4355 77.7254 25.9952L78.5697 25.4592C79.5237 26.9618 80.2959 28.5452 80.8644 30.1925ZM76.0216 22.1047L75.2766 22.7717C74.1711 21.5371 72.9233 20.3788 71.5494 19.3114L72.163 18.5218C73.5818 19.6241 74.8741 20.8231 76.0216 22.1047ZM68.6749 16.1572L68.1667 17.0185C66.7271 16.1691 65.1919 15.4077 63.5747 14.7456L63.9536 13.8201C65.6141 14.5 67.1927 15.2827 68.6749 16.1572ZM59.9718 12.4356L59.6938 13.3961C58.0773 12.9283 56.3995 12.5544 54.6718 12.2835L54.8267 11.2956C56.5956 11.5729 58.3145 11.9559 59.9718 12.4356ZM50.6371 10.8458L50.5782 11.8441C49.7275 11.7939 48.8677 11.7683 48 11.7683C47.1323 11.7683 46.2725 11.7939 45.4218 11.8441L45.3629 10.8458C46.2332 10.7945 47.1126 10.7683 48 10.7683C48.8874 10.7683 49.7668 10.7945 50.6371 10.8458ZM41.1733 11.2956L41.3282 12.2835C39.6005 12.5544 37.9227 12.9283 36.3062 13.3961L36.0282 12.4356C37.6855 11.9559 39.4044 11.5729 41.1733 11.2956ZM32.0464 13.8201L32.4253 14.7456C30.8081 15.4077 29.2728 16.1691 27.8333 17.0185L27.3251 16.1572C28.8073 15.2827 30.3858 14.5 32.0464 13.8201ZM23.837 18.5218L24.4506 19.3114C23.0767 20.3788 21.8289 21.5371 20.7234 22.7717L19.9784 22.1047C21.1259 20.8231 22.4182 19.6241 23.837 18.5218ZM17.4303 25.4592L18.2745 25.9952C17.3601 27.4355 16.6226 28.9489 16.0809 30.5187L15.1356 30.1925C15.7041 28.5452 16.4763 26.9618 17.4303 25.4592ZM14.1697 34.2908C14.0575 35.1554 14 36.0325 14 36.92C14 37.8074 14.0575 38.6845 14.1697 39.5492L15.1614 39.4205C15.0547 38.5983 15 37.7641 15 36.92C15 36.0758 15.0547 35.2417 15.1614 34.4195L14.1697 34.2908ZM15.1356 43.6474L16.0809 43.3212C16.6226 44.8911 17.3601 46.4044 18.2745 47.8448L17.4303 48.3808C16.4763 46.8781 15.7041 45.2947 15.1356 43.6474ZM19.9784 51.7353L20.7234 51.0682C21.8289 52.3028 23.0767 53.4611 24.4506 54.5285L23.837 55.3182C22.4182 54.2158 21.1259 53.0169 19.9784 51.7353ZM27.3251 57.6827L27.8333 56.8215C29.2728 57.6708 30.8081 58.4322 32.4253 59.0944L32.0464 60.0198C30.3858 59.3399 28.8073 58.5572 27.3251 57.6827ZM36.0282 61.4044L36.3062 60.4438C37.9227 60.9117 39.6005 61.2855 41.3282 61.5564L41.1733 62.5443C39.4044 62.267 37.6855 61.884 36.0282 61.4044ZM45.3629 62.9941L45.4218 61.9959C46.2725 62.0461 47.1323 62.0716 48 62.0716C48.8677 62.0716 49.7275 62.0461 50.5782 61.9959L50.6371 62.9941C49.7668 63.0455 48.8874 63.0716 48 63.0716C47.1126 63.0716 46.2332 63.0455 45.3629 62.9941ZM54.8267 62.5443L54.6718 61.5564C56.3995 61.2855 58.0773 60.9117 59.6938 60.4438L59.9718 61.4044C58.3145 61.884 56.5956 62.267 54.8267 62.5443ZM63.9536 60.0198L63.5747 59.0944C65.1919 58.4322 66.7271 57.6708 68.1667 56.8215L68.6749 57.6827C67.1927 58.5572 65.6141 59.3399 63.9536 60.0198ZM72.163 55.3182L71.5494 54.5285C72.9233 53.4611 74.1711 52.3028 75.2766 51.0682L76.0216 51.7353C74.8741 53.0169 73.5818 54.2158 72.163 55.3182ZM78.5697 48.3808L77.7254 47.8448C78.6399 46.4044 79.3773 44.8911 79.9191 43.3212L80.8644 43.6474C80.2959 45.2947 79.5237 46.8781 78.5697 48.3808Z" fill="white"/>
<ellipse cx="48" cy="36.92" rx="30" ry="23.075" fill="white"/>
</g>
<defs>
<linearGradient id="paint0_linear" x1="-6.47887e-07" y1="36" x2="96" y2="36" gradientUnits="userSpaceOnUse">
<stop/>
<stop offset="0.427083" stop-color="white"/>
<stop offset="1"/>
</linearGradient>
<clipPath id="clip0">
<rect width="96" height="80" fill="white"/>
</clipPath>
</defs>
</svg>
